<svg width="26" height="27" viewBox="0 0 26 27" fill="none" xmlns="http://www.w3.org/2000/svg">
<path d="M14.5506 0.0884781C20.0242 0.749678 24.5261 4.82612 25.7048 10.179C25.7853 10.5412 25.883 11.0874 25.9233 11.3864C26.021 12.0878 26.021 13.9622 25.9233 14.6636C25.2793 19.4358 22.1918 23.3915 17.7301 25.1566C16.954 25.4671 15.8385 25.7603 14.8784 25.9098C13.9642 26.0535 12.0611 26.0535 11.1469 25.9155C8.30661 25.4728 5.81705 24.2252 3.83919 22.2531C-1.66889 16.768 -1.18593 7.70665 4.87411 2.85977C7.57066 0.697931 11.1411 -0.319742 14.5506 0.0884781ZM15.1083 7.1202L14.9071 7.53416L14.3609 7.49392C13.648 7.43642 12.2221 7.43642 11.5724 7.49392L11.0549 7.53992L10.8364 7.0972L10.6179 6.66023L10.3764 6.69473C9.68075 6.80397 8.36985 7.19494 7.56491 7.53416L7.13944 7.7124L6.77147 8.29886C5.29383 10.6562 4.58664 13.1285 4.58664 15.8998C4.58664 17.3947 4.54064 17.2682 5.27084 17.7511C6.30001 18.4296 7.45567 18.9988 8.47909 19.3265L8.89306 19.4588L9.00805 19.315C9.19204 19.0908 9.76125 18.1191 9.76125 18.0329C9.76125 17.9869 9.70375 17.9294 9.62901 17.9064C9.50252 17.8661 8.49059 17.3774 8.4446 17.3314C8.3986 17.2854 8.62858 17.0784 8.72632 17.0784C8.78382 17.0784 8.96781 17.1417 9.14029 17.2164C9.6635 17.4464 10.5547 17.7051 11.2849 17.8374C12.1761 17.9984 13.7112 18.0099 14.5334 17.8661C15.2521 17.7339 16.2123 17.4637 16.7757 17.2279L17.2242 17.0382L17.3852 17.1647L17.5462 17.2969L17.3507 17.4177C17.2414 17.4809 16.9252 17.6362 16.6492 17.7511C16.3732 17.8719 16.1433 17.9869 16.1433 18.0041C16.1433 18.0616 16.885 19.2863 16.9827 19.3783C17.0574 19.453 17.1322 19.4415 17.6267 19.2748C18.3913 19.0103 20.0185 18.1939 20.7142 17.7224L21.2891 17.3372L21.3351 16.8772C21.3984 16.239 21.3466 14.6521 21.2316 13.8587C20.9614 11.9613 20.3174 10.202 19.2653 8.4426L18.8283 7.7124L18.2476 7.48817C17.9256 7.36168 17.5347 7.21219 17.3794 7.16044C16.8562 6.98221 15.5971 6.67173 15.4533 6.68898C15.3383 6.70048 15.2751 6.77522 15.1083 7.1202Z" fill="black"/>
<path d="M16.2602 12.0935C16.5592 12.1855 17.0249 12.68 17.1399 13.0192C17.2607 13.3757 17.2664 13.9851 17.1457 14.3358C17.0307 14.6751 16.6742 15.0775 16.358 15.2328C15.852 15.48 15.1908 15.3593 14.7711 14.9453C14.4491 14.6233 14.2766 14.1921 14.2766 13.6861C14.2766 12.5247 15.2253 11.7658 16.2602 12.0935Z" fill="black"/>
<path d="M10.5914 12.0591C10.9536 12.1511 11.3733 12.5708 11.5516 13.0078C11.6838 13.324 11.6896 13.9795 11.5688 14.3359C11.4538 14.6752 11.0974 15.0776 10.7811 15.2329C10.2407 15.4916 9.45299 15.3191 9.10227 14.8592C8.67105 14.29 8.56756 13.531 8.84929 12.9388C9.13677 12.3351 9.59673 12.0189 10.1659 12.0246C10.3384 12.0304 10.5339 12.0476 10.5914 12.0591Z" fill="black"/>
</svg>
