<svg width="25" height="25" viewBox="0 0 25 25" fill="none" xmlns="http://www.w3.org/2000/svg">
<path d="M12.5 0C19.4038 0 25 5.5962 25 12.5C25 19.4038 19.4038 25 12.5 25C5.5962 25 0 19.4038 0 12.5C0 5.5962 5.5962 0 12.5 0ZM16.812 17.5951C17.0418 16.8897 18.119 9.85924 18.2522 8.47391C18.2924 8.05435 18.1598 7.77554 17.9 7.65109C17.5859 7.5 17.1207 7.57554 16.581 7.77011C15.8408 8.03696 6.37772 12.0549 5.83098 12.2875C5.3125 12.5076 4.82228 12.7478 4.82228 13.0957C4.82228 13.3402 4.96739 13.4777 5.36739 13.6207C5.7837 13.769 6.83207 14.087 7.45109 14.2576C8.04728 14.4223 8.72609 14.2793 9.10652 14.0429C9.50978 13.7924 14.1636 10.6783 14.4978 10.4054C14.8315 10.1326 15.0978 10.4821 14.825 10.7554C14.5522 11.0283 11.3576 14.1288 10.9364 14.5582C10.425 15.0793 10.788 15.6196 11.131 15.8359C11.5228 16.0826 14.3408 17.9728 14.7652 18.2761C15.1897 18.5793 15.6201 18.7168 16.0141 18.7168C16.4082 18.7168 16.6158 18.1978 16.812 17.5951Z" fill="black"/>
</svg>
