<svg width="20" height="22" viewBox="0 0 20 22" fill="none" xmlns="http://www.w3.org/2000/svg">
<mask id="path-1-outside-1_715_2061" maskUnits="userSpaceOnUse" x="0" y="-0.299316" width="20" height="22" fill="black">
<rect fill="white" y="-0.299316" width="20" height="22"/>
<path d="M3.16632 1.05088C2.39088 1.19721 1.65876 1.70935 1.31219 2.34087C0.978626 2.94543 1.00029 2.36783 1.00029 10.8471C1.00029 17.5089 1.00895 18.4715 1.06527 18.7334C1.22989 19.4573 1.78872 20.1119 2.51651 20.4316C3.19231 20.7242 2.62914 20.705 11.0463 20.6973C18.5798 20.6857 18.5841 20.6857 18.7011 20.6048C18.7661 20.5625 18.8614 20.4778 18.909 20.42L19 20.316V10.8471V1.37819L18.909 1.27422C18.8614 1.21646 18.7661 1.13174 18.7011 1.08939L18.5841 1.00852L11.016 1.00082C4.66954 0.996968 3.40458 1.00467 3.16632 1.05088ZM17.7134 8.98722L17.7004 15.8338L10.4442 15.8531C3.51288 15.8723 3.17931 15.8762 2.94971 15.9455C2.81975 15.984 2.62048 16.0571 2.50784 16.1072L2.2999 16.1996V9.79202C2.2999 5.19426 2.3129 3.32281 2.34756 3.17648C2.46886 2.67588 2.87174 2.29851 3.41324 2.18684C3.50422 2.16759 6.70561 2.15219 10.6521 2.14833L17.722 2.14448L17.7134 8.98722ZM17.722 18.279V19.5497L10.5655 19.542L3.40458 19.5305L3.16198 19.4304C2.39954 19.1108 2.10496 18.3445 2.49052 17.6706C2.62481 17.4318 2.93672 17.1893 3.22697 17.0891C3.44357 17.0121 3.58219 17.0121 10.5871 17.0121L17.722 17.0083V18.279Z"/>
</mask>
<path d="M3.16632 1.05088C2.39088 1.19721 1.65876 1.70935 1.31219 2.34087C0.978626 2.94543 1.00029 2.36783 1.00029 10.8471C1.00029 17.5089 1.00895 18.4715 1.06527 18.7334C1.22989 19.4573 1.78872 20.1119 2.51651 20.4316C3.19231 20.7242 2.62914 20.705 11.0463 20.6973C18.5798 20.6857 18.5841 20.6857 18.7011 20.6048C18.7661 20.5625 18.8614 20.4778 18.909 20.42L19 20.316V10.8471V1.37819L18.909 1.27422C18.8614 1.21646 18.7661 1.13174 18.7011 1.08939L18.5841 1.00852L11.016 1.00082C4.66954 0.996968 3.40458 1.00467 3.16632 1.05088ZM17.7134 8.98722L17.7004 15.8338L10.4442 15.8531C3.51288 15.8723 3.17931 15.8762 2.94971 15.9455C2.81975 15.984 2.62048 16.0571 2.50784 16.1072L2.2999 16.1996V9.79202C2.2999 5.19426 2.3129 3.32281 2.34756 3.17648C2.46886 2.67588 2.87174 2.29851 3.41324 2.18684C3.50422 2.16759 6.70561 2.15219 10.6521 2.14833L17.722 2.14448L17.7134 8.98722ZM17.722 18.279V19.5497L10.5655 19.542L3.40458 19.5305L3.16198 19.4304C2.39954 19.1108 2.10496 18.3445 2.49052 17.6706C2.62481 17.4318 2.93672 17.1893 3.22697 17.0891C3.44357 17.0121 3.58219 17.0121 10.5871 17.0121L17.722 17.0083V18.279Z" fill="black"/>
<path d="M3.16632 1.05088C2.39088 1.19721 1.65876 1.70935 1.31219 2.34087C0.978626 2.94543 1.00029 2.36783 1.00029 10.8471C1.00029 17.5089 1.00895 18.4715 1.06527 18.7334C1.22989 19.4573 1.78872 20.1119 2.51651 20.4316C3.19231 20.7242 2.62914 20.705 11.0463 20.6973C18.5798 20.6857 18.5841 20.6857 18.7011 20.6048C18.7661 20.5625 18.8614 20.4778 18.909 20.42L19 20.316V10.8471V1.37819L18.909 1.27422C18.8614 1.21646 18.7661 1.13174 18.7011 1.08939L18.5841 1.00852L11.016 1.00082C4.66954 0.996968 3.40458 1.00467 3.16632 1.05088ZM17.7134 8.98722L17.7004 15.8338L10.4442 15.8531C3.51288 15.8723 3.17931 15.8762 2.94971 15.9455C2.81975 15.984 2.62048 16.0571 2.50784 16.1072L2.2999 16.1996V9.79202C2.2999 5.19426 2.3129 3.32281 2.34756 3.17648C2.46886 2.67588 2.87174 2.29851 3.41324 2.18684C3.50422 2.16759 6.70561 2.15219 10.6521 2.14833L17.722 2.14448L17.7134 8.98722ZM17.722 18.279V19.5497L10.5655 19.542L3.40458 19.5305L3.16198 19.4304C2.39954 19.1108 2.10496 18.3445 2.49052 17.6706C2.62481 17.4318 2.93672 17.1893 3.22697 17.0891C3.44357 17.0121 3.58219 17.0121 10.5871 17.0121L17.722 17.0083V18.279Z" stroke="black" mask="url(#path-1-outside-1_715_2061)"/>
<mask id="path-2-outside-2_715_2061" maskUnits="userSpaceOnUse" x="4" y="5.50537" width="12" height="3" fill="black">
<rect fill="white" x="4" y="5.50537" width="12" height="3"/>
<path d="M5.49292 6.40406C5.14636 6.48108 4.97308 6.69287 5.0034 7.00863C5.02073 7.18961 5.04672 7.24352 5.18535 7.36289L5.3413 7.50537H9.80332H14.2653L14.4213 7.36289C14.5556 7.24737 14.5859 7.18961 14.6032 7.02018C14.6292 6.77373 14.5383 6.60045 14.313 6.47338L14.157 6.38866L9.88997 6.38096C7.54199 6.38096 5.56657 6.38866 5.49292 6.40406Z"/>
</mask>
<path d="M5.49292 6.40406C5.14636 6.48108 4.97308 6.69287 5.0034 7.00863C5.02073 7.18961 5.04672 7.24352 5.18535 7.36289L5.3413 7.50537H9.80332H14.2653L14.4213 7.36289C14.5556 7.24737 14.5859 7.18961 14.6032 7.02018C14.6292 6.77373 14.5383 6.60045 14.313 6.47338L14.157 6.38866L9.88997 6.38096C7.54199 6.38096 5.56657 6.38866 5.49292 6.40406Z" fill="black"/>
<path d="M5.49292 6.40406C5.14636 6.48108 4.97308 6.69287 5.0034 7.00863C5.02073 7.18961 5.04672 7.24352 5.18535 7.36289L5.3413 7.50537H9.80332H14.2653L14.4213 7.36289C14.5556 7.24737 14.5859 7.18961 14.6032 7.02018C14.6292 6.77373 14.5383 6.60045 14.313 6.47338L14.157 6.38866L9.88997 6.38096C7.54199 6.38096 5.56657 6.38866 5.49292 6.40406Z" stroke="black" mask="url(#path-2-outside-2_715_2061)"/>
</svg>
