<svg width="111" height="105" viewBox="0 0 111 105" fill="none" xmlns="http://www.w3.org/2000/svg">
<path fill-rule="evenodd" clip-rule="evenodd" d="M26.4464 3C19.6871 3 13.7627 7.52081 11.9784 14.0404L2 50.5H15V62.5H42.5C42 73 39 79.5 28 79.5C26.3549 79.5808 21.4865 79.5441 18.0367 79.518C16.7438 79.5083 15.6501 79.5 15 79.5V88C15 96.2843 21.7157 103 30 103H94C102.284 103 109 96.2843 109 88V18C109 9.71573 102.284 3 94 3H26.4464ZM40.6569 35.3431C42.1571 36.8434 43 38.8783 43 41H35H27C27 38.8783 27.8429 36.8434 29.3431 35.3431C30.8434 33.8429 32.8783 33 35 33C37.1217 33 39.1566 33.8429 40.6569 35.3431Z" fill="url(#paint0_linear_932_1424)"/>
<path d="M11.9784 14.0404L13.4252 14.4363L13.4252 14.4363L11.9784 14.0404ZM2 50.5L0.553206 50.104L0.0343107 52H2V50.5ZM15 50.5H16.5V49H15V50.5ZM15 62.5H13.5V64H15V62.5ZM42.5 62.5L43.9983 62.5713L44.0731 61H42.5V62.5ZM28 79.5V78H27.9632L27.9264 78.0018L28 79.5ZM18.0367 79.518L18.0254 81.018L18.0254 81.018L18.0367 79.518ZM15 79.5V78H13.5V79.5H15ZM43 41V42.5H44.5V41H43ZM40.6569 35.3431L41.7175 34.2825L41.7175 34.2825L40.6569 35.3431ZM27 41H25.5V42.5H27V41ZM29.3431 35.3431L28.2825 34.2825L28.2825 34.2825L29.3431 35.3431ZM13.4252 14.4363C15.0311 8.56873 20.363 4.5 26.4464 4.5V1.5C19.0111 1.5 12.4944 6.47289 10.5316 13.6444L13.4252 14.4363ZM3.44679 50.896L13.4252 14.4363L10.5316 13.6444L0.553206 50.104L3.44679 50.896ZM15 49H2V52H15V49ZM16.5 62.5V50.5H13.5V62.5H16.5ZM42.5 61H15V64H42.5V61ZM28 81C33.815 81 37.8369 79.2626 40.3906 75.8334C42.8589 72.5188 43.7454 67.8823 43.9983 62.5713L41.0017 62.4287C40.7546 67.6177 39.8911 71.4812 37.9844 74.0416C36.1631 76.4874 33.185 78 28 78V81ZM18.0254 81.018C21.4423 81.0438 26.3733 81.0817 28.0736 80.9982L27.9264 78.0018C26.3364 78.0799 21.5308 78.0444 18.048 78.0181L18.0254 81.018ZM15 81C15.6429 81 16.7293 81.0082 18.0254 81.018L18.048 78.0181C16.7583 78.0083 15.6573 78 15 78V81ZM16.5 88V79.5H13.5V88H16.5ZM30 101.5C22.5442 101.5 16.5 95.4558 16.5 88H13.5C13.5 97.1127 20.8873 104.5 30 104.5V101.5ZM94 101.5H30V104.5H94V101.5ZM107.5 88C107.5 95.4558 101.456 101.5 94 101.5V104.5C103.113 104.5 110.5 97.1127 110.5 88H107.5ZM107.5 18V88H110.5V18H107.5ZM94 4.5C101.456 4.5 107.5 10.5442 107.5 18H110.5C110.5 8.8873 103.113 1.5 94 1.5V4.5ZM26.4464 4.5H94V1.5H26.4464V4.5ZM44.5 41C44.5 38.4804 43.4991 36.0641 41.7175 34.2825L39.5962 36.4038C40.8152 37.6228 41.5 39.2761 41.5 41H44.5ZM35 42.5H43V39.5H35V42.5ZM27 42.5H35V39.5H27V42.5ZM28.2825 34.2825C26.5009 36.0641 25.5 38.4804 25.5 41H28.5C28.5 39.2761 29.1848 37.6228 30.4038 36.4038L28.2825 34.2825ZM35 31.5C32.4804 31.5 30.0641 32.5009 28.2825 34.2825L30.4038 36.4038C31.6228 35.1848 33.2761 34.5 35 34.5V31.5ZM41.7175 34.2825C39.9359 32.5009 37.5196 31.5 35 31.5V34.5C36.7239 34.5 38.3772 35.1848 39.5962 36.4038L41.7175 34.2825Z" fill="black"/>
<g filter="url(#filter0_d_932_1424)">
<path d="M90 3V39L79 29.5L68 39V3H90Z" fill="#FFA63C"/>
<path d="M90 3H91.5V1.5H90V3ZM90 39L89.0196 40.1352L91.5 42.2774V39H90ZM79 29.5L79.9804 28.3648L79 27.518L78.0196 28.3648L79 29.5ZM68 39H66.5V42.2774L68.9804 40.1352L68 39ZM68 3V1.5H66.5V3H68ZM88.5 3C88.5 3.02746 88.5 3.05495 88.5 3.08247C88.5 3.10998 88.5 3.13753 88.5 3.16511C88.5 3.19269 88.5 3.2203 88.5 3.24793C88.5 3.27557 88.5 3.30324 88.5 3.33093C88.5 3.35863 88.5 3.38635 88.5 3.41411C88.5 3.44186 88.5 3.46965 88.5 3.49746C88.5 3.52527 88.5 3.55311 88.5 3.58098C88.5 3.60885 88.5 3.63674 88.5 3.66467C88.5 3.69259 88.5 3.72055 88.5 3.74853C88.5 3.77651 88.5 3.80452 88.5 3.83256C88.5 3.8606 88.5 3.88866 88.5 3.91676C88.5 3.94485 88.5 3.97297 88.5 4.00112C88.5 4.02927 88.5 4.05744 88.5 4.08565C88.5 4.11385 88.5 4.14208 88.5 4.17034C88.5 4.19859 88.5 4.22688 88.5 4.25519C88.5 4.2835 88.5 4.31184 88.5 4.3402C88.5 4.36857 88.5 4.39696 88.5 4.42537C88.5 4.45379 88.5 4.48223 88.5 4.5107C88.5 4.53917 88.5 4.56767 88.5 4.59619C88.5 4.62471 88.5 4.65326 88.5 4.68183C88.5 4.7104 88.5 4.739 88.5 4.76762C88.5 4.79625 88.5 4.8249 88.5 4.85357C88.5 4.88224 88.5 4.91094 88.5 4.93967C88.5 4.96839 88.5 4.99714 88.5 5.02592C88.5 5.05469 88.5 5.08349 88.5 5.11231C88.5 5.14114 88.5 5.16998 88.5 5.19886C88.5 5.22773 88.5 5.25662 88.5 5.28554C88.5 5.31446 88.5 5.34341 88.5 5.37238C88.5 5.40135 88.5 5.43034 88.5 5.45935C88.5 5.48837 88.5 5.51741 88.5 5.54647C88.5 5.57553 88.5 5.60462 88.5 5.63373C88.5 5.66284 88.5 5.69197 88.5 5.72113C88.5 5.75028 88.5 5.77946 88.5 5.80866C88.5 5.83786 88.5 5.86709 88.5 5.89634C88.5 5.92558 88.5 5.95485 88.5 5.98414C88.5 6.01343 88.5 6.04275 88.5 6.07208C88.5 6.10142 88.5 6.13078 88.5 6.16016C88.5 6.18954 88.5 6.21894 88.5 6.24836C88.5 6.27778 88.5 6.30723 88.5 6.33669C88.5 6.36616 88.5 6.39565 88.5 6.42516C88.5 6.45466 88.5 6.48419 88.5 6.51375C88.5 6.5433 88.5 6.57287 88.5 6.60246C88.5 6.63205 88.5 6.66167 88.5 6.6913C88.5 6.72093 88.5 6.75059 88.5 6.78026C88.5 6.80994 88.5 6.83963 88.5 6.86935C88.5 6.89906 88.5 6.9288 88.5 6.95855C88.5 6.98831 88.5 7.01808 88.5 7.04788C88.5 7.07767 88.5 7.10748 88.5 7.13732C88.5 7.16715 88.5 7.197 88.5 7.22688C88.5 7.25675 88.5 7.28664 88.5 7.31655C88.5 7.34646 88.5 7.37639 88.5 7.40634C88.5 7.43628 88.5 7.46625 88.5 7.49624C88.5 7.52622 88.5 7.55622 88.5 7.58625C88.5 7.61627 88.5 7.64631 88.5 7.67637C88.5 7.70642 88.5 7.7365 88.5 7.76659C88.5 7.79669 88.5 7.8268 88.5 7.85693C88.5 7.88706 88.5 7.91721 88.5 7.94737C88.5 7.97754 88.5 8.00772 88.5 8.03792C88.5 8.06812 88.5 8.09833 88.5 8.12857C88.5 8.1588 88.5 8.18905 88.5 8.21932C88.5 8.24958 88.5 8.27987 88.5 8.31017C88.5 8.34047 88.5 8.37078 88.5 8.40112C88.5 8.43145 88.5 8.4618 88.5 8.49217C88.5 8.52253 88.5 8.55291 88.5 8.58331C88.5 8.61371 88.5 8.64412 88.5 8.67455C88.5 8.70498 88.5 8.73542 88.5 8.76588C88.5 8.79634 88.5 8.82682 88.5 8.85731C88.5 8.8878 88.5 8.9183 88.5 8.94882C88.5 8.97935 88.5 9.00988 88.5 9.04043C88.5 9.07098 88.5 9.10155 88.5 9.13213C88.5 9.16271 88.5 9.1933 88.5 9.22391C88.5 9.25452 88.5 9.28514 88.5 9.31578C88.5 9.34641 88.5 9.37706 88.5 9.40773C88.5 9.43839 88.5 9.46907 88.5 9.49976C88.5 9.53045 88.5 9.56116 88.5 9.59188C88.5 9.6226 88.5 9.65333 88.5 9.68408C88.5 9.71482 88.5 9.74558 88.5 9.77635C88.5 9.80713 88.5 9.83791 88.5 9.86871C88.5 9.89951 88.5 9.93032 88.5 9.96114C88.5 9.99196 88.5 10.0228 88.5 10.0536C88.5 10.0845 88.5 10.1154 88.5 10.1462C88.5 10.1771 88.5 10.208 88.5 10.2389C88.5 10.2698 88.5 10.3007 88.5 10.3316C88.5 10.3625 88.5 10.3934 88.5 10.4244C88.5 10.4553 88.5 10.4863 88.5 10.5173C88.5 10.5482 88.5 10.5792 88.5 10.6102C88.5 10.6412 88.5 10.6722 88.5 10.7032C88.5 10.7342 88.5 10.7652 88.5 10.7962C88.5 10.8273 88.5 10.8583 88.5 10.8894C88.5 10.9204 88.5 10.9515 88.5 10.9825C88.5 11.0136 88.5 11.0447 88.5 11.0758C88.5 11.1069 88.5 11.138 88.5 11.1691C88.5 11.2002 88.5 11.2313 88.5 11.2624C88.5 11.2936 88.5 11.3247 88.5 11.3559C88.5 11.387 88.5 11.4182 88.5 11.4493C88.5 11.4805 88.5 11.5117 88.5 11.5429C88.5 11.574 88.5 11.6052 88.5 11.6364C88.5 11.6676 88.5 11.6988 88.5 11.7301C88.5 11.7613 88.5 11.7925 88.5 11.8237C88.5 11.855 88.5 11.8862 88.5 11.9175C88.5 11.9487 88.5 11.98 88.5 12.0112C88.5 12.0425 88.5 12.0738 88.5 12.1051C88.5 12.1363 88.5 12.1676 88.5 12.1989C88.5 12.2302 88.5 12.2615 88.5 12.2928C88.5 12.3241 88.5 12.3555 88.5 12.3868C88.5 12.4181 88.5 12.4494 88.5 12.4808C88.5 12.5121 88.5 12.5435 88.5 12.5748C88.5 12.6062 88.5 12.6375 88.5 12.6689C88.5 12.7002 88.5 12.7316 88.5 12.763C88.5 12.7944 88.5 12.8257 88.5 12.8571C88.5 12.8885 88.5 12.9199 88.5 12.9513C88.5 12.9827 88.5 13.0141 88.5 13.0455C88.5 13.0769 88.5 13.1083 88.5 13.1397C88.5 13.1711 88.5 13.2026 88.5 13.234C88.5 13.2654 88.5 13.2969 88.5 13.3283C88.5 13.3597 88.5 13.3912 88.5 13.4226C88.5 13.4541 88.5 13.4855 88.5 13.517C88.5 13.5484 88.5 13.5799 88.5 13.6113C88.5 13.6428 88.5 13.6743 88.5 13.7057C88.5 13.7372 88.5 13.7687 88.5 13.8001C88.5 13.8316 88.5 13.8631 88.5 13.8946C88.5 13.9261 88.5 13.9575 88.5 13.989C88.5 14.0205 88.5 14.052 88.5 14.0835C88.5 14.115 88.5 14.1465 88.5 14.178C88.5 14.2095 88.5 14.241 88.5 14.2725C88.5 14.304 88.5 14.3355 88.5 14.367C88.5 14.3985 88.5 14.43 88.5 14.4615C88.5 14.4931 88.5 14.5246 88.5 14.5561C88.5 14.5876 88.5 14.6191 88.5 14.6506C88.5 14.6822 88.5 14.7137 88.5 14.7452C88.5 14.7767 88.5 14.8082 88.5 14.8398C88.5 14.8713 88.5 14.9028 88.5 14.9343C88.5 14.9659 88.5 14.9974 88.5 15.0289C88.5 15.0604 88.5 15.092 88.5 15.1235C88.5 15.155 88.5 15.1866 88.5 15.2181C88.5 15.2496 88.5 15.2811 88.5 15.3127C88.5 15.3442 88.5 15.3757 88.5 15.4072C88.5 15.4388 88.5 15.4703 88.5 15.5018C88.5 15.5334 88.5 15.5649 88.5 15.5964C88.5 15.6279 88.5 15.6594 88.5 15.691C88.5 15.7225 88.5 15.754 88.5 15.7855C88.5 15.8171 88.5 15.8486 88.5 15.8801C88.5 15.9116 88.5 15.9431 88.5 15.9746C88.5 16.0062 88.5 16.0377 88.5 16.0692C88.5 16.1007 88.5 16.1322 88.5 16.1637C88.5 16.1952 88.5 16.2267 88.5 16.2582C88.5 16.2897 88.5 16.3212 88.5 16.3527C88.5 16.3842 88.5 16.4157 88.5 16.4472C88.5 16.4787 88.5 16.5102 88.5 16.5417C88.5 16.5732 88.5 16.6046 88.5 16.6361C88.5 16.6676 88.5 16.6991 88.5 16.7305C88.5 16.762 88.5 16.7935 88.5 16.825C88.5 16.8564 88.5 16.8879 88.5 16.9193C88.5 16.9508 88.5 16.9823 88.5 17.0137C88.5 17.0452 88.5 17.0766 88.5 17.108C88.5 17.1395 88.5 17.1709 88.5 17.2024C88.5 17.2338 88.5 17.2652 88.5 17.2966C88.5 17.3281 88.5 17.3595 88.5 17.3909C88.5 17.4223 88.5 17.4537 88.5 17.4851C88.5 17.5165 88.5 17.5479 88.5 17.5793C88.5 17.6107 88.5 17.6421 88.5 17.6735C88.5 17.7049 88.5 17.7362 88.5 17.7676C88.5 17.799 88.5 17.8303 88.5 17.8617C88.5 17.893 88.5 17.9244 88.5 17.9557C88.5 17.9871 88.5 18.0184 88.5 18.0498C88.5 18.0811 88.5 18.1124 88.5 18.1437C88.5 18.1751 88.5 18.2064 88.5 18.2377C88.5 18.269 88.5 18.3003 88.5 18.3316C88.5 18.3628 88.5 18.3941 88.5 18.4254C88.5 18.4567 88.5 18.488 88.5 18.5192C88.5 18.5505 88.5 18.5817 88.5 18.613C88.5 18.6442 88.5 18.6755 88.5 18.7067C88.5 18.7379 88.5 18.7691 88.5 18.8003C88.5 18.8316 88.5 18.8628 88.5 18.894C88.5 18.9251 88.5 18.9563 88.5 18.9875C88.5 19.0187 88.5 19.0499 88.5 19.081C88.5 19.1122 88.5 19.1433 88.5 19.1745C88.5 19.2056 88.5 19.2367 88.5 19.2679C88.5 19.299 88.5 19.3301 88.5 19.3612C88.5 19.3923 88.5 19.4234 88.5 19.4545C88.5 19.4856 88.5 19.5166 88.5 19.5477C88.5 19.5788 88.5 19.6098 88.5 19.6409C88.5 19.6719 88.5 19.7029 88.5 19.734C88.5 19.765 88.5 19.796 88.5 19.827C88.5 19.858 88.5 19.889 88.5 19.92C88.5 19.951 88.5 19.9819 88.5 20.0129C88.5 20.0438 88.5 20.0748 88.5 20.1057C88.5 20.1367 88.5 20.1676 88.5 20.1985C88.5 20.2294 88.5 20.2603 88.5 20.2912C88.5 20.3221 88.5 20.3529 88.5 20.3838C88.5 20.4147 88.5 20.4455 88.5 20.4764C88.5 20.5072 88.5 20.538 88.5 20.5688C88.5 20.5997 88.5 20.6305 88.5 20.6612C88.5 20.692 88.5 20.7228 88.5 20.7536C88.5 20.7843 88.5 20.8151 88.5 20.8458C88.5 20.8766 88.5 20.9073 88.5 20.938C88.5 20.9687 88.5 20.9994 88.5 21.0301C88.5 21.0608 88.5 21.0914 88.5 21.1221C88.5 21.1527 88.5 21.1834 88.5 21.214C88.5 21.2446 88.5 21.2752 88.5 21.3058C88.5 21.3364 88.5 21.367 88.5 21.3976C88.5 21.4282 88.5 21.4587 88.5 21.4893C88.5 21.5198 88.5 21.5503 88.5 21.5808C88.5 21.6113 88.5 21.6418 88.5 21.6723C88.5 21.7028 88.5 21.7333 88.5 21.7637C88.5 21.7942 88.5 21.8246 88.5 21.855C88.5 21.8854 88.5 21.9158 88.5 21.9462C88.5 21.9766 88.5 22.007 88.5 22.0373C88.5 22.0677 88.5 22.098 88.5 22.1283C88.5 22.1587 88.5 22.189 88.5 22.2192C88.5 22.2495 88.5 22.2798 88.5 22.3101C88.5 22.3403 88.5 22.3706 88.5 22.4008C88.5 22.431 88.5 22.4612 88.5 22.4914C88.5 22.5216 88.5 22.5517 88.5 22.5819C88.5 22.612 88.5 22.6422 88.5 22.6723C88.5 22.7024 88.5 22.7325 88.5 22.7626C88.5 22.7927 88.5 22.8227 88.5 22.8528C88.5 22.8828 88.5 22.9129 88.5 22.9429C88.5 22.9729 88.5 23.0029 88.5 23.0328C88.5 23.0628 88.5 23.0928 88.5 23.1227C88.5 23.1526 88.5 23.1825 88.5 23.2124C88.5 23.2423 88.5 23.2722 88.5 23.3021C88.5 23.3319 88.5 23.3618 88.5 23.3916C88.5 23.4214 88.5 23.4512 88.5 23.481C88.5 23.5108 88.5 23.5405 88.5 23.5703C88.5 23.6 88.5 23.6297 88.5 23.6594C88.5 23.6891 88.5 23.7188 88.5 23.7485C88.5 23.7781 88.5 23.8078 88.5 23.8374C88.5 23.867 88.5 23.8966 88.5 23.9262C88.5 23.9558 88.5 23.9853 88.5 24.0149C88.5 24.0444 88.5 24.0739 88.5 24.1034C88.5 24.1329 88.5 24.1624 88.5 24.1918C88.5 24.2213 88.5 24.2507 88.5 24.2801C88.5 24.3095 88.5 24.3389 88.5 24.3683C88.5 24.3976 88.5 24.427 88.5 24.4563C88.5 24.4856 88.5 24.5149 88.5 24.5442C88.5 24.5735 88.5 24.6027 88.5 24.6319C88.5 24.6612 88.5 24.6904 88.5 24.7196C88.5 24.7488 88.5 24.7779 88.5 24.8071C88.5 24.8362 88.5 24.8653 88.5 24.8944C88.5 24.9235 88.5 24.9526 88.5 24.9816C88.5 25.0107 88.5 25.0397 88.5 25.0687C88.5 25.0977 88.5 25.1266 88.5 25.1556C88.5 25.1846 88.5 25.2135 88.5 25.2424C88.5 25.2713 88.5 25.3002 88.5 25.329C88.5 25.3579 88.5 25.3867 88.5 25.4155C88.5 25.4443 88.5 25.4731 88.5 25.5019C88.5 25.5306 88.5 25.5593 88.5 25.588C88.5 25.6168 88.5 25.6454 88.5 25.6741C88.5 25.7027 88.5 25.7314 88.5 25.76C88.5 25.7886 88.5 25.8172 88.5 25.8457C88.5 25.8743 88.5 25.9028 88.5 25.9313C88.5 25.9598 88.5 25.9883 88.5 26.0167C88.5 26.0452 88.5 26.0736 88.5 26.102C88.5 26.1304 88.5 26.1588 88.5 26.1871C88.5 26.2155 88.5 26.2438 88.5 26.2721C88.5 26.3004 88.5 26.3286 88.5 26.3569C88.5 26.3851 88.5 26.4133 88.5 26.4415C88.5 26.4697 88.5 26.4978 88.5 26.526C88.5 26.5541 88.5 26.5822 88.5 26.6103C88.5 26.6383 88.5 26.6664 88.5 26.6944C88.5 26.7224 88.5 26.7504 88.5 26.7784C88.5 26.8063 88.5 26.8343 88.5 26.8622C88.5 26.8901 88.5 26.918 88.5 26.9458C88.5 26.9737 88.5 27.0015 88.5 27.0293C88.5 27.0571 88.5 27.0848 88.5 27.1126C88.5 27.1403 88.5 27.168 88.5 27.1957C88.5 27.2233 88.5 27.251 88.5 27.2786C88.5 27.3062 88.5 27.3338 88.5 27.3614C88.5 27.3889 88.5 27.4164 88.5 27.4439C88.5 27.4714 88.5 27.4989 88.5 27.5263C88.5 27.5538 88.5 27.5812 88.5 27.6086C88.5 27.6359 88.5 27.6633 88.5 27.6906C88.5 27.7179 88.5 27.7452 88.5 27.7725C88.5 27.7997 88.5 27.8269 88.5 27.8541C88.5 27.8813 88.5 27.9085 88.5 27.9356C88.5 27.9627 88.5 27.9898 88.5 28.0169C88.5 28.044 88.5 28.071 88.5 28.098C88.5 28.125 88.5 28.152 88.5 28.1789C88.5 28.2059 88.5 28.2328 88.5 28.2597C88.5 28.2865 88.5 28.3134 88.5 28.3402C88.5 28.367 88.5 28.3938 88.5 28.4205C88.5 28.4473 88.5 28.474 88.5 28.5007C88.5 28.5274 88.5 28.554 88.5 28.5806C88.5 28.6072 88.5 28.6338 88.5 28.6604C88.5 28.6869 88.5 28.7134 88.5 28.7399C88.5 28.7664 88.5 28.7929 88.5 28.8193C88.5 28.8457 88.5 28.8721 88.5 28.8984C88.5 28.9248 88.5 28.9511 88.5 28.9774C88.5 29.0036 88.5 29.0299 88.5 29.0561C88.5 29.0823 88.5 29.1085 88.5 29.1346C88.5 29.1608 88.5 29.1869 88.5 29.2129C88.5 29.239 88.5 29.2651 88.5 29.2911C88.5 29.3171 88.5 29.343 88.5 29.369C88.5 29.3949 88.5 29.4208 88.5 29.4467C88.5 29.4725 88.5 29.4983 88.5 29.5241C88.5 29.5499 88.5 29.5757 88.5 29.6014C88.5 29.6271 88.5 29.6528 88.5 29.6784C88.5 29.7041 88.5 29.7297 88.5 29.7553C88.5 29.7809 88.5 29.8064 88.5 29.8319C88.5 29.8574 88.5 29.8829 88.5 29.9083C88.5 29.9337 88.5 29.9591 88.5 29.9845C88.5 30.0098 88.5 30.0351 88.5 30.0604C88.5 30.0857 88.5 30.1109 88.5 30.1361C88.5 30.1613 88.5 30.1865 88.5 30.2116C88.5 30.2368 88.5 30.2619 88.5 30.2869C88.5 30.312 88.5 30.337 88.5 30.362C88.5 30.387 88.5 30.4119 88.5 30.4368C88.5 30.4617 88.5 30.4866 88.5 30.5114C88.5 30.5362 88.5 30.561 88.5 30.5857C88.5 30.6105 88.5 30.6352 88.5 30.6599C88.5 30.6845 88.5 30.7092 88.5 30.7338C88.5 30.7584 88.5 30.7829 88.5 30.8074C88.5 30.8319 88.5 30.8564 88.5 30.8808C88.5 30.9053 88.5 30.9297 88.5 30.954C88.5 30.9784 88.5 31.0027 88.5 31.027C88.5 31.0512 88.5 31.0755 88.5 31.0997C88.5 31.1239 88.5 31.148 88.5 31.1721C88.5 31.1962 88.5 31.2203 88.5 31.2443C88.5 31.2684 88.5 31.2924 88.5 31.3163C88.5 31.3403 88.5 31.3642 88.5 31.388C88.5 31.4119 88.5 31.4357 88.5 31.4595C88.5 31.4833 88.5 31.507 88.5 31.5307C88.5 31.5544 88.5 31.5781 88.5 31.6017C88.5 31.6253 88.5 31.6489 88.5 31.6724C88.5 31.696 88.5 31.7195 88.5 31.7429C88.5 31.7664 88.5 31.7898 88.5 31.8131C88.5 31.8365 88.5 31.8598 88.5 31.8831C88.5 31.9064 88.5 31.9296 88.5 31.9528C88.5 31.976 88.5 31.9991 88.5 32.0222C88.5 32.0454 88.5 32.0684 88.5 32.0914C88.5 32.1145 88.5 32.1374 88.5 32.1604C88.5 32.1833 88.5 32.2062 88.5 32.229C88.5 32.2519 88.5 32.2747 88.5 32.2974C88.5 32.3202 88.5 32.3429 88.5 32.3656C88.5 32.3882 88.5 32.4109 88.5 32.4334C88.5 32.456 88.5 32.4785 88.5 32.501C88.5 32.5235 88.5 32.546 88.5 32.5684C88.5 32.5908 88.5 32.6131 88.5 32.6354C88.5 32.6577 88.5 32.68 88.5 32.7022C88.5 32.7244 88.5 32.7466 88.5 32.7687C88.5 32.7909 88.5 32.813 88.5 32.835C88.5 32.857 88.5 32.879 88.5 32.901C88.5 32.9229 88.5 32.9448 88.5 32.9667C88.5 32.9885 88.5 33.0103 88.5 33.0321C88.5 33.0538 88.5 33.0755 88.5 33.0972C88.5 33.1189 88.5 33.1405 88.5 33.1621C88.5 33.1836 88.5 33.2052 88.5 33.2266C88.5 33.2481 88.5 33.2695 88.5 33.2909C88.5 33.3123 88.5 33.3336 88.5 33.3549C88.5 33.3762 88.5 33.3975 88.5 33.4186C88.5 33.4398 88.5 33.461 88.5 33.4821C88.5 33.5032 88.5 33.5242 88.5 33.5452C88.5 33.5662 88.5 33.5872 88.5 33.6081C88.5 33.629 88.5 33.6498 88.5 33.6706C88.5 33.6914 88.5 33.7122 88.5 33.7329C88.5 33.7536 88.5 33.7743 88.5 33.7949C88.5 33.8155 88.5 33.836 88.5 33.8565C88.5 33.877 88.5 33.8975 88.5 33.9179C88.5 33.9383 88.5 33.9587 88.5 33.979C88.5 33.9993 88.5 34.0196 88.5 34.0398C88.5 34.06 88.5 34.0802 88.5 34.1003C88.5 34.1204 88.5 34.1404 88.5 34.1604C88.5 34.1805 88.5 34.2004 88.5 34.2203C88.5 34.2402 88.5 34.2601 88.5 34.2799C88.5 34.2997 88.5 34.3194 88.5 34.3392C88.5 34.3589 88.5 34.3785 88.5 34.3981C88.5 34.4177 88.5 34.4373 88.5 34.4568C88.5 34.4763 88.5 34.4957 88.5 34.5151C88.5 34.5345 88.5 34.5538 88.5 34.5731C88.5 34.5924 88.5 34.6116 88.5 34.6308C88.5 34.65 88.5 34.6692 88.5 34.6882C88.5 34.7073 88.5 34.7263 88.5 34.7453C88.5 34.7643 88.5 34.7832 88.5 34.8021C88.5 34.821 88.5 34.8398 88.5 34.8585C88.5 34.8773 88.5 34.896 88.5 34.9147C88.5 34.9333 88.5 34.9519 88.5 34.9705C88.5 34.989 88.5 35.0075 88.5 35.026C88.5 35.0444 88.5 35.0628 88.5 35.0811C88.5 35.0995 88.5 35.1177 88.5 35.136C88.5 35.1542 88.5 35.1724 88.5 35.1905C88.5 35.2086 88.5 35.2266 88.5 35.2447C88.5 35.2627 88.5 35.2806 88.5 35.2985C88.5 35.3164 88.5 35.3342 88.5 35.352C88.5 35.3698 88.5 35.3875 88.5 35.4052C88.5 35.4229 88.5 35.4405 88.5 35.4581C88.5 35.4756 88.5 35.4932 88.5 35.5106C88.5 35.5281 88.5 35.5455 88.5 35.5628C88.5 35.5801 88.5 35.5974 88.5 35.6147C88.5 35.6319 88.5 35.6491 88.5 35.6662C88.5 35.6833 88.5 35.7003 88.5 35.7173C88.5 35.7343 88.5 35.7513 88.5 35.7682C88.5 35.7851 88.5 35.8019 88.5 35.8187C88.5 35.8354 88.5 35.8522 88.5 35.8688C88.5 35.8855 88.5 35.9021 88.5 35.9186C88.5 35.9352 88.5 35.9517 88.5 35.9681C88.5 35.9845 88.5 36.0009 88.5 36.0172C88.5 36.0335 88.5 36.0498 88.5 36.066C88.5 36.0821 88.5 36.0983 88.5 36.1144C88.5 36.1304 88.5 36.1465 88.5 36.1624C88.5 36.1784 88.5 36.1943 88.5 36.2101C88.5 36.226 88.5 36.2418 88.5 36.2575C88.5 36.2732 88.5 36.2889 88.5 36.3045C88.5 36.3201 88.5 36.3356 88.5 36.3511C88.5 36.3666 88.5 36.382 88.5 36.3974C88.5 36.4128 88.5 36.4281 88.5 36.4433C88.5 36.4586 88.5 36.4738 88.5 36.4889C88.5 36.504 88.5 36.5191 88.5 36.5341C88.5 36.5491 88.5 36.564 88.5 36.5789C88.5 36.5938 88.5 36.6086 88.5 36.6234C88.5 36.6382 88.5 36.6529 88.5 36.6675C88.5 36.6821 88.5 36.6967 88.5 36.7112C88.5 36.7258 88.5 36.7402 88.5 36.7546C88.5 36.769 88.5 36.7833 88.5 36.7976C88.5 36.8119 88.5 36.8261 88.5 36.8402C88.5 36.8544 88.5 36.8685 88.5 36.8825C88.5 36.8965 88.5 36.9105 88.5 36.9244C88.5 36.9383 88.5 36.9521 88.5 36.9659C88.5 36.9796 88.5 36.9934 88.5 37.007C88.5 37.0206 88.5 37.0342 88.5 37.0477C88.5 37.0613 88.5 37.0747 88.5 37.0881C88.5 37.1015 88.5 37.1148 88.5 37.1281C88.5 37.1414 88.5 37.1546 88.5 37.1677C88.5 37.1809 88.5 37.1939 88.5 37.2069C88.5 37.2199 88.5 37.2329 88.5 37.2458C88.5 37.2587 88.5 37.2715 88.5 37.2842C88.5 37.297 88.5 37.3097 88.5 37.3223C88.5 37.3349 88.5 37.3475 88.5 37.36C88.5 37.3725 88.5 37.3849 88.5 37.3972C88.5 37.4096 88.5 37.4219 88.5 37.4341C88.5 37.4464 88.5 37.4585 88.5 37.4706C88.5 37.4827 88.5 37.4948 88.5 37.5068C88.5 37.5187 88.5 37.5306 88.5 37.5425C88.5 37.5543 88.5 37.5661 88.5 37.5778C88.5 37.5895 88.5 37.6011 88.5 37.6127C88.5 37.6243 88.5 37.6358 88.5 37.6472C88.5 37.6586 88.5 37.67 88.5 37.6813C88.5 37.6926 88.5 37.7039 88.5 37.715C88.5 37.7262 88.5 37.7373 88.5 37.7483C88.5 37.7594 88.5 37.7704 88.5 37.7813C88.5 37.7922 88.5 37.803 88.5 37.8138C88.5 37.8245 88.5 37.8352 88.5 37.8458C88.5 37.8565 88.5 37.867 88.5 37.8775C88.5 37.888 88.5 37.8984 88.5 37.9088C88.5 37.9192 88.5 37.9294 88.5 37.9397C88.5 37.9499 88.5 37.96 88.5 37.9701C88.5 37.9802 88.5 37.9902 88.5 38.0001C88.5 38.0101 88.5 38.02 88.5 38.0298C88.5 38.0396 88.5 38.0493 88.5 38.059C88.5 38.0686 88.5 38.0782 88.5 38.0877C88.5 38.0973 88.5 38.1067 88.5 38.1161C88.5 38.1255 88.5 38.1348 88.5 38.144C88.5 38.1533 88.5 38.1625 88.5 38.1716C88.5 38.1807 88.5 38.1897 88.5 38.1987C88.5 38.2076 88.5 38.2165 88.5 38.2253C88.5 38.2342 88.5 38.2429 88.5 38.2516C88.5 38.2603 88.5 38.2689 88.5 38.2774C88.5 38.2859 88.5 38.2944 88.5 38.3028C88.5 38.3112 88.5 38.3195 88.5 38.3278C88.5 38.336 88.5 38.3442 88.5 38.3523C88.5 38.3604 88.5 38.3684 88.5 38.3764C88.5 38.3843 88.5 38.3922 88.5 38.4C88.5 38.4078 88.5 38.4156 88.5 38.4233C88.5 38.4309 88.5 38.4385 88.5 38.446C88.5 38.4536 88.5 38.461 88.5 38.4684C88.5 38.4758 88.5 38.4831 88.5 38.4903C88.5 38.4975 88.5 38.5047 88.5 38.5118C88.5 38.5189 88.5 38.5259 88.5 38.5328C88.5 38.5397 88.5 38.5466 88.5 38.5534C88.5 38.5602 88.5 38.5669 88.5 38.5735C88.5 38.5802 88.5 38.5867 88.5 38.5932C88.5 38.5997 88.5 38.6061 88.5 38.6125C88.5 38.6188 88.5 38.6251 88.5 38.6313C88.5 38.6375 88.5 38.6436 88.5 38.6496C88.5 38.6556 88.5 38.6616 88.5 38.6675C88.5 38.6734 88.5 38.6792 88.5 38.6849C88.5 38.6907 88.5 38.6963 88.5 38.7019C88.5 38.7075 88.5 38.713 88.5 38.7185C88.5 38.7239 88.5 38.7293 88.5 38.7345C88.5 38.7398 88.5 38.745 88.5 38.7502C88.5 38.7553 88.5 38.7603 88.5 38.7653C88.5 38.7703 88.5 38.7752 88.5 38.78C88.5 38.7848 88.5 38.7896 88.5 38.7942C88.5 38.7989 88.5 38.8035 88.5 38.808C88.5 38.8125 88.5 38.817 88.5 38.8213C88.5 38.8257 88.5 38.83 88.5 38.8342C88.5 38.8384 88.5 38.8425 88.5 38.8465C88.5 38.8506 88.5 38.8546 88.5 38.8584C88.5 38.8623 88.5 38.8661 88.5 38.8699C88.5 38.8736 88.5 38.8773 88.5 38.8808C88.5 38.8844 88.5 38.8879 88.5 38.8913C88.5 38.8947 88.5 38.8981 88.5 38.9013C88.5 38.9046 88.5 38.9078 88.5 38.9109C88.5 38.914 88.5 38.917 88.5 38.9199C88.5 38.9229 88.5 38.9257 88.5 38.9285C88.5 38.9313 88.5 38.934 88.5 38.9366C88.5 38.9393 88.5 38.9418 88.5 38.9443C88.5 38.9467 88.5 38.9491 88.5 38.9514C88.5 38.9537 88.5 38.9559 88.5 38.9581C88.5 38.9602 88.5 38.9622 88.5 38.9642C88.5 38.9662 88.5 38.9681 88.5 38.9699C88.5 38.9717 88.5 38.9735 88.5 38.9751C88.5 38.9768 88.5 38.9783 88.5 38.9798C88.5 38.9813 88.5 38.9827 88.5 38.984C88.5 38.9854 88.5 38.9866 88.5 38.9878C88.5 38.9889 88.5 38.99 88.5 38.991C88.5 38.992 88.5 38.9929 88.5 38.9938C88.5 38.9946 88.5 38.9953 88.5 38.996C88.5 38.9967 88.5 38.9972 88.5 38.9977C88.5 38.9982 88.5 38.9987 88.5 38.999C88.5 38.9993 88.5 38.9996 88.5 38.9997C88.5 38.9999 88.5 39 90 39C91.5 39 91.5 38.9999 91.5 38.9997C91.5 38.9996 91.5 38.9993 91.5 38.999C91.5 38.9987 91.5 38.9982 91.5 38.9977C91.5 38.9972 91.5 38.9967 91.5 38.996C91.5 38.9953 91.5 38.9946 91.5 38.9938C91.5 38.9929 91.5 38.992 91.5 38.991C91.5 38.99 91.5 38.9889 91.5 38.9878C91.5 38.9866 91.5 38.9854 91.5 38.984C91.5 38.9827 91.5 38.9813 91.5 38.9798C91.5 38.9783 91.5 38.9768 91.5 38.9751C91.5 38.9735 91.5 38.9717 91.5 38.9699C91.5 38.9681 91.5 38.9662 91.5 38.9642C91.5 38.9622 91.5 38.9602 91.5 38.9581C91.5 38.9559 91.5 38.9537 91.5 38.9514C91.5 38.9491 91.5 38.9467 91.5 38.9443C91.5 38.9418 91.5 38.9393 91.5 38.9366C91.5 38.934 91.5 38.9313 91.5 38.9285C91.5 38.9257 91.5 38.9229 91.5 38.9199C91.5 38.917 91.5 38.914 91.5 38.9109C91.5 38.9078 91.5 38.9046 91.5 38.9013C91.5 38.8981 91.5 38.8947 91.5 38.8913C91.5 38.8879 91.5 38.8844 91.5 38.8808C91.5 38.8773 91.5 38.8736 91.5 38.8699C91.5 38.8661 91.5 38.8623 91.5 38.8584C91.5 38.8546 91.5 38.8506 91.5 38.8465C91.5 38.8425 91.5 38.8384 91.5 38.8342C91.5 38.83 91.5 38.8257 91.5 38.8213C91.5 38.817 91.5 38.8125 91.5 38.808C91.5 38.8035 91.5 38.7989 91.5 38.7942C91.5 38.7896 91.5 38.7848 91.5 38.78C91.5 38.7752 91.5 38.7703 91.5 38.7653C91.5 38.7603 91.5 38.7553 91.5 38.7502C91.5 38.745 91.5 38.7398 91.5 38.7345C91.5 38.7293 91.5 38.7239 91.5 38.7185C91.5 38.713 91.5 38.7075 91.5 38.7019C91.5 38.6963 91.5 38.6907 91.5 38.6849C91.5 38.6792 91.5 38.6734 91.5 38.6675C91.5 38.6616 91.5 38.6556 91.5 38.6496C91.5 38.6436 91.5 38.6375 91.5 38.6313C91.5 38.6251 91.5 38.6188 91.5 38.6125C91.5 38.6061 91.5 38.5997 91.5 38.5932C91.5 38.5867 91.5 38.5802 91.5 38.5735C91.5 38.5669 91.5 38.5602 91.5 38.5534C91.5 38.5466 91.5 38.5397 91.5 38.5328C91.5 38.5259 91.5 38.5189 91.5 38.5118C91.5 38.5047 91.5 38.4975 91.5 38.4903C91.5 38.4831 91.5 38.4758 91.5 38.4684C91.5 38.461 91.5 38.4536 91.5 38.446C91.5 38.4385 91.5 38.4309 91.5 38.4233C91.5 38.4156 91.5 38.4078 91.5 38.4C91.5 38.3922 91.5 38.3843 91.5 38.3764C91.5 38.3684 91.5 38.3604 91.5 38.3523C91.5 38.3442 91.5 38.336 91.5 38.3278C91.5 38.3195 91.5 38.3112 91.5 38.3028C91.5 38.2944 91.5 38.2859 91.5 38.2774C91.5 38.2689 91.5 38.2603 91.5 38.2516C91.5 38.2429 91.5 38.2342 91.5 38.2253C91.5 38.2165 91.5 38.2076 91.5 38.1987C91.5 38.1897 91.5 38.1807 91.5 38.1716C91.5 38.1625 91.5 38.1533 91.5 38.144C91.5 38.1348 91.5 38.1255 91.5 38.1161C91.5 38.1067 91.5 38.0973 91.5 38.0877C91.5 38.0782 91.5 38.0686 91.5 38.059C91.5 38.0493 91.5 38.0396 91.5 38.0298C91.5 38.02 91.5 38.0101 91.5 38.0001C91.5 37.9902 91.5 37.9802 91.5 37.9701C91.5 37.96 91.5 37.9499 91.5 37.9397C91.5 37.9294 91.5 37.9192 91.5 37.9088C91.5 37.8984 91.5 37.888 91.5 37.8775C91.5 37.867 91.5 37.8565 91.5 37.8458C91.5 37.8352 91.5 37.8245 91.5 37.8138C91.5 37.803 91.5 37.7922 91.5 37.7813C91.5 37.7704 91.5 37.7594 91.5 37.7483C91.5 37.7373 91.5 37.7262 91.5 37.715C91.5 37.7039 91.5 37.6926 91.5 37.6813C91.5 37.67 91.5 37.6586 91.5 37.6472C91.5 37.6358 91.5 37.6243 91.5 37.6127C91.5 37.6011 91.5 37.5895 91.5 37.5778C91.5 37.5661 91.5 37.5543 91.5 37.5425C91.5 37.5306 91.5 37.5187 91.5 37.5068C91.5 37.4948 91.5 37.4827 91.5 37.4706C91.5 37.4585 91.5 37.4464 91.5 37.4341C91.5 37.4219 91.5 37.4096 91.5 37.3972C91.5 37.3849 91.5 37.3725 91.5 37.36C91.5 37.3475 91.5 37.3349 91.5 37.3223C91.5 37.3097 91.5 37.297 91.5 37.2842C91.5 37.2715 91.5 37.2587 91.5 37.2458C91.5 37.2329 91.5 37.2199 91.5 37.2069C91.5 37.1939 91.5 37.1809 91.5 37.1677C91.5 37.1546 91.5 37.1414 91.5 37.1281C91.5 37.1148 91.5 37.1015 91.5 37.0881C91.5 37.0747 91.5 37.0613 91.5 37.0477C91.5 37.0342 91.5 37.0206 91.5 37.007C91.5 36.9934 91.5 36.9796 91.5 36.9659C91.5 36.9521 91.5 36.9383 91.5 36.9244C91.5 36.9105 91.5 36.8965 91.5 36.8825C91.5 36.8685 91.5 36.8544 91.5 36.8402C91.5 36.8261 91.5 36.8119 91.5 36.7976C91.5 36.7833 91.5 36.769 91.5 36.7546C91.5 36.7402 91.5 36.7258 91.5 36.7112C91.5 36.6967 91.5 36.6821 91.5 36.6675C91.5 36.6529 91.5 36.6382 91.5 36.6234C91.5 36.6086 91.5 36.5938 91.5 36.5789C91.5 36.564 91.5 36.5491 91.5 36.5341C91.5 36.5191 91.5 36.504 91.5 36.4889C91.5 36.4738 91.5 36.4586 91.5 36.4433C91.5 36.4281 91.5 36.4128 91.5 36.3974C91.5 36.382 91.5 36.3666 91.5 36.3511C91.5 36.3356 91.5 36.3201 91.5 36.3045C91.5 36.2889 91.5 36.2732 91.5 36.2575C91.5 36.2418 91.5 36.226 91.5 36.2101C91.5 36.1943 91.5 36.1784 91.5 36.1624C91.5 36.1465 91.5 36.1304 91.5 36.1144C91.5 36.0983 91.5 36.0821 91.5 36.066C91.5 36.0498 91.5 36.0335 91.5 36.0172C91.5 36.0009 91.5 35.9845 91.5 35.9681C91.5 35.9517 91.5 35.9352 91.5 35.9186C91.5 35.9021 91.5 35.8855 91.5 35.8688C91.5 35.8522 91.5 35.8354 91.5 35.8187C91.5 35.8019 91.5 35.7851 91.5 35.7682C91.5 35.7513 91.5 35.7343 91.5 35.7173C91.5 35.7003 91.5 35.6833 91.5 35.6662C91.5 35.6491 91.5 35.6319 91.5 35.6147C91.5 35.5974 91.5 35.5801 91.5 35.5628C91.5 35.5455 91.5 35.5281 91.5 35.5106C91.5 35.4932 91.5 35.4756 91.5 35.4581C91.5 35.4405 91.5 35.4229 91.5 35.4052C91.5 35.3875 91.5 35.3698 91.5 35.352C91.5 35.3342 91.5 35.3164 91.5 35.2985C91.5 35.2806 91.5 35.2627 91.5 35.2447C91.5 35.2266 91.5 35.2086 91.5 35.1905C91.5 35.1724 91.5 35.1542 91.5 35.136C91.5 35.1177 91.5 35.0995 91.5 35.0811C91.5 35.0628 91.5 35.0444 91.5 35.026C91.5 35.0075 91.5 34.989 91.5 34.9705C91.5 34.9519 91.5 34.9333 91.5 34.9147C91.5 34.896 91.5 34.8773 91.5 34.8585C91.5 34.8398 91.5 34.821 91.5 34.8021C91.5 34.7832 91.5 34.7643 91.5 34.7453C91.5 34.7263 91.5 34.7073 91.5 34.6882C91.5 34.6692 91.5 34.65 91.5 34.6308C91.5 34.6116 91.5 34.5924 91.5 34.5731C91.5 34.5538 91.5 34.5345 91.5 34.5151C91.5 34.4957 91.5 34.4763 91.5 34.4568C91.5 34.4373 91.5 34.4177 91.5 34.3981C91.5 34.3785 91.5 34.3589 91.5 34.3392C91.5 34.3194 91.5 34.2997 91.5 34.2799C91.5 34.2601 91.5 34.2402 91.5 34.2203C91.5 34.2004 91.5 34.1805 91.5 34.1604C91.5 34.1404 91.5 34.1204 91.5 34.1003C91.5 34.0802 91.5 34.06 91.5 34.0398C91.5 34.0196 91.5 33.9993 91.5 33.979C91.5 33.9587 91.5 33.9383 91.5 33.9179C91.5 33.8975 91.5 33.877 91.5 33.8565C91.5 33.836 91.5 33.8155 91.5 33.7949C91.5 33.7743 91.5 33.7536 91.5 33.7329C91.5 33.7122 91.5 33.6914 91.5 33.6706C91.5 33.6498 91.5 33.629 91.5 33.6081C91.5 33.5872 91.5 33.5662 91.5 33.5452C91.5 33.5242 91.5 33.5032 91.5 33.4821C91.5 33.461 91.5 33.4398 91.5 33.4186C91.5 33.3975 91.5 33.3762 91.5 33.3549C91.5 33.3336 91.5 33.3123 91.5 33.2909C91.5 33.2695 91.5 33.2481 91.5 33.2266C91.5 33.2052 91.5 33.1836 91.5 33.1621C91.5 33.1405 91.5 33.1189 91.5 33.0972C91.5 33.0755 91.5 33.0538 91.5 33.0321C91.5 33.0103 91.5 32.9885 91.5 32.9667C91.5 32.9448 91.5 32.9229 91.5 32.901C91.5 32.879 91.5 32.857 91.5 32.835C91.5 32.813 91.5 32.7909 91.5 32.7687C91.5 32.7466 91.5 32.7244 91.5 32.7022C91.5 32.68 91.5 32.6577 91.5 32.6354C91.5 32.6131 91.5 32.5908 91.5 32.5684C91.5 32.546 91.5 32.5235 91.5 32.501C91.5 32.4785 91.5 32.456 91.5 32.4334C91.5 32.4109 91.5 32.3882 91.5 32.3656C91.5 32.3429 91.5 32.3202 91.5 32.2974C91.5 32.2747 91.5 32.2519 91.5 32.229C91.5 32.2062 91.5 32.1833 91.5 32.1604C91.5 32.1374 91.5 32.1145 91.5 32.0914C91.5 32.0684 91.5 32.0454 91.5 32.0222C91.5 31.9991 91.5 31.976 91.5 31.9528C91.5 31.9296 91.5 31.9064 91.5 31.8831C91.5 31.8598 91.5 31.8365 91.5 31.8131C91.5 31.7898 91.5 31.7664 91.5 31.7429C91.5 31.7195 91.5 31.696 91.5 31.6724C91.5 31.6489 91.5 31.6253 91.5 31.6017C91.5 31.5781 91.5 31.5544 91.5 31.5307C91.5 31.507 91.5 31.4833 91.5 31.4595C91.5 31.4357 91.5 31.4119 91.5 31.388C91.5 31.3642 91.5 31.3403 91.5 31.3163C91.5 31.2924 91.5 31.2684 91.5 31.2443C91.5 31.2203 91.5 31.1962 91.5 31.1721C91.5 31.148 91.5 31.1239 91.5 31.0997C91.5 31.0755 91.5 31.0512 91.5 31.027C91.5 31.0027 91.5 30.9784 91.5 30.954C91.5 30.9297 91.5 30.9053 91.5 30.8808C91.5 30.8564 91.5 30.8319 91.5 30.8074C91.5 30.7829 91.5 30.7584 91.5 30.7338C91.5 30.7092 91.5 30.6845 91.5 30.6599C91.5 30.6352 91.5 30.6105 91.5 30.5857C91.5 30.561 91.5 30.5362 91.5 30.5114C91.5 30.4866 91.5 30.4617 91.5 30.4368C91.5 30.4119 91.5 30.387 91.5 30.362C91.5 30.337 91.5 30.312 91.5 30.2869C91.5 30.2619 91.5 30.2368 91.5 30.2116C91.5 30.1865 91.5 30.1613 91.5 30.1361C91.5 30.1109 91.5 30.0857 91.5 30.0604C91.5 30.0351 91.5 30.0098 91.5 29.9845C91.5 29.9591 91.5 29.9337 91.5 29.9083C91.5 29.8829 91.5 29.8574 91.5 29.8319C91.5 29.8064 91.5 29.7809 91.5 29.7553C91.5 29.7297 91.5 29.7041 91.5 29.6784C91.5 29.6528 91.5 29.6271 91.5 29.6014C91.5 29.5757 91.5 29.5499 91.5 29.5241C91.5 29.4983 91.5 29.4725 91.5 29.4467C91.5 29.4208 91.5 29.3949 91.5 29.369C91.5 29.343 91.5 29.3171 91.5 29.2911C91.5 29.2651 91.5 29.239 91.5 29.2129C91.5 29.1869 91.5 29.1608 91.5 29.1346C91.5 29.1085 91.5 29.0823 91.5 29.0561C91.5 29.0299 91.5 29.0036 91.5 28.9774C91.5 28.9511 91.5 28.9248 91.5 28.8984C91.5 28.8721 91.5 28.8457 91.5 28.8193C91.5 28.7929 91.5 28.7664 91.5 28.7399C91.5 28.7134 91.5 28.6869 91.5 28.6604C91.5 28.6338 91.5 28.6072 91.5 28.5806C91.5 28.554 91.5 28.5274 91.5 28.5007C91.5 28.474 91.5 28.4473 91.5 28.4205C91.5 28.3938 91.5 28.367 91.5 28.3402C91.5 28.3134 91.5 28.2865 91.5 28.2597C91.5 28.2328 91.5 28.2059 91.5 28.1789C91.5 28.152 91.5 28.125 91.5 28.098C91.5 28.071 91.5 28.044 91.5 28.0169C91.5 27.9898 91.5 27.9627 91.5 27.9356C91.5 27.9085 91.5 27.8813 91.5 27.8541C91.5 27.8269 91.5 27.7997 91.5 27.7725C91.5 27.7452 91.5 27.7179 91.5 27.6906C91.5 27.6633 91.5 27.6359 91.5 27.6086C91.5 27.5812 91.5 27.5538 91.5 27.5263C91.5 27.4989 91.5 27.4714 91.5 27.4439C91.5 27.4164 91.5 27.3889 91.5 27.3614C91.5 27.3338 91.5 27.3062 91.5 27.2786C91.5 27.251 91.5 27.2233 91.5 27.1957C91.5 27.168 91.5 27.1403 91.5 27.1126C91.5 27.0848 91.5 27.0571 91.5 27.0293C91.5 27.0015 91.5 26.9737 91.5 26.9458C91.5 26.918 91.5 26.8901 91.5 26.8622C91.5 26.8343 91.5 26.8063 91.5 26.7784C91.5 26.7504 91.5 26.7224 91.5 26.6944C91.5 26.6664 91.5 26.6383 91.5 26.6103C91.5 26.5822 91.5 26.5541 91.5 26.526C91.5 26.4978 91.5 26.4697 91.5 26.4415C91.5 26.4133 91.5 26.3851 91.5 26.3569C91.5 26.3286 91.5 26.3004 91.5 26.2721C91.5 26.2438 91.5 26.2155 91.5 26.1871C91.5 26.1588 91.5 26.1304 91.5 26.102C91.5 26.0736 91.5 26.0452 91.5 26.0167C91.5 25.9883 91.5 25.9598 91.5 25.9313C91.5 25.9028 91.5 25.8743 91.5 25.8457C91.5 25.8172 91.5 25.7886 91.5 25.76C91.5 25.7314 91.5 25.7027 91.5 25.6741C91.5 25.6454 91.5 25.6168 91.5 25.588C91.5 25.5593 91.5 25.5306 91.5 25.5019C91.5 25.4731 91.5 25.4443 91.5 25.4155C91.5 25.3867 91.5 25.3579 91.5 25.329C91.5 25.3002 91.5 25.2713 91.5 25.2424C91.5 25.2135 91.5 25.1846 91.5 25.1556C91.5 25.1266 91.5 25.0977 91.5 25.0687C91.5 25.0397 91.5 25.0107 91.5 24.9816C91.5 24.9526 91.5 24.9235 91.5 24.8944C91.5 24.8653 91.5 24.8362 91.5 24.8071C91.5 24.7779 91.5 24.7488 91.5 24.7196C91.5 24.6904 91.5 24.6612 91.5 24.6319C91.5 24.6027 91.5 24.5735 91.5 24.5442C91.5 24.5149 91.5 24.4856 91.5 24.4563C91.5 24.427 91.5 24.3976 91.5 24.3683C91.5 24.3389 91.5 24.3095 91.5 24.2801C91.5 24.2507 91.5 24.2213 91.5 24.1918C91.5 24.1624 91.5 24.1329 91.5 24.1034C91.5 24.0739 91.5 24.0444 91.5 24.0149C91.5 23.9853 91.5 23.9558 91.5 23.9262C91.5 23.8966 91.5 23.867 91.5 23.8374C91.5 23.8078 91.5 23.7781 91.5 23.7485C91.5 23.7188 91.5 23.6891 91.5 23.6594C91.5 23.6297 91.5 23.6 91.5 23.5703C91.5 23.5405 91.5 23.5108 91.5 23.481C91.5 23.4512 91.5 23.4214 91.5 23.3916C91.5 23.3618 91.5 23.3319 91.5 23.3021C91.5 23.2722 91.5 23.2423 91.5 23.2124C91.5 23.1825 91.5 23.1526 91.5 23.1227C91.5 23.0928 91.5 23.0628 91.5 23.0328C91.5 23.0029 91.5 22.9729 91.5 22.9429C91.5 22.9129 91.5 22.8828 91.5 22.8528C91.5 22.8227 91.5 22.7927 91.5 22.7626C91.5 22.7325 91.5 22.7024 91.5 22.6723C91.5 22.6422 91.5 22.612 91.5 22.5819C91.5 22.5517 91.5 22.5216 91.5 22.4914C91.5 22.4612 91.5 22.431 91.5 22.4008C91.5 22.3706 91.5 22.3403 91.5 22.3101C91.5 22.2798 91.5 22.2495 91.5 22.2192C91.5 22.189 91.5 22.1587 91.5 22.1283C91.5 22.098 91.5 22.0677 91.5 22.0373C91.5 22.007 91.5 21.9766 91.5 21.9462C91.5 21.9158 91.5 21.8854 91.5 21.855C91.5 21.8246 91.5 21.7942 91.5 21.7637C91.5 21.7333 91.5 21.7028 91.5 21.6723C91.5 21.6418 91.5 21.6113 91.5 21.5808C91.5 21.5503 91.5 21.5198 91.5 21.4893C91.5 21.4587 91.5 21.4282 91.5 21.3976C91.5 21.367 91.5 21.3364 91.5 21.3058C91.5 21.2752 91.5 21.2446 91.5 21.214C91.5 21.1834 91.5 21.1527 91.5 21.1221C91.5 21.0914 91.5 21.0608 91.5 21.0301C91.5 20.9994 91.5 20.9687 91.5 20.938C91.5 20.9073 91.5 20.8766 91.5 20.8458C91.5 20.8151 91.5 20.7843 91.5 20.7536C91.5 20.7228 91.5 20.692 91.5 20.6612C91.5 20.6305 91.5 20.5997 91.5 20.5688C91.5 20.538 91.5 20.5072 91.5 20.4764C91.5 20.4455 91.5 20.4147 91.5 20.3838C91.5 20.3529 91.5 20.3221 91.5 20.2912C91.5 20.2603 91.5 20.2294 91.5 20.1985C91.5 20.1676 91.5 20.1367 91.5 20.1057C91.5 20.0748 91.5 20.0438 91.5 20.0129C91.5 19.9819 91.5 19.951 91.5 19.92C91.5 19.889 91.5 19.858 91.5 19.827C91.5 19.796 91.5 19.765 91.5 19.734C91.5 19.7029 91.5 19.6719 91.5 19.6409C91.5 19.6098 91.5 19.5788 91.5 19.5477C91.5 19.5166 91.5 19.4856 91.5 19.4545C91.5 19.4234 91.5 19.3923 91.5 19.3612C91.5 19.3301 91.5 19.299 91.5 19.2679C91.5 19.2367 91.5 19.2056 91.5 19.1745C91.5 19.1433 91.5 19.1122 91.5 19.081C91.5 19.0499 91.5 19.0187 91.5 18.9875C91.5 18.9563 91.5 18.9251 91.5 18.894C91.5 18.8628 91.5 18.8316 91.5 18.8003C91.5 18.7691 91.5 18.7379 91.5 18.7067C91.5 18.6755 91.5 18.6442 91.5 18.613C91.5 18.5817 91.5 18.5505 91.5 18.5192C91.5 18.488 91.5 18.4567 91.5 18.4254C91.5 18.3941 91.5 18.3628 91.5 18.3316C91.5 18.3003 91.5 18.269 91.5 18.2377C91.5 18.2064 91.5 18.1751 91.5 18.1437C91.5 18.1124 91.5 18.0811 91.5 18.0498C91.5 18.0184 91.5 17.9871 91.5 17.9557C91.5 17.9244 91.5 17.893 91.5 17.8617C91.5 17.8303 91.5 17.799 91.5 17.7676C91.5 17.7362 91.5 17.7049 91.5 17.6735C91.5 17.6421 91.5 17.6107 91.5 17.5793C91.5 17.5479 91.5 17.5165 91.5 17.4851C91.5 17.4537 91.5 17.4223 91.5 17.3909C91.5 17.3595 91.5 17.3281 91.5 17.2966C91.5 17.2652 91.5 17.2338 91.5 17.2024C91.5 17.1709 91.5 17.1395 91.5 17.108C91.5 17.0766 91.5 17.0452 91.5 17.0137C91.5 16.9823 91.5 16.9508 91.5 16.9193C91.5 16.8879 91.5 16.8564 91.5 16.825C91.5 16.7935 91.5 16.762 91.5 16.7305C91.5 16.6991 91.5 16.6676 91.5 16.6361C91.5 16.6046 91.5 16.5732 91.5 16.5417C91.5 16.5102 91.5 16.4787 91.5 16.4472C91.5 16.4157 91.5 16.3842 91.5 16.3527C91.5 16.3212 91.5 16.2897 91.5 16.2582C91.5 16.2267 91.5 16.1952 91.5 16.1637C91.5 16.1322 91.5 16.1007 91.5 16.0692C91.5 16.0377 91.5 16.0062 91.5 15.9746C91.5 15.9431 91.5 15.9116 91.5 15.8801C91.5 15.8486 91.5 15.8171 91.5 15.7855C91.5 15.754 91.5 15.7225 91.5 15.691C91.5 15.6594 91.5 15.6279 91.5 15.5964C91.5 15.5649 91.5 15.5334 91.5 15.5018C91.5 15.4703 91.5 15.4388 91.5 15.4072C91.5 15.3757 91.5 15.3442 91.5 15.3127C91.5 15.2811 91.5 15.2496 91.5 15.2181C91.5 15.1866 91.5 15.155 91.5 15.1235C91.5 15.092 91.5 15.0604 91.5 15.0289C91.5 14.9974 91.5 14.9659 91.5 14.9343C91.5 14.9028 91.5 14.8713 91.5 14.8398C91.5 14.8082 91.5 14.7767 91.5 14.7452C91.5 14.7137 91.5 14.6822 91.5 14.6506C91.5 14.6191 91.5 14.5876 91.5 14.5561C91.5 14.5246 91.5 14.4931 91.5 14.4615C91.5 14.43 91.5 14.3985 91.5 14.367C91.5 14.3355 91.5 14.304 91.5 14.2725C91.5 14.241 91.5 14.2095 91.5 14.178C91.5 14.1465 91.5 14.115 91.5 14.0835C91.5 14.052 91.5 14.0205 91.5 13.989C91.5 13.9575 91.5 13.9261 91.5 13.8946C91.5 13.8631 91.5 13.8316 91.5 13.8001C91.5 13.7687 91.5 13.7372 91.5 13.7057C91.5 13.6743 91.5 13.6428 91.5 13.6113C91.5 13.5799 91.5 13.5484 91.5 13.517C91.5 13.4855 91.5 13.4541 91.5 13.4226C91.5 13.3912 91.5 13.3597 91.5 13.3283C91.5 13.2969 91.5 13.2654 91.5 13.234C91.5 13.2026 91.5 13.1711 91.5 13.1397C91.5 13.1083 91.5 13.0769 91.5 13.0455C91.5 13.0141 91.5 12.9827 91.5 12.9513C91.5 12.9199 91.5 12.8885 91.5 12.8571C91.5 12.8257 91.5 12.7944 91.5 12.763C91.5 12.7316 91.5 12.7002 91.5 12.6689C91.5 12.6375 91.5 12.6062 91.5 12.5748C91.5 12.5435 91.5 12.5121 91.5 12.4808C91.5 12.4494 91.5 12.4181 91.5 12.3868C91.5 12.3555 91.5 12.3241 91.5 12.2928C91.5 12.2615 91.5 12.2302 91.5 12.1989C91.5 12.1676 91.5 12.1363 91.5 12.1051C91.5 12.0738 91.5 12.0425 91.5 12.0112C91.5 11.98 91.5 11.9487 91.5 11.9175C91.5 11.8862 91.5 11.855 91.5 11.8237C91.5 11.7925 91.5 11.7613 91.5 11.7301C91.5 11.6988 91.5 11.6676 91.5 11.6364C91.5 11.6052 91.5 11.574 91.5 11.5429C91.5 11.5117 91.5 11.4805 91.5 11.4493C91.5 11.4182 91.5 11.387 91.5 11.3559C91.5 11.3247 91.5 11.2936 91.5 11.2624C91.5 11.2313 91.5 11.2002 91.5 11.1691C91.5 11.138 91.5 11.1069 91.5 11.0758C91.5 11.0447 91.5 11.0136 91.5 10.9825C91.5 10.9515 91.5 10.9204 91.5 10.8894C91.5 10.8583 91.5 10.8273 91.5 10.7962C91.5 10.7652 91.5 10.7342 91.5 10.7032C91.5 10.6722 91.5 10.6412 91.5 10.6102C91.5 10.5792 91.5 10.5482 91.5 10.5173C91.5 10.4863 91.5 10.4553 91.5 10.4244C91.5 10.3934 91.5 10.3625 91.5 10.3316C91.5 10.3007 91.5 10.2698 91.5 10.2389C91.5 10.208 91.5 10.1771 91.5 10.1462C91.5 10.1154 91.5 10.0845 91.5 10.0536C91.5 10.0228 91.5 9.99196 91.5 9.96114C91.5 9.93032 91.5 9.89951 91.5 9.86871C91.5 9.83791 91.5 9.80713 91.5 9.77635C91.5 9.74558 91.5 9.71482 91.5 9.68408C91.5 9.65333 91.5 9.6226 91.5 9.59188C91.5 9.56116 91.5 9.53045 91.5 9.49976C91.5 9.46907 91.5 9.43839 91.5 9.40773C91.5 9.37706 91.5 9.34641 91.5 9.31578C91.5 9.28514 91.5 9.25452 91.5 9.22391C91.5 9.1933 91.5 9.16271 91.5 9.13213C91.5 9.10155 91.5 9.07098 91.5 9.04043C91.5 9.00988 91.5 8.97935 91.5 8.94882C91.5 8.9183 91.5 8.8878 91.5 8.85731C91.5 8.82682 91.5 8.79634 91.5 8.76588C91.5 8.73542 91.5 8.70498 91.5 8.67455C91.5 8.64412 91.5 8.61371 91.5 8.58331C91.5 8.55291 91.5 8.52253 91.5 8.49217C91.5 8.4618 91.5 8.43145 91.5 8.40112C91.5 8.37078 91.5 8.34047 91.5 8.31017C91.5 8.27987 91.5 8.24958 91.5 8.21932C91.5 8.18905 91.5 8.1588 91.5 8.12857C91.5 8.09833 91.5 8.06812 91.5 8.03792C91.5 8.00772 91.5 7.97754 91.5 7.94737C91.5 7.91721 91.5 7.88706 91.5 7.85693C91.5 7.8268 91.5 7.79669 91.5 7.76659C91.5 7.7365 91.5 7.70642 91.5 7.67637C91.5 7.64631 91.5 7.61627 91.5 7.58625C91.5 7.55622 91.5 7.52622 91.5 7.49624C91.5 7.46625 91.5 7.43628 91.5 7.40634C91.5 7.37639 91.5 7.34646 91.5 7.31655C91.5 7.28664 91.5 7.25675 91.5 7.22688C91.5 7.197 91.5 7.16715 91.5 7.13732C91.5 7.10748 91.5 7.07767 91.5 7.04788C91.5 7.01808 91.5 6.98831 91.5 6.95855C91.5 6.9288 91.5 6.89906 91.5 6.86935C91.5 6.83963 91.5 6.80994 91.5 6.78026C91.5 6.75059 91.5 6.72093 91.5 6.6913C91.5 6.66167 91.5 6.63205 91.5 6.60246C91.5 6.57287 91.5 6.5433 91.5 6.51375C91.5 6.48419 91.5 6.45466 91.5 6.42516C91.5 6.39565 91.5 6.36616 91.5 6.33669C91.5 6.30723 91.5 6.27778 91.5 6.24836C91.5 6.21894 91.5 6.18954 91.5 6.16016C91.5 6.13078 91.5 6.10142 91.5 6.07208C91.5 6.04275 91.5 6.01343 91.5 5.98414C91.5 5.95485 91.5 5.92558 91.5 5.89634C91.5 5.86709 91.5 5.83786 91.5 5.80866C91.5 5.77946 91.5 5.75028 91.5 5.72113C91.5 5.69197 91.5 5.66284 91.5 5.63373C91.5 5.60462 91.5 5.57553 91.5 5.54647C91.5 5.51741 91.5 5.48837 91.5 5.45935C91.5 5.43034 91.5 5.40135 91.5 5.37238C91.5 5.34341 91.5 5.31446 91.5 5.28554C91.5 5.25662 91.5 5.22773 91.5 5.19886C91.5 5.16998 91.5 5.14114 91.5 5.11231C91.5 5.08349 91.5 5.05469 91.5 5.02592C91.5 4.99714 91.5 4.96839 91.5 4.93967C91.5 4.91094 91.5 4.88224 91.5 4.85357C91.5 4.8249 91.5 4.79625 91.5 4.76762C91.5 4.739 91.5 4.7104 91.5 4.68183C91.5 4.65326 91.5 4.62471 91.5 4.59619C91.5 4.56767 91.5 4.53917 91.5 4.5107C91.5 4.48223 91.5 4.45379 91.5 4.42537C91.5 4.39696 91.5 4.36857 91.5 4.3402C91.5 4.31184 91.5 4.2835 91.5 4.25519C91.5 4.22688 91.5 4.19859 91.5 4.17034C91.5 4.14208 91.5 4.11385 91.5 4.08565C91.5 4.05744 91.5 4.02927 91.5 4.00112C91.5 3.97297 91.5 3.94485 91.5 3.91676C91.5 3.88866 91.5 3.8606 91.5 3.83256C91.5 3.80452 91.5 3.77651 91.5 3.74853C91.5 3.72055 91.5 3.69259 91.5 3.66467C91.5 3.63674 91.5 3.60885 91.5 3.58098C91.5 3.55311 91.5 3.52527 91.5 3.49746C91.5 3.46965 91.5 3.44186 91.5 3.41411C91.5 3.38635 91.5 3.35863 91.5 3.33093C91.5 3.30324 91.5 3.27557 91.5 3.24793C91.5 3.2203 91.5 3.19269 91.5 3.16511C91.5 3.13753 91.5 3.10998 91.5 3.08247C91.5 3.05495 91.5 3.02746 91.5 3H88.5ZM90.9804 37.8648L79.9804 28.3648L78.0196 30.6352L89.0196 40.1352L90.9804 37.8648ZM78.0196 28.3648L67.0196 37.8648L68.9804 40.1352L79.9804 30.6352L78.0196 28.3648ZM68 39C69.5 39 69.5 38.9999 69.5 38.9997C69.5 38.9996 69.5 38.9993 69.5 38.999C69.5 38.9987 69.5 38.9982 69.5 38.9977C69.5 38.9972 69.5 38.9967 69.5 38.996C69.5 38.9953 69.5 38.9946 69.5 38.9938C69.5 38.9929 69.5 38.992 69.5 38.991C69.5 38.99 69.5 38.9889 69.5 38.9878C69.5 38.9866 69.5 38.9854 69.5 38.984C69.5 38.9827 69.5 38.9813 69.5 38.9798C69.5 38.9783 69.5 38.9768 69.5 38.9751C69.5 38.9735 69.5 38.9717 69.5 38.9699C69.5 38.9681 69.5 38.9662 69.5 38.9642C69.5 38.9622 69.5 38.9602 69.5 38.9581C69.5 38.9559 69.5 38.9537 69.5 38.9514C69.5 38.9491 69.5 38.9467 69.5 38.9443C69.5 38.9418 69.5 38.9393 69.5 38.9366C69.5 38.934 69.5 38.9313 69.5 38.9285C69.5 38.9257 69.5 38.9229 69.5 38.9199C69.5 38.917 69.5 38.914 69.5 38.9109C69.5 38.9078 69.5 38.9046 69.5 38.9013C69.5 38.8981 69.5 38.8947 69.5 38.8913C69.5 38.8879 69.5 38.8844 69.5 38.8808C69.5 38.8773 69.5 38.8736 69.5 38.8699C69.5 38.8661 69.5 38.8623 69.5 38.8584C69.5 38.8546 69.5 38.8506 69.5 38.8465C69.5 38.8425 69.5 38.8384 69.5 38.8342C69.5 38.83 69.5 38.8257 69.5 38.8213C69.5 38.817 69.5 38.8125 69.5 38.808C69.5 38.8035 69.5 38.7989 69.5 38.7942C69.5 38.7896 69.5 38.7848 69.5 38.78C69.5 38.7752 69.5 38.7703 69.5 38.7653C69.5 38.7603 69.5 38.7553 69.5 38.7502C69.5 38.745 69.5 38.7398 69.5 38.7345C69.5 38.7293 69.5 38.7239 69.5 38.7185C69.5 38.713 69.5 38.7075 69.5 38.7019C69.5 38.6963 69.5 38.6907 69.5 38.6849C69.5 38.6792 69.5 38.6734 69.5 38.6675C69.5 38.6616 69.5 38.6556 69.5 38.6496C69.5 38.6436 69.5 38.6375 69.5 38.6313C69.5 38.6251 69.5 38.6188 69.5 38.6125C69.5 38.6061 69.5 38.5997 69.5 38.5932C69.5 38.5867 69.5 38.5802 69.5 38.5735C69.5 38.5669 69.5 38.5602 69.5 38.5534C69.5 38.5466 69.5 38.5397 69.5 38.5328C69.5 38.5259 69.5 38.5189 69.5 38.5118C69.5 38.5047 69.5 38.4975 69.5 38.4903C69.5 38.4831 69.5 38.4758 69.5 38.4684C69.5 38.461 69.5 38.4536 69.5 38.446C69.5 38.4385 69.5 38.4309 69.5 38.4233C69.5 38.4156 69.5 38.4078 69.5 38.4C69.5 38.3922 69.5 38.3843 69.5 38.3764C69.5 38.3684 69.5 38.3604 69.5 38.3523C69.5 38.3442 69.5 38.336 69.5 38.3278C69.5 38.3195 69.5 38.3112 69.5 38.3028C69.5 38.2944 69.5 38.2859 69.5 38.2774C69.5 38.2689 69.5 38.2603 69.5 38.2516C69.5 38.2429 69.5 38.2342 69.5 38.2253C69.5 38.2165 69.5 38.2076 69.5 38.1987C69.5 38.1897 69.5 38.1807 69.5 38.1716C69.5 38.1625 69.5 38.1533 69.5 38.144C69.5 38.1348 69.5 38.1255 69.5 38.1161C69.5 38.1067 69.5 38.0973 69.5 38.0877C69.5 38.0782 69.5 38.0686 69.5 38.059C69.5 38.0493 69.5 38.0396 69.5 38.0298C69.5 38.02 69.5 38.0101 69.5 38.0001C69.5 37.9902 69.5 37.9802 69.5 37.9701C69.5 37.96 69.5 37.9499 69.5 37.9397C69.5 37.9294 69.5 37.9192 69.5 37.9088C69.5 37.8984 69.5 37.888 69.5 37.8775C69.5 37.867 69.5 37.8565 69.5 37.8458C69.5 37.8352 69.5 37.8245 69.5 37.8138C69.5 37.803 69.5 37.7922 69.5 37.7813C69.5 37.7704 69.5 37.7594 69.5 37.7483C69.5 37.7373 69.5 37.7262 69.5 37.715C69.5 37.7039 69.5 37.6926 69.5 37.6813C69.5 37.67 69.5 37.6586 69.5 37.6472C69.5 37.6358 69.5 37.6243 69.5 37.6127C69.5 37.6011 69.5 37.5895 69.5 37.5778C69.5 37.5661 69.5 37.5543 69.5 37.5425C69.5 37.5306 69.5 37.5187 69.5 37.5068C69.5 37.4948 69.5 37.4827 69.5 37.4706C69.5 37.4585 69.5 37.4464 69.5 37.4341C69.5 37.4219 69.5 37.4096 69.5 37.3972C69.5 37.3849 69.5 37.3725 69.5 37.36C69.5 37.3475 69.5 37.3349 69.5 37.3223C69.5 37.3097 69.5 37.297 69.5 37.2842C69.5 37.2715 69.5 37.2587 69.5 37.2458C69.5 37.2329 69.5 37.2199 69.5 37.2069C69.5 37.1939 69.5 37.1809 69.5 37.1677C69.5 37.1546 69.5 37.1414 69.5 37.1281C69.5 37.1148 69.5 37.1015 69.5 37.0881C69.5 37.0747 69.5 37.0613 69.5 37.0477C69.5 37.0342 69.5 37.0206 69.5 37.007C69.5 36.9934 69.5 36.9796 69.5 36.9659C69.5 36.9521 69.5 36.9383 69.5 36.9244C69.5 36.9105 69.5 36.8965 69.5 36.8825C69.5 36.8685 69.5 36.8544 69.5 36.8402C69.5 36.8261 69.5 36.8119 69.5 36.7976C69.5 36.7833 69.5 36.769 69.5 36.7546C69.5 36.7402 69.5 36.7258 69.5 36.7112C69.5 36.6967 69.5 36.6821 69.5 36.6675C69.5 36.6529 69.5 36.6382 69.5 36.6234C69.5 36.6086 69.5 36.5938 69.5 36.5789C69.5 36.564 69.5 36.5491 69.5 36.5341C69.5 36.5191 69.5 36.504 69.5 36.4889C69.5 36.4738 69.5 36.4586 69.5 36.4433C69.5 36.4281 69.5 36.4128 69.5 36.3974C69.5 36.382 69.5 36.3666 69.5 36.3511C69.5 36.3356 69.5 36.3201 69.5 36.3045C69.5 36.2889 69.5 36.2732 69.5 36.2575C69.5 36.2418 69.5 36.226 69.5 36.2101C69.5 36.1943 69.5 36.1784 69.5 36.1624C69.5 36.1465 69.5 36.1304 69.5 36.1144C69.5 36.0983 69.5 36.0821 69.5 36.066C69.5 36.0498 69.5 36.0335 69.5 36.0172C69.5 36.0009 69.5 35.9845 69.5 35.9681C69.5 35.9517 69.5 35.9352 69.5 35.9186C69.5 35.9021 69.5 35.8855 69.5 35.8688C69.5 35.8522 69.5 35.8354 69.5 35.8187C69.5 35.8019 69.5 35.7851 69.5 35.7682C69.5 35.7513 69.5 35.7343 69.5 35.7173C69.5 35.7003 69.5 35.6833 69.5 35.6662C69.5 35.6491 69.5 35.6319 69.5 35.6147C69.5 35.5974 69.5 35.5801 69.5 35.5628C69.5 35.5455 69.5 35.5281 69.5 35.5106C69.5 35.4932 69.5 35.4756 69.5 35.4581C69.5 35.4405 69.5 35.4229 69.5 35.4052C69.5 35.3875 69.5 35.3698 69.5 35.352C69.5 35.3342 69.5 35.3164 69.5 35.2985C69.5 35.2806 69.5 35.2627 69.5 35.2447C69.5 35.2266 69.5 35.2086 69.5 35.1905C69.5 35.1724 69.5 35.1542 69.5 35.136C69.5 35.1177 69.5 35.0995 69.5 35.0811C69.5 35.0628 69.5 35.0444 69.5 35.026C69.5 35.0075 69.5 34.989 69.5 34.9705C69.5 34.9519 69.5 34.9333 69.5 34.9147C69.5 34.896 69.5 34.8773 69.5 34.8585C69.5 34.8398 69.5 34.821 69.5 34.8021C69.5 34.7832 69.5 34.7643 69.5 34.7453C69.5 34.7263 69.5 34.7073 69.5 34.6882C69.5 34.6692 69.5 34.65 69.5 34.6308C69.5 34.6116 69.5 34.5924 69.5 34.5731C69.5 34.5538 69.5 34.5345 69.5 34.5151C69.5 34.4957 69.5 34.4763 69.5 34.4568C69.5 34.4373 69.5 34.4177 69.5 34.3981C69.5 34.3785 69.5 34.3589 69.5 34.3392C69.5 34.3194 69.5 34.2997 69.5 34.2799C69.5 34.2601 69.5 34.2402 69.5 34.2203C69.5 34.2004 69.5 34.1805 69.5 34.1604C69.5 34.1404 69.5 34.1204 69.5 34.1003C69.5 34.0802 69.5 34.06 69.5 34.0398C69.5 34.0196 69.5 33.9993 69.5 33.979C69.5 33.9587 69.5 33.9383 69.5 33.9179C69.5 33.8975 69.5 33.877 69.5 33.8565C69.5 33.836 69.5 33.8155 69.5 33.7949C69.5 33.7743 69.5 33.7536 69.5 33.7329C69.5 33.7122 69.5 33.6914 69.5 33.6706C69.5 33.6498 69.5 33.629 69.5 33.6081C69.5 33.5872 69.5 33.5662 69.5 33.5452C69.5 33.5242 69.5 33.5032 69.5 33.4821C69.5 33.461 69.5 33.4398 69.5 33.4186C69.5 33.3975 69.5 33.3762 69.5 33.3549C69.5 33.3336 69.5 33.3123 69.5 33.2909C69.5 33.2695 69.5 33.2481 69.5 33.2266C69.5 33.2052 69.5 33.1836 69.5 33.1621C69.5 33.1405 69.5 33.1189 69.5 33.0972C69.5 33.0755 69.5 33.0538 69.5 33.0321C69.5 33.0103 69.5 32.9885 69.5 32.9667C69.5 32.9448 69.5 32.9229 69.5 32.901C69.5 32.879 69.5 32.857 69.5 32.835C69.5 32.813 69.5 32.7909 69.5 32.7687C69.5 32.7466 69.5 32.7244 69.5 32.7022C69.5 32.68 69.5 32.6577 69.5 32.6354C69.5 32.6131 69.5 32.5908 69.5 32.5684C69.5 32.546 69.5 32.5235 69.5 32.501C69.5 32.4785 69.5 32.456 69.5 32.4334C69.5 32.4109 69.5 32.3882 69.5 32.3656C69.5 32.3429 69.5 32.3202 69.5 32.2974C69.5 32.2747 69.5 32.2519 69.5 32.229C69.5 32.2062 69.5 32.1833 69.5 32.1604C69.5 32.1374 69.5 32.1145 69.5 32.0914C69.5 32.0684 69.5 32.0454 69.5 32.0222C69.5 31.9991 69.5 31.976 69.5 31.9528C69.5 31.9296 69.5 31.9064 69.5 31.8831C69.5 31.8598 69.5 31.8365 69.5 31.8131C69.5 31.7898 69.5 31.7664 69.5 31.7429C69.5 31.7195 69.5 31.696 69.5 31.6724C69.5 31.6489 69.5 31.6253 69.5 31.6017C69.5 31.5781 69.5 31.5544 69.5 31.5307C69.5 31.507 69.5 31.4833 69.5 31.4595C69.5 31.4357 69.5 31.4119 69.5 31.388C69.5 31.3642 69.5 31.3403 69.5 31.3163C69.5 31.2924 69.5 31.2684 69.5 31.2443C69.5 31.2203 69.5 31.1962 69.5 31.1721C69.5 31.148 69.5 31.1239 69.5 31.0997C69.5 31.0755 69.5 31.0512 69.5 31.027C69.5 31.0027 69.5 30.9784 69.5 30.954C69.5 30.9297 69.5 30.9053 69.5 30.8808C69.5 30.8564 69.5 30.8319 69.5 30.8074C69.5 30.7829 69.5 30.7584 69.5 30.7338C69.5 30.7092 69.5 30.6845 69.5 30.6599C69.5 30.6352 69.5 30.6105 69.5 30.5857C69.5 30.561 69.5 30.5362 69.5 30.5114C69.5 30.4866 69.5 30.4617 69.5 30.4368C69.5 30.4119 69.5 30.387 69.5 30.362C69.5 30.337 69.5 30.312 69.5 30.2869C69.5 30.2619 69.5 30.2368 69.5 30.2116C69.5 30.1865 69.5 30.1613 69.5 30.1361C69.5 30.1109 69.5 30.0857 69.5 30.0604C69.5 30.0351 69.5 30.0098 69.5 29.9845C69.5 29.9591 69.5 29.9337 69.5 29.9083C69.5 29.8829 69.5 29.8574 69.5 29.8319C69.5 29.8064 69.5 29.7809 69.5 29.7553C69.5 29.7297 69.5 29.7041 69.5 29.6784C69.5 29.6528 69.5 29.6271 69.5 29.6014C69.5 29.5757 69.5 29.5499 69.5 29.5241C69.5 29.4983 69.5 29.4725 69.5 29.4467C69.5 29.4208 69.5 29.3949 69.5 29.369C69.5 29.343 69.5 29.3171 69.5 29.2911C69.5 29.2651 69.5 29.239 69.5 29.2129C69.5 29.1869 69.5 29.1608 69.5 29.1346C69.5 29.1085 69.5 29.0823 69.5 29.0561C69.5 29.0299 69.5 29.0036 69.5 28.9774C69.5 28.9511 69.5 28.9248 69.5 28.8984C69.5 28.8721 69.5 28.8457 69.5 28.8193C69.5 28.7929 69.5 28.7664 69.5 28.7399C69.5 28.7134 69.5 28.6869 69.5 28.6604C69.5 28.6338 69.5 28.6072 69.5 28.5806C69.5 28.554 69.5 28.5274 69.5 28.5007C69.5 28.474 69.5 28.4473 69.5 28.4205C69.5 28.3938 69.5 28.367 69.5 28.3402C69.5 28.3134 69.5 28.2865 69.5 28.2597C69.5 28.2328 69.5 28.2059 69.5 28.1789C69.5 28.152 69.5 28.125 69.5 28.098C69.5 28.071 69.5 28.044 69.5 28.0169C69.5 27.9898 69.5 27.9627 69.5 27.9356C69.5 27.9085 69.5 27.8813 69.5 27.8541C69.5 27.8269 69.5 27.7997 69.5 27.7725C69.5 27.7452 69.5 27.7179 69.5 27.6906C69.5 27.6633 69.5 27.6359 69.5 27.6086C69.5 27.5812 69.5 27.5538 69.5 27.5263C69.5 27.4989 69.5 27.4714 69.5 27.4439C69.5 27.4164 69.5 27.3889 69.5 27.3614C69.5 27.3338 69.5 27.3062 69.5 27.2786C69.5 27.251 69.5 27.2233 69.5 27.1957C69.5 27.168 69.5 27.1403 69.5 27.1126C69.5 27.0848 69.5 27.0571 69.5 27.0293C69.5 27.0015 69.5 26.9737 69.5 26.9458C69.5 26.918 69.5 26.8901 69.5 26.8622C69.5 26.8343 69.5 26.8063 69.5 26.7784C69.5 26.7504 69.5 26.7224 69.5 26.6944C69.5 26.6664 69.5 26.6383 69.5 26.6103C69.5 26.5822 69.5 26.5541 69.5 26.526C69.5 26.4978 69.5 26.4697 69.5 26.4415C69.5 26.4133 69.5 26.3851 69.5 26.3569C69.5 26.3286 69.5 26.3004 69.5 26.2721C69.5 26.2438 69.5 26.2155 69.5 26.1871C69.5 26.1588 69.5 26.1304 69.5 26.102C69.5 26.0736 69.5 26.0452 69.5 26.0167C69.5 25.9883 69.5 25.9598 69.5 25.9313C69.5 25.9028 69.5 25.8743 69.5 25.8457C69.5 25.8172 69.5 25.7886 69.5 25.76C69.5 25.7314 69.5 25.7027 69.5 25.6741C69.5 25.6454 69.5 25.6168 69.5 25.588C69.5 25.5593 69.5 25.5306 69.5 25.5019C69.5 25.4731 69.5 25.4443 69.5 25.4155C69.5 25.3867 69.5 25.3579 69.5 25.329C69.5 25.3002 69.5 25.2713 69.5 25.2424C69.5 25.2135 69.5 25.1846 69.5 25.1556C69.5 25.1266 69.5 25.0977 69.5 25.0687C69.5 25.0397 69.5 25.0107 69.5 24.9816C69.5 24.9526 69.5 24.9235 69.5 24.8944C69.5 24.8653 69.5 24.8362 69.5 24.8071C69.5 24.7779 69.5 24.7488 69.5 24.7196C69.5 24.6904 69.5 24.6612 69.5 24.6319C69.5 24.6027 69.5 24.5735 69.5 24.5442C69.5 24.5149 69.5 24.4856 69.5 24.4563C69.5 24.427 69.5 24.3976 69.5 24.3683C69.5 24.3389 69.5 24.3095 69.5 24.2801C69.5 24.2507 69.5 24.2213 69.5 24.1918C69.5 24.1624 69.5 24.1329 69.5 24.1034C69.5 24.0739 69.5 24.0444 69.5 24.0149C69.5 23.9853 69.5 23.9558 69.5 23.9262C69.5 23.8966 69.5 23.867 69.5 23.8374C69.5 23.8078 69.5 23.7781 69.5 23.7485C69.5 23.7188 69.5 23.6891 69.5 23.6594C69.5 23.6297 69.5 23.6 69.5 23.5703C69.5 23.5405 69.5 23.5108 69.5 23.481C69.5 23.4512 69.5 23.4214 69.5 23.3916C69.5 23.3618 69.5 23.3319 69.5 23.3021C69.5 23.2722 69.5 23.2423 69.5 23.2124C69.5 23.1825 69.5 23.1526 69.5 23.1227C69.5 23.0928 69.5 23.0628 69.5 23.0328C69.5 23.0029 69.5 22.9729 69.5 22.9429C69.5 22.9129 69.5 22.8828 69.5 22.8528C69.5 22.8227 69.5 22.7927 69.5 22.7626C69.5 22.7325 69.5 22.7024 69.5 22.6723C69.5 22.6422 69.5 22.612 69.5 22.5819C69.5 22.5517 69.5 22.5216 69.5 22.4914C69.5 22.4612 69.5 22.431 69.5 22.4008C69.5 22.3706 69.5 22.3403 69.5 22.3101C69.5 22.2798 69.5 22.2495 69.5 22.2192C69.5 22.189 69.5 22.1587 69.5 22.1283C69.5 22.098 69.5 22.0677 69.5 22.0373C69.5 22.007 69.5 21.9766 69.5 21.9462C69.5 21.9158 69.5 21.8854 69.5 21.855C69.5 21.8246 69.5 21.7942 69.5 21.7637C69.5 21.7333 69.5 21.7028 69.5 21.6723C69.5 21.6418 69.5 21.6113 69.5 21.5808C69.5 21.5503 69.5 21.5198 69.5 21.4893C69.5 21.4587 69.5 21.4282 69.5 21.3976C69.5 21.367 69.5 21.3364 69.5 21.3058C69.5 21.2752 69.5 21.2446 69.5 21.214C69.5 21.1834 69.5 21.1527 69.5 21.1221C69.5 21.0914 69.5 21.0608 69.5 21.0301C69.5 20.9994 69.5 20.9687 69.5 20.938C69.5 20.9073 69.5 20.8766 69.5 20.8458C69.5 20.8151 69.5 20.7843 69.5 20.7536C69.5 20.7228 69.5 20.692 69.5 20.6612C69.5 20.6305 69.5 20.5997 69.5 20.5688C69.5 20.538 69.5 20.5072 69.5 20.4764C69.5 20.4455 69.5 20.4147 69.5 20.3838C69.5 20.3529 69.5 20.3221 69.5 20.2912C69.5 20.2603 69.5 20.2294 69.5 20.1985C69.5 20.1676 69.5 20.1367 69.5 20.1057C69.5 20.0748 69.5 20.0438 69.5 20.0129C69.5 19.9819 69.5 19.951 69.5 19.92C69.5 19.889 69.5 19.858 69.5 19.827C69.5 19.796 69.5 19.765 69.5 19.734C69.5 19.7029 69.5 19.6719 69.5 19.6409C69.5 19.6098 69.5 19.5788 69.5 19.5477C69.5 19.5166 69.5 19.4856 69.5 19.4545C69.5 19.4234 69.5 19.3923 69.5 19.3612C69.5 19.3301 69.5 19.299 69.5 19.2679C69.5 19.2367 69.5 19.2056 69.5 19.1745C69.5 19.1433 69.5 19.1122 69.5 19.081C69.5 19.0499 69.5 19.0187 69.5 18.9875C69.5 18.9563 69.5 18.9251 69.5 18.894C69.5 18.8628 69.5 18.8316 69.5 18.8003C69.5 18.7691 69.5 18.7379 69.5 18.7067C69.5 18.6755 69.5 18.6442 69.5 18.613C69.5 18.5817 69.5 18.5505 69.5 18.5192C69.5 18.488 69.5 18.4567 69.5 18.4254C69.5 18.3941 69.5 18.3628 69.5 18.3316C69.5 18.3003 69.5 18.269 69.5 18.2377C69.5 18.2064 69.5 18.1751 69.5 18.1437C69.5 18.1124 69.5 18.0811 69.5 18.0498C69.5 18.0184 69.5 17.9871 69.5 17.9557C69.5 17.9244 69.5 17.893 69.5 17.8617C69.5 17.8303 69.5 17.799 69.5 17.7676C69.5 17.7362 69.5 17.7049 69.5 17.6735C69.5 17.6421 69.5 17.6107 69.5 17.5793C69.5 17.5479 69.5 17.5165 69.5 17.4851C69.5 17.4537 69.5 17.4223 69.5 17.3909C69.5 17.3595 69.5 17.3281 69.5 17.2966C69.5 17.2652 69.5 17.2338 69.5 17.2024C69.5 17.1709 69.5 17.1395 69.5 17.108C69.5 17.0766 69.5 17.0452 69.5 17.0137C69.5 16.9823 69.5 16.9508 69.5 16.9193C69.5 16.8879 69.5 16.8564 69.5 16.825C69.5 16.7935 69.5 16.762 69.5 16.7305C69.5 16.6991 69.5 16.6676 69.5 16.6361C69.5 16.6046 69.5 16.5732 69.5 16.5417C69.5 16.5102 69.5 16.4787 69.5 16.4472C69.5 16.4157 69.5 16.3842 69.5 16.3527C69.5 16.3212 69.5 16.2897 69.5 16.2582C69.5 16.2267 69.5 16.1952 69.5 16.1637C69.5 16.1322 69.5 16.1007 69.5 16.0692C69.5 16.0377 69.5 16.0062 69.5 15.9746C69.5 15.9431 69.5 15.9116 69.5 15.8801C69.5 15.8486 69.5 15.8171 69.5 15.7855C69.5 15.754 69.5 15.7225 69.5 15.691C69.5 15.6594 69.5 15.6279 69.5 15.5964C69.5 15.5649 69.5 15.5334 69.5 15.5018C69.5 15.4703 69.5 15.4388 69.5 15.4072C69.5 15.3757 69.5 15.3442 69.5 15.3127C69.5 15.2811 69.5 15.2496 69.5 15.2181C69.5 15.1866 69.5 15.155 69.5 15.1235C69.5 15.092 69.5 15.0604 69.5 15.0289C69.5 14.9974 69.5 14.9659 69.5 14.9343C69.5 14.9028 69.5 14.8713 69.5 14.8398C69.5 14.8082 69.5 14.7767 69.5 14.7452C69.5 14.7137 69.5 14.6822 69.5 14.6506C69.5 14.6191 69.5 14.5876 69.5 14.5561C69.5 14.5246 69.5 14.4931 69.5 14.4615C69.5 14.43 69.5 14.3985 69.5 14.367C69.5 14.3355 69.5 14.304 69.5 14.2725C69.5 14.241 69.5 14.2095 69.5 14.178C69.5 14.1465 69.5 14.115 69.5 14.0835C69.5 14.052 69.5 14.0205 69.5 13.989C69.5 13.9575 69.5 13.9261 69.5 13.8946C69.5 13.8631 69.5 13.8316 69.5 13.8001C69.5 13.7687 69.5 13.7372 69.5 13.7057C69.5 13.6743 69.5 13.6428 69.5 13.6113C69.5 13.5799 69.5 13.5484 69.5 13.517C69.5 13.4855 69.5 13.4541 69.5 13.4226C69.5 13.3912 69.5 13.3597 69.5 13.3283C69.5 13.2969 69.5 13.2654 69.5 13.234C69.5 13.2026 69.5 13.1711 69.5 13.1397C69.5 13.1083 69.5 13.0769 69.5 13.0455C69.5 13.0141 69.5 12.9827 69.5 12.9513C69.5 12.9199 69.5 12.8885 69.5 12.8571C69.5 12.8257 69.5 12.7944 69.5 12.763C69.5 12.7316 69.5 12.7002 69.5 12.6689C69.5 12.6375 69.5 12.6062 69.5 12.5748C69.5 12.5435 69.5 12.5121 69.5 12.4808C69.5 12.4494 69.5 12.4181 69.5 12.3868C69.5 12.3555 69.5 12.3241 69.5 12.2928C69.5 12.2615 69.5 12.2302 69.5 12.1989C69.5 12.1676 69.5 12.1363 69.5 12.1051C69.5 12.0738 69.5 12.0425 69.5 12.0112C69.5 11.98 69.5 11.9487 69.5 11.9175C69.5 11.8862 69.5 11.855 69.5 11.8237C69.5 11.7925 69.5 11.7613 69.5 11.7301C69.5 11.6988 69.5 11.6676 69.5 11.6364C69.5 11.6052 69.5 11.574 69.5 11.5429C69.5 11.5117 69.5 11.4805 69.5 11.4493C69.5 11.4182 69.5 11.387 69.5 11.3559C69.5 11.3247 69.5 11.2936 69.5 11.2624C69.5 11.2313 69.5 11.2002 69.5 11.1691C69.5 11.138 69.5 11.1069 69.5 11.0758C69.5 11.0447 69.5 11.0136 69.5 10.9825C69.5 10.9515 69.5 10.9204 69.5 10.8894C69.5 10.8583 69.5 10.8273 69.5 10.7962C69.5 10.7652 69.5 10.7342 69.5 10.7032C69.5 10.6722 69.5 10.6412 69.5 10.6102C69.5 10.5792 69.5 10.5482 69.5 10.5173C69.5 10.4863 69.5 10.4553 69.5 10.4244C69.5 10.3934 69.5 10.3625 69.5 10.3316C69.5 10.3007 69.5 10.2698 69.5 10.2389C69.5 10.208 69.5 10.1771 69.5 10.1462C69.5 10.1154 69.5 10.0845 69.5 10.0536C69.5 10.0228 69.5 9.99196 69.5 9.96114C69.5 9.93032 69.5 9.89951 69.5 9.86871C69.5 9.83791 69.5 9.80713 69.5 9.77635C69.5 9.74558 69.5 9.71482 69.5 9.68408C69.5 9.65333 69.5 9.6226 69.5 9.59188C69.5 9.56116 69.5 9.53045 69.5 9.49976C69.5 9.46907 69.5 9.43839 69.5 9.40773C69.5 9.37706 69.5 9.34641 69.5 9.31578C69.5 9.28514 69.5 9.25452 69.5 9.22391C69.5 9.1933 69.5 9.16271 69.5 9.13213C69.5 9.10155 69.5 9.07098 69.5 9.04043C69.5 9.00988 69.5 8.97935 69.5 8.94882C69.5 8.9183 69.5 8.8878 69.5 8.85731C69.5 8.82682 69.5 8.79634 69.5 8.76588C69.5 8.73542 69.5 8.70498 69.5 8.67455C69.5 8.64412 69.5 8.61371 69.5 8.58331C69.5 8.55291 69.5 8.52253 69.5 8.49217C69.5 8.4618 69.5 8.43145 69.5 8.40112C69.5 8.37078 69.5 8.34047 69.5 8.31017C69.5 8.27987 69.5 8.24958 69.5 8.21932C69.5 8.18905 69.5 8.1588 69.5 8.12857C69.5 8.09833 69.5 8.06812 69.5 8.03792C69.5 8.00772 69.5 7.97754 69.5 7.94737C69.5 7.91721 69.5 7.88706 69.5 7.85693C69.5 7.8268 69.5 7.79669 69.5 7.76659C69.5 7.7365 69.5 7.70642 69.5 7.67637C69.5 7.64631 69.5 7.61627 69.5 7.58625C69.5 7.55622 69.5 7.52622 69.5 7.49624C69.5 7.46625 69.5 7.43628 69.5 7.40634C69.5 7.37639 69.5 7.34646 69.5 7.31655C69.5 7.28664 69.5 7.25675 69.5 7.22688C69.5 7.197 69.5 7.16715 69.5 7.13732C69.5 7.10748 69.5 7.07767 69.5 7.04788C69.5 7.01808 69.5 6.98831 69.5 6.95855C69.5 6.9288 69.5 6.89906 69.5 6.86935C69.5 6.83963 69.5 6.80994 69.5 6.78026C69.5 6.75059 69.5 6.72093 69.5 6.6913C69.5 6.66167 69.5 6.63205 69.5 6.60246C69.5 6.57287 69.5 6.5433 69.5 6.51375C69.5 6.48419 69.5 6.45466 69.5 6.42516C69.5 6.39565 69.5 6.36616 69.5 6.33669C69.5 6.30723 69.5 6.27778 69.5 6.24836C69.5 6.21894 69.5 6.18954 69.5 6.16016C69.5 6.13078 69.5 6.10142 69.5 6.07208C69.5 6.04275 69.5 6.01343 69.5 5.98414C69.5 5.95485 69.5 5.92558 69.5 5.89634C69.5 5.86709 69.5 5.83786 69.5 5.80866C69.5 5.77946 69.5 5.75028 69.5 5.72113C69.5 5.69197 69.5 5.66284 69.5 5.63373C69.5 5.60462 69.5 5.57553 69.5 5.54647C69.5 5.51741 69.5 5.48837 69.5 5.45935C69.5 5.43034 69.5 5.40135 69.5 5.37238C69.5 5.34341 69.5 5.31446 69.5 5.28554C69.5 5.25662 69.5 5.22773 69.5 5.19886C69.5 5.16998 69.5 5.14114 69.5 5.11231C69.5 5.08349 69.5 5.05469 69.5 5.02592C69.5 4.99714 69.5 4.96839 69.5 4.93967C69.5 4.91094 69.5 4.88224 69.5 4.85357C69.5 4.8249 69.5 4.79625 69.5 4.76762C69.5 4.739 69.5 4.7104 69.5 4.68183C69.5 4.65326 69.5 4.62471 69.5 4.59619C69.5 4.56767 69.5 4.53917 69.5 4.5107C69.5 4.48223 69.5 4.45379 69.5 4.42537C69.5 4.39696 69.5 4.36857 69.5 4.3402C69.5 4.31184 69.5 4.2835 69.5 4.25519C69.5 4.22688 69.5 4.19859 69.5 4.17034C69.5 4.14208 69.5 4.11385 69.5 4.08565C69.5 4.05744 69.5 4.02927 69.5 4.00112C69.5 3.97297 69.5 3.94485 69.5 3.91676C69.5 3.88866 69.5 3.8606 69.5 3.83256C69.5 3.80452 69.5 3.77651 69.5 3.74853C69.5 3.72055 69.5 3.69259 69.5 3.66467C69.5 3.63674 69.5 3.60885 69.5 3.58098C69.5 3.55311 69.5 3.52527 69.5 3.49746C69.5 3.46965 69.5 3.44186 69.5 3.41411C69.5 3.38635 69.5 3.35863 69.5 3.33093C69.5 3.30324 69.5 3.27557 69.5 3.24793C69.5 3.2203 69.5 3.19269 69.5 3.16511C69.5 3.13753 69.5 3.10998 69.5 3.08247C69.5 3.05495 69.5 3.02746 69.5 3H66.5C66.5 3.02746 66.5 3.05495 66.5 3.08247C66.5 3.10998 66.5 3.13753 66.5 3.16511C66.5 3.19269 66.5 3.2203 66.5 3.24793C66.5 3.27557 66.5 3.30324 66.5 3.33093C66.5 3.35863 66.5 3.38635 66.5 3.41411C66.5 3.44186 66.5 3.46965 66.5 3.49746C66.5 3.52527 66.5 3.55311 66.5 3.58098C66.5 3.60885 66.5 3.63674 66.5 3.66467C66.5 3.69259 66.5 3.72055 66.5 3.74853C66.5 3.77651 66.5 3.80452 66.5 3.83256C66.5 3.8606 66.5 3.88866 66.5 3.91676C66.5 3.94485 66.5 3.97297 66.5 4.00112C66.5 4.02927 66.5 4.05744 66.5 4.08565C66.5 4.11385 66.5 4.14208 66.5 4.17034C66.5 4.19859 66.5 4.22688 66.5 4.25519C66.5 4.2835 66.5 4.31184 66.5 4.3402C66.5 4.36857 66.5 4.39696 66.5 4.42537C66.5 4.45379 66.5 4.48223 66.5 4.5107C66.5 4.53917 66.5 4.56767 66.5 4.59619C66.5 4.62471 66.5 4.65326 66.5 4.68183C66.5 4.7104 66.5 4.739 66.5 4.76762C66.5 4.79625 66.5 4.8249 66.5 4.85357C66.5 4.88224 66.5 4.91094 66.5 4.93967C66.5 4.96839 66.5 4.99714 66.5 5.02592C66.5 5.05469 66.5 5.08349 66.5 5.11231C66.5 5.14114 66.5 5.16998 66.5 5.19886C66.5 5.22773 66.5 5.25662 66.5 5.28554C66.5 5.31446 66.5 5.34341 66.5 5.37238C66.5 5.40135 66.5 5.43034 66.5 5.45935C66.5 5.48837 66.5 5.51741 66.5 5.54647C66.5 5.57553 66.5 5.60462 66.5 5.63373C66.5 5.66284 66.5 5.69197 66.5 5.72113C66.5 5.75028 66.5 5.77946 66.5 5.80866C66.5 5.83786 66.5 5.86709 66.5 5.89634C66.5 5.92558 66.5 5.95485 66.5 5.98414C66.5 6.01343 66.5 6.04275 66.5 6.07208C66.5 6.10142 66.5 6.13078 66.5 6.16016C66.5 6.18954 66.5 6.21894 66.5 6.24836C66.5 6.27778 66.5 6.30723 66.5 6.33669C66.5 6.36616 66.5 6.39565 66.5 6.42516C66.5 6.45466 66.5 6.48419 66.5 6.51375C66.5 6.5433 66.5 6.57287 66.5 6.60246C66.5 6.63205 66.5 6.66167 66.5 6.6913C66.5 6.72093 66.5 6.75059 66.5 6.78026C66.5 6.80994 66.5 6.83963 66.5 6.86935C66.5 6.89906 66.5 6.9288 66.5 6.95855C66.5 6.98831 66.5 7.01808 66.5 7.04788C66.5 7.07767 66.5 7.10748 66.5 7.13732C66.5 7.16715 66.5 7.197 66.5 7.22688C66.5 7.25675 66.5 7.28664 66.5 7.31655C66.5 7.34646 66.5 7.37639 66.5 7.40634C66.5 7.43628 66.5 7.46625 66.5 7.49624C66.5 7.52622 66.5 7.55622 66.5 7.58625C66.5 7.61627 66.5 7.64631 66.5 7.67637C66.5 7.70642 66.5 7.7365 66.5 7.76659C66.5 7.79669 66.5 7.8268 66.5 7.85693C66.5 7.88706 66.5 7.91721 66.5 7.94737C66.5 7.97754 66.5 8.00772 66.5 8.03792C66.5 8.06812 66.5 8.09833 66.5 8.12857C66.5 8.1588 66.5 8.18905 66.5 8.21932C66.5 8.24958 66.5 8.27987 66.5 8.31017C66.5 8.34047 66.5 8.37078 66.5 8.40112C66.5 8.43145 66.5 8.4618 66.5 8.49217C66.5 8.52253 66.5 8.55291 66.5 8.58331C66.5 8.61371 66.5 8.64412 66.5 8.67455C66.5 8.70498 66.5 8.73542 66.5 8.76588C66.5 8.79634 66.5 8.82682 66.5 8.85731C66.5 8.8878 66.5 8.9183 66.5 8.94882C66.5 8.97935 66.5 9.00988 66.5 9.04043C66.5 9.07098 66.5 9.10155 66.5 9.13213C66.5 9.16271 66.5 9.1933 66.5 9.22391C66.5 9.25452 66.5 9.28514 66.5 9.31578C66.5 9.34641 66.5 9.37706 66.5 9.40773C66.5 9.43839 66.5 9.46907 66.5 9.49976C66.5 9.53045 66.5 9.56116 66.5 9.59188C66.5 9.6226 66.5 9.65333 66.5 9.68408C66.5 9.71482 66.5 9.74558 66.5 9.77635C66.5 9.80713 66.5 9.83791 66.5 9.86871C66.5 9.89951 66.5 9.93032 66.5 9.96114C66.5 9.99196 66.5 10.0228 66.5 10.0536C66.5 10.0845 66.5 10.1154 66.5 10.1462C66.5 10.1771 66.5 10.208 66.5 10.2389C66.5 10.2698 66.5 10.3007 66.5 10.3316C66.5 10.3625 66.5 10.3934 66.5 10.4244C66.5 10.4553 66.5 10.4863 66.5 10.5173C66.5 10.5482 66.5 10.5792 66.5 10.6102C66.5 10.6412 66.5 10.6722 66.5 10.7032C66.5 10.7342 66.5 10.7652 66.5 10.7962C66.5 10.8273 66.5 10.8583 66.5 10.8894C66.5 10.9204 66.5 10.9515 66.5 10.9825C66.5 11.0136 66.5 11.0447 66.5 11.0758C66.5 11.1069 66.5 11.138 66.5 11.1691C66.5 11.2002 66.5 11.2313 66.5 11.2624C66.5 11.2936 66.5 11.3247 66.5 11.3559C66.5 11.387 66.5 11.4182 66.5 11.4493C66.5 11.4805 66.5 11.5117 66.5 11.5429C66.5 11.574 66.5 11.6052 66.5 11.6364C66.5 11.6676 66.5 11.6988 66.5 11.7301C66.5 11.7613 66.5 11.7925 66.5 11.8237C66.5 11.855 66.5 11.8862 66.5 11.9175C66.5 11.9487 66.5 11.98 66.5 12.0112C66.5 12.0425 66.5 12.0738 66.5 12.1051C66.5 12.1363 66.5 12.1676 66.5 12.1989C66.5 12.2302 66.5 12.2615 66.5 12.2928C66.5 12.3241 66.5 12.3555 66.5 12.3868C66.5 12.4181 66.5 12.4494 66.5 12.4808C66.5 12.5121 66.5 12.5435 66.5 12.5748C66.5 12.6062 66.5 12.6375 66.5 12.6689C66.5 12.7002 66.5 12.7316 66.5 12.763C66.5 12.7944 66.5 12.8257 66.5 12.8571C66.5 12.8885 66.5 12.9199 66.5 12.9513C66.5 12.9827 66.5 13.0141 66.5 13.0455C66.5 13.0769 66.5 13.1083 66.5 13.1397C66.5 13.1711 66.5 13.2026 66.5 13.234C66.5 13.2654 66.5 13.2969 66.5 13.3283C66.5 13.3597 66.5 13.3912 66.5 13.4226C66.5 13.4541 66.5 13.4855 66.5 13.517C66.5 13.5484 66.5 13.5799 66.5 13.6113C66.5 13.6428 66.5 13.6743 66.5 13.7057C66.5 13.7372 66.5 13.7687 66.5 13.8001C66.5 13.8316 66.5 13.8631 66.5 13.8946C66.5 13.9261 66.5 13.9575 66.5 13.989C66.5 14.0205 66.5 14.052 66.5 14.0835C66.5 14.115 66.5 14.1465 66.5 14.178C66.5 14.2095 66.5 14.241 66.5 14.2725C66.5 14.304 66.5 14.3355 66.5 14.367C66.5 14.3985 66.5 14.43 66.5 14.4615C66.5 14.4931 66.5 14.5246 66.5 14.5561C66.5 14.5876 66.5 14.6191 66.5 14.6506C66.5 14.6822 66.5 14.7137 66.5 14.7452C66.5 14.7767 66.5 14.8082 66.5 14.8398C66.5 14.8713 66.5 14.9028 66.5 14.9343C66.5 14.9659 66.5 14.9974 66.5 15.0289C66.5 15.0604 66.5 15.092 66.5 15.1235C66.5 15.155 66.5 15.1866 66.5 15.2181C66.5 15.2496 66.5 15.2811 66.5 15.3127C66.5 15.3442 66.5 15.3757 66.5 15.4072C66.5 15.4388 66.5 15.4703 66.5 15.5018C66.5 15.5334 66.5 15.5649 66.5 15.5964C66.5 15.6279 66.5 15.6594 66.5 15.691C66.5 15.7225 66.5 15.754 66.5 15.7855C66.5 15.8171 66.5 15.8486 66.5 15.8801C66.5 15.9116 66.5 15.9431 66.5 15.9746C66.5 16.0062 66.5 16.0377 66.5 16.0692C66.5 16.1007 66.5 16.1322 66.5 16.1637C66.5 16.1952 66.5 16.2267 66.5 16.2582C66.5 16.2897 66.5 16.3212 66.5 16.3527C66.5 16.3842 66.5 16.4157 66.5 16.4472C66.5 16.4787 66.5 16.5102 66.5 16.5417C66.5 16.5732 66.5 16.6046 66.5 16.6361C66.5 16.6676 66.5 16.6991 66.5 16.7305C66.5 16.762 66.5 16.7935 66.5 16.825C66.5 16.8564 66.5 16.8879 66.5 16.9193C66.5 16.9508 66.5 16.9823 66.5 17.0137C66.5 17.0452 66.5 17.0766 66.5 17.108C66.5 17.1395 66.5 17.1709 66.5 17.2024C66.5 17.2338 66.5 17.2652 66.5 17.2966C66.5 17.3281 66.5 17.3595 66.5 17.3909C66.5 17.4223 66.5 17.4537 66.5 17.4851C66.5 17.5165 66.5 17.5479 66.5 17.5793C66.5 17.6107 66.5 17.6421 66.5 17.6735C66.5 17.7049 66.5 17.7362 66.5 17.7676C66.5 17.799 66.5 17.8303 66.5 17.8617C66.5 17.893 66.5 17.9244 66.5 17.9557C66.5 17.9871 66.5 18.0184 66.5 18.0498C66.5 18.0811 66.5 18.1124 66.5 18.1437C66.5 18.1751 66.5 18.2064 66.5 18.2377C66.5 18.269 66.5 18.3003 66.5 18.3316C66.5 18.3628 66.5 18.3941 66.5 18.4254C66.5 18.4567 66.5 18.488 66.5 18.5192C66.5 18.5505 66.5 18.5817 66.5 18.613C66.5 18.6442 66.5 18.6755 66.5 18.7067C66.5 18.7379 66.5 18.7691 66.5 18.8003C66.5 18.8316 66.5 18.8628 66.5 18.894C66.5 18.9251 66.5 18.9563 66.5 18.9875C66.5 19.0187 66.5 19.0499 66.5 19.081C66.5 19.1122 66.5 19.1433 66.5 19.1745C66.5 19.2056 66.5 19.2367 66.5 19.2679C66.5 19.299 66.5 19.3301 66.5 19.3612C66.5 19.3923 66.5 19.4234 66.5 19.4545C66.5 19.4856 66.5 19.5166 66.5 19.5477C66.5 19.5788 66.5 19.6098 66.5 19.6409C66.5 19.6719 66.5 19.7029 66.5 19.734C66.5 19.765 66.5 19.796 66.5 19.827C66.5 19.858 66.5 19.889 66.5 19.92C66.5 19.951 66.5 19.9819 66.5 20.0129C66.5 20.0438 66.5 20.0748 66.5 20.1057C66.5 20.1367 66.5 20.1676 66.5 20.1985C66.5 20.2294 66.5 20.2603 66.5 20.2912C66.5 20.3221 66.5 20.3529 66.5 20.3838C66.5 20.4147 66.5 20.4455 66.5 20.4764C66.5 20.5072 66.5 20.538 66.5 20.5688C66.5 20.5997 66.5 20.6305 66.5 20.6612C66.5 20.692 66.5 20.7228 66.5 20.7536C66.5 20.7843 66.5 20.8151 66.5 20.8458C66.5 20.8766 66.5 20.9073 66.5 20.938C66.5 20.9687 66.5 20.9994 66.5 21.0301C66.5 21.0608 66.5 21.0914 66.5 21.1221C66.5 21.1527 66.5 21.1834 66.5 21.214C66.5 21.2446 66.5 21.2752 66.5 21.3058C66.5 21.3364 66.5 21.367 66.5 21.3976C66.5 21.4282 66.5 21.4587 66.5 21.4893C66.5 21.5198 66.5 21.5503 66.5 21.5808C66.5 21.6113 66.5 21.6418 66.5 21.6723C66.5 21.7028 66.5 21.7333 66.5 21.7637C66.5 21.7942 66.5 21.8246 66.5 21.855C66.5 21.8854 66.5 21.9158 66.5 21.9462C66.5 21.9766 66.5 22.007 66.5 22.0373C66.5 22.0677 66.5 22.098 66.5 22.1283C66.5 22.1587 66.5 22.189 66.5 22.2192C66.5 22.2495 66.5 22.2798 66.5 22.3101C66.5 22.3403 66.5 22.3706 66.5 22.4008C66.5 22.431 66.5 22.4612 66.5 22.4914C66.5 22.5216 66.5 22.5517 66.5 22.5819C66.5 22.612 66.5 22.6422 66.5 22.6723C66.5 22.7024 66.5 22.7325 66.5 22.7626C66.5 22.7927 66.5 22.8227 66.5 22.8528C66.5 22.8828 66.5 22.9129 66.5 22.9429C66.5 22.9729 66.5 23.0029 66.5 23.0328C66.5 23.0628 66.5 23.0928 66.5 23.1227C66.5 23.1526 66.5 23.1825 66.5 23.2124C66.5 23.2423 66.5 23.2722 66.5 23.3021C66.5 23.3319 66.5 23.3618 66.5 23.3916C66.5 23.4214 66.5 23.4512 66.5 23.481C66.5 23.5108 66.5 23.5405 66.5 23.5703C66.5 23.6 66.5 23.6297 66.5 23.6594C66.5 23.6891 66.5 23.7188 66.5 23.7485C66.5 23.7781 66.5 23.8078 66.5 23.8374C66.5 23.867 66.5 23.8966 66.5 23.9262C66.5 23.9558 66.5 23.9853 66.5 24.0149C66.5 24.0444 66.5 24.0739 66.5 24.1034C66.5 24.1329 66.5 24.1624 66.5 24.1918C66.5 24.2213 66.5 24.2507 66.5 24.2801C66.5 24.3095 66.5 24.3389 66.5 24.3683C66.5 24.3976 66.5 24.427 66.5 24.4563C66.5 24.4856 66.5 24.5149 66.5 24.5442C66.5 24.5735 66.5 24.6027 66.5 24.6319C66.5 24.6612 66.5 24.6904 66.5 24.7196C66.5 24.7488 66.5 24.7779 66.5 24.8071C66.5 24.8362 66.5 24.8653 66.5 24.8944C66.5 24.9235 66.5 24.9526 66.5 24.9816C66.5 25.0107 66.5 25.0397 66.5 25.0687C66.5 25.0977 66.5 25.1266 66.5 25.1556C66.5 25.1846 66.5 25.2135 66.5 25.2424C66.5 25.2713 66.5 25.3002 66.5 25.329C66.5 25.3579 66.5 25.3867 66.5 25.4155C66.5 25.4443 66.5 25.4731 66.5 25.5019C66.5 25.5306 66.5 25.5593 66.5 25.588C66.5 25.6168 66.5 25.6454 66.5 25.6741C66.5 25.7027 66.5 25.7314 66.5 25.76C66.5 25.7886 66.5 25.8172 66.5 25.8457C66.5 25.8743 66.5 25.9028 66.5 25.9313C66.5 25.9598 66.5 25.9883 66.5 26.0167C66.5 26.0452 66.5 26.0736 66.5 26.102C66.5 26.1304 66.5 26.1588 66.5 26.1871C66.5 26.2155 66.5 26.2438 66.5 26.2721C66.5 26.3004 66.5 26.3286 66.5 26.3569C66.5 26.3851 66.5 26.4133 66.5 26.4415C66.5 26.4697 66.5 26.4978 66.5 26.526C66.5 26.5541 66.5 26.5822 66.5 26.6103C66.5 26.6383 66.5 26.6664 66.5 26.6944C66.5 26.7224 66.5 26.7504 66.5 26.7784C66.5 26.8063 66.5 26.8343 66.5 26.8622C66.5 26.8901 66.5 26.918 66.5 26.9458C66.5 26.9737 66.5 27.0015 66.5 27.0293C66.5 27.0571 66.5 27.0848 66.5 27.1126C66.5 27.1403 66.5 27.168 66.5 27.1957C66.5 27.2233 66.5 27.251 66.5 27.2786C66.5 27.3062 66.5 27.3338 66.5 27.3614C66.5 27.3889 66.5 27.4164 66.5 27.4439C66.5 27.4714 66.5 27.4989 66.5 27.5263C66.5 27.5538 66.5 27.5812 66.5 27.6086C66.5 27.6359 66.5 27.6633 66.5 27.6906C66.5 27.7179 66.5 27.7452 66.5 27.7725C66.5 27.7997 66.5 27.8269 66.5 27.8541C66.5 27.8813 66.5 27.9085 66.5 27.9356C66.5 27.9627 66.5 27.9898 66.5 28.0169C66.5 28.044 66.5 28.071 66.5 28.098C66.5 28.125 66.5 28.152 66.5 28.1789C66.5 28.2059 66.5 28.2328 66.5 28.2597C66.5 28.2865 66.5 28.3134 66.5 28.3402C66.5 28.367 66.5 28.3938 66.5 28.4205C66.5 28.4473 66.5 28.474 66.5 28.5007C66.5 28.5274 66.5 28.554 66.5 28.5806C66.5 28.6072 66.5 28.6338 66.5 28.6604C66.5 28.6869 66.5 28.7134 66.5 28.7399C66.5 28.7664 66.5 28.7929 66.5 28.8193C66.5 28.8457 66.5 28.8721 66.5 28.8984C66.5 28.9248 66.5 28.9511 66.5 28.9774C66.5 29.0036 66.5 29.0299 66.5 29.0561C66.5 29.0823 66.5 29.1085 66.5 29.1346C66.5 29.1608 66.5 29.1869 66.5 29.2129C66.5 29.239 66.5 29.2651 66.5 29.2911C66.5 29.3171 66.5 29.343 66.5 29.369C66.5 29.3949 66.5 29.4208 66.5 29.4467C66.5 29.4725 66.5 29.4983 66.5 29.5241C66.5 29.5499 66.5 29.5757 66.5 29.6014C66.5 29.6271 66.5 29.6528 66.5 29.6784C66.5 29.7041 66.5 29.7297 66.5 29.7553C66.5 29.7809 66.5 29.8064 66.5 29.8319C66.5 29.8574 66.5 29.8829 66.5 29.9083C66.5 29.9337 66.5 29.9591 66.5 29.9845C66.5 30.0098 66.5 30.0351 66.5 30.0604C66.5 30.0857 66.5 30.1109 66.5 30.1361C66.5 30.1613 66.5 30.1865 66.5 30.2116C66.5 30.2368 66.5 30.2619 66.5 30.2869C66.5 30.312 66.5 30.337 66.5 30.362C66.5 30.387 66.5 30.4119 66.5 30.4368C66.5 30.4617 66.5 30.4866 66.5 30.5114C66.5 30.5362 66.5 30.561 66.5 30.5857C66.5 30.6105 66.5 30.6352 66.5 30.6599C66.5 30.6845 66.5 30.7092 66.5 30.7338C66.5 30.7584 66.5 30.7829 66.5 30.8074C66.5 30.8319 66.5 30.8564 66.5 30.8808C66.5 30.9053 66.5 30.9297 66.5 30.954C66.5 30.9784 66.5 31.0027 66.5 31.027C66.5 31.0512 66.5 31.0755 66.5 31.0997C66.5 31.1239 66.5 31.148 66.5 31.1721C66.5 31.1962 66.5 31.2203 66.5 31.2443C66.5 31.2684 66.5 31.2924 66.5 31.3163C66.5 31.3403 66.5 31.3642 66.5 31.388C66.5 31.4119 66.5 31.4357 66.5 31.4595C66.5 31.4833 66.5 31.507 66.5 31.5307C66.5 31.5544 66.5 31.5781 66.5 31.6017C66.5 31.6253 66.5 31.6489 66.5 31.6724C66.5 31.696 66.5 31.7195 66.5 31.7429C66.5 31.7664 66.5 31.7898 66.5 31.8131C66.5 31.8365 66.5 31.8598 66.5 31.8831C66.5 31.9064 66.5 31.9296 66.5 31.9528C66.5 31.976 66.5 31.9991 66.5 32.0222C66.5 32.0454 66.5 32.0684 66.5 32.0914C66.5 32.1145 66.5 32.1374 66.5 32.1604C66.5 32.1833 66.5 32.2062 66.5 32.229C66.5 32.2519 66.5 32.2747 66.5 32.2974C66.5 32.3202 66.5 32.3429 66.5 32.3656C66.5 32.3882 66.5 32.4109 66.5 32.4334C66.5 32.456 66.5 32.4785 66.5 32.501C66.5 32.5235 66.5 32.546 66.5 32.5684C66.5 32.5908 66.5 32.6131 66.5 32.6354C66.5 32.6577 66.5 32.68 66.5 32.7022C66.5 32.7244 66.5 32.7466 66.5 32.7687C66.5 32.7909 66.5 32.813 66.5 32.835C66.5 32.857 66.5 32.879 66.5 32.901C66.5 32.9229 66.5 32.9448 66.5 32.9667C66.5 32.9885 66.5 33.0103 66.5 33.0321C66.5 33.0538 66.5 33.0755 66.5 33.0972C66.5 33.1189 66.5 33.1405 66.5 33.1621C66.5 33.1836 66.5 33.2052 66.5 33.2266C66.5 33.2481 66.5 33.2695 66.5 33.2909C66.5 33.3123 66.5 33.3336 66.5 33.3549C66.5 33.3762 66.5 33.3975 66.5 33.4186C66.5 33.4398 66.5 33.461 66.5 33.4821C66.5 33.5032 66.5 33.5242 66.5 33.5452C66.5 33.5662 66.5 33.5872 66.5 33.6081C66.5 33.629 66.5 33.6498 66.5 33.6706C66.5 33.6914 66.5 33.7122 66.5 33.7329C66.5 33.7536 66.5 33.7743 66.5 33.7949C66.5 33.8155 66.5 33.836 66.5 33.8565C66.5 33.877 66.5 33.8975 66.5 33.9179C66.5 33.9383 66.5 33.9587 66.5 33.979C66.5 33.9993 66.5 34.0196 66.5 34.0398C66.5 34.06 66.5 34.0802 66.5 34.1003C66.5 34.1204 66.5 34.1404 66.5 34.1604C66.5 34.1805 66.5 34.2004 66.5 34.2203C66.5 34.2402 66.5 34.2601 66.5 34.2799C66.5 34.2997 66.5 34.3194 66.5 34.3392C66.5 34.3589 66.5 34.3785 66.5 34.3981C66.5 34.4177 66.5 34.4373 66.5 34.4568C66.5 34.4763 66.5 34.4957 66.5 34.5151C66.5 34.5345 66.5 34.5538 66.5 34.5731C66.5 34.5924 66.5 34.6116 66.5 34.6308C66.5 34.65 66.5 34.6692 66.5 34.6882C66.5 34.7073 66.5 34.7263 66.5 34.7453C66.5 34.7643 66.5 34.7832 66.5 34.8021C66.5 34.821 66.5 34.8398 66.5 34.8585C66.5 34.8773 66.5 34.896 66.5 34.9147C66.5 34.9333 66.5 34.9519 66.5 34.9705C66.5 34.989 66.5 35.0075 66.5 35.026C66.5 35.0444 66.5 35.0628 66.5 35.0811C66.5 35.0995 66.5 35.1177 66.5 35.136C66.5 35.1542 66.5 35.1724 66.5 35.1905C66.5 35.2086 66.5 35.2266 66.5 35.2447C66.5 35.2627 66.5 35.2806 66.5 35.2985C66.5 35.3164 66.5 35.3342 66.5 35.352C66.5 35.3698 66.5 35.3875 66.5 35.4052C66.5 35.4229 66.5 35.4405 66.5 35.4581C66.5 35.4756 66.5 35.4932 66.5 35.5106C66.5 35.5281 66.5 35.5455 66.5 35.5628C66.5 35.5801 66.5 35.5974 66.5 35.6147C66.5 35.6319 66.5 35.6491 66.5 35.6662C66.5 35.6833 66.5 35.7003 66.5 35.7173C66.5 35.7343 66.5 35.7513 66.5 35.7682C66.5 35.7851 66.5 35.8019 66.5 35.8187C66.5 35.8354 66.5 35.8522 66.5 35.8688C66.5 35.8855 66.5 35.9021 66.5 35.9186C66.5 35.9352 66.5 35.9517 66.5 35.9681C66.5 35.9845 66.5 36.0009 66.5 36.0172C66.5 36.0335 66.5 36.0498 66.5 36.066C66.5 36.0821 66.5 36.0983 66.5 36.1144C66.5 36.1304 66.5 36.1465 66.5 36.1624C66.5 36.1784 66.5 36.1943 66.5 36.2101C66.5 36.226 66.5 36.2418 66.5 36.2575C66.5 36.2732 66.5 36.2889 66.5 36.3045C66.5 36.3201 66.5 36.3356 66.5 36.3511C66.5 36.3666 66.5 36.382 66.5 36.3974C66.5 36.4128 66.5 36.4281 66.5 36.4433C66.5 36.4586 66.5 36.4738 66.5 36.4889C66.5 36.504 66.5 36.5191 66.5 36.5341C66.5 36.5491 66.5 36.564 66.5 36.5789C66.5 36.5938 66.5 36.6086 66.5 36.6234C66.5 36.6382 66.5 36.6529 66.5 36.6675C66.5 36.6821 66.5 36.6967 66.5 36.7112C66.5 36.7258 66.5 36.7402 66.5 36.7546C66.5 36.769 66.5 36.7833 66.5 36.7976C66.5 36.8119 66.5 36.8261 66.5 36.8402C66.5 36.8544 66.5 36.8685 66.5 36.8825C66.5 36.8965 66.5 36.9105 66.5 36.9244C66.5 36.9383 66.5 36.9521 66.5 36.9659C66.5 36.9796 66.5 36.9934 66.5 37.007C66.5 37.0206 66.5 37.0342 66.5 37.0477C66.5 37.0613 66.5 37.0747 66.5 37.0881C66.5 37.1015 66.5 37.1148 66.5 37.1281C66.5 37.1414 66.5 37.1546 66.5 37.1677C66.5 37.1809 66.5 37.1939 66.5 37.2069C66.5 37.2199 66.5 37.2329 66.5 37.2458C66.5 37.2587 66.5 37.2715 66.5 37.2842C66.5 37.297 66.5 37.3097 66.5 37.3223C66.5 37.3349 66.5 37.3475 66.5 37.36C66.5 37.3725 66.5 37.3849 66.5 37.3972C66.5 37.4096 66.5 37.4219 66.5 37.4341C66.5 37.4464 66.5 37.4585 66.5 37.4706C66.5 37.4827 66.5 37.4948 66.5 37.5068C66.5 37.5187 66.5 37.5306 66.5 37.5425C66.5 37.5543 66.5 37.5661 66.5 37.5778C66.5 37.5895 66.5 37.6011 66.5 37.6127C66.5 37.6243 66.5 37.6358 66.5 37.6472C66.5 37.6586 66.5 37.67 66.5 37.6813C66.5 37.6926 66.5 37.7039 66.5 37.715C66.5 37.7262 66.5 37.7373 66.5 37.7483C66.5 37.7594 66.5 37.7704 66.5 37.7813C66.5 37.7922 66.5 37.803 66.5 37.8138C66.5 37.8245 66.5 37.8352 66.5 37.8458C66.5 37.8565 66.5 37.867 66.5 37.8775C66.5 37.888 66.5 37.8984 66.5 37.9088C66.5 37.9192 66.5 37.9294 66.5 37.9397C66.5 37.9499 66.5 37.96 66.5 37.9701C66.5 37.9802 66.5 37.9902 66.5 38.0001C66.5 38.0101 66.5 38.02 66.5 38.0298C66.5 38.0396 66.5 38.0493 66.5 38.059C66.5 38.0686 66.5 38.0782 66.5 38.0877C66.5 38.0973 66.5 38.1067 66.5 38.1161C66.5 38.1255 66.5 38.1348 66.5 38.144C66.5 38.1533 66.5 38.1625 66.5 38.1716C66.5 38.1807 66.5 38.1897 66.5 38.1987C66.5 38.2076 66.5 38.2165 66.5 38.2253C66.5 38.2342 66.5 38.2429 66.5 38.2516C66.5 38.2603 66.5 38.2689 66.5 38.2774C66.5 38.2859 66.5 38.2944 66.5 38.3028C66.5 38.3112 66.5 38.3195 66.5 38.3278C66.5 38.336 66.5 38.3442 66.5 38.3523C66.5 38.3604 66.5 38.3684 66.5 38.3764C66.5 38.3843 66.5 38.3922 66.5 38.4C66.5 38.4078 66.5 38.4156 66.5 38.4233C66.5 38.4309 66.5 38.4385 66.5 38.446C66.5 38.4536 66.5 38.461 66.5 38.4684C66.5 38.4758 66.5 38.4831 66.5 38.4903C66.5 38.4975 66.5 38.5047 66.5 38.5118C66.5 38.5189 66.5 38.5259 66.5 38.5328C66.5 38.5397 66.5 38.5466 66.5 38.5534C66.5 38.5602 66.5 38.5669 66.5 38.5735C66.5 38.5802 66.5 38.5867 66.5 38.5932C66.5 38.5997 66.5 38.6061 66.5 38.6125C66.5 38.6188 66.5 38.6251 66.5 38.6313C66.5 38.6375 66.5 38.6436 66.5 38.6496C66.5 38.6556 66.5 38.6616 66.5 38.6675C66.5 38.6734 66.5 38.6792 66.5 38.6849C66.5 38.6907 66.5 38.6963 66.5 38.7019C66.5 38.7075 66.5 38.713 66.5 38.7185C66.5 38.7239 66.5 38.7293 66.5 38.7345C66.5 38.7398 66.5 38.745 66.5 38.7502C66.5 38.7553 66.5 38.7603 66.5 38.7653C66.5 38.7703 66.5 38.7752 66.5 38.78C66.5 38.7848 66.5 38.7896 66.5 38.7942C66.5 38.7989 66.5 38.8035 66.5 38.808C66.5 38.8125 66.5 38.817 66.5 38.8213C66.5 38.8257 66.5 38.83 66.5 38.8342C66.5 38.8384 66.5 38.8425 66.5 38.8465C66.5 38.8506 66.5 38.8546 66.5 38.8584C66.5 38.8623 66.5 38.8661 66.5 38.8699C66.5 38.8736 66.5 38.8773 66.5 38.8808C66.5 38.8844 66.5 38.8879 66.5 38.8913C66.5 38.8947 66.5 38.8981 66.5 38.9013C66.5 38.9046 66.5 38.9078 66.5 38.9109C66.5 38.914 66.5 38.917 66.5 38.9199C66.5 38.9229 66.5 38.9257 66.5 38.9285C66.5 38.9313 66.5 38.934 66.5 38.9366C66.5 38.9393 66.5 38.9418 66.5 38.9443C66.5 38.9467 66.5 38.9491 66.5 38.9514C66.5 38.9537 66.5 38.9559 66.5 38.9581C66.5 38.9602 66.5 38.9622 66.5 38.9642C66.5 38.9662 66.5 38.9681 66.5 38.9699C66.5 38.9717 66.5 38.9735 66.5 38.9751C66.5 38.9768 66.5 38.9783 66.5 38.9798C66.5 38.9813 66.5 38.9827 66.5 38.984C66.5 38.9854 66.5 38.9866 66.5 38.9878C66.5 38.9889 66.5 38.99 66.5 38.991C66.5 38.992 66.5 38.9929 66.5 38.9938C66.5 38.9946 66.5 38.9953 66.5 38.996C66.5 38.9967 66.5 38.9972 66.5 38.9977C66.5 38.9982 66.5 38.9987 66.5 38.999C66.5 38.9993 66.5 38.9996 66.5 38.9997C66.5 38.9999 66.5 39 68 39ZM68 4.5H90V1.5H68V4.5ZM88.5 3V39H91.5V3H88.5ZM69.5 39V3H66.5V39H69.5Z" fill="black"/>
</g>
<defs>
<filter id="filter0_d_932_1424" x="63.5" y="0.5" width="31" height="46.7773" filterUnits="userSpaceOnUse" color-interpolation-filters="sRGB">
<feFlood flood-opacity="0" result="BackgroundImageFix"/>
<feColorMatrix in="SourceAlpha" type="matrix" values="0 0 0 0 0 0 0 0 0 0 0 0 0 0 0 0 0 0 127 0" result="hardAlpha"/>
<feOffset dy="2"/>
<feGaussianBlur stdDeviation="1.5"/>
<feComposite in2="hardAlpha" operator="out"/>
<feColorMatrix type="matrix" values="0 0 0 0 0 0 0 0 0 0 0 0 0 0 0 0 0 0 0.25 0"/>
<feBlend mode="normal" in2="BackgroundImageFix" result="effect1_dropShadow_932_1424"/>
<feBlend mode="normal" in="SourceGraphic" in2="effect1_dropShadow_932_1424" result="shape"/>
</filter>
<linearGradient id="paint0_linear_932_1424" x1="64" y1="3" x2="64" y2="100.5" gradientUnits="userSpaceOnUse">
<stop offset="0.107112" stop-color="#7BCAB4"/>
<stop offset="0.76838" stop-color="#62C0A5"/>
</linearGradient>
</defs>
</svg>
