<svg width="511" height="105" viewBox="0 0 511 105" fill="none" xmlns="http://www.w3.org/2000/svg">
<mask id="path-1-outside-1_932_1421" maskUnits="userSpaceOnUse" x="133" y="21" width="378" height="65" fill="black">
<rect fill="white" x="133" y="21" width="378" height="65"/>
<path d="M257.475 25.762L267.947 45.1176L278.42 25.762H291.53L275.362 53.2714L291.95 81.238H278.726L267.947 61.5013L257.169 81.238H243.868L260.494 53.2714L244.289 25.762H257.475Z"/>
<path d="M319.742 25.762V81.238H308.313V25.762H319.742Z"/>
<path d="M443.842 52.2045V55.8336C443.842 60.0501 443.268 62.8349 442.122 66.1878C440.975 69.5408 439.357 72.3984 437.268 74.7607C435.178 77.0976 432.681 78.8884 429.777 80.133C426.897 81.3777 423.699 82 420.183 82C416.692 82 413.494 81.3777 410.59 80.133C407.71 78.8884 405.213 77.0976 403.098 74.7607C400.984 72.3984 399.34 69.5408 398.168 66.1878C397.021 62.8349 396.448 60.0501 396.448 55.8336V52.2045C396.448 47.9626 397.021 44.1778 398.168 40.8503C399.315 37.4973 400.933 34.6397 403.022 32.2774C405.137 29.9151 407.634 28.1116 410.513 26.867C413.418 25.6223 416.616 25 420.107 25C423.623 25 426.821 25.6223 429.7 26.867C432.605 28.1116 435.102 29.9151 437.191 32.2774C439.306 34.6397 440.937 37.4973 442.084 40.8503C443.256 44.1778 443.842 47.9626 443.842 52.2045ZM432.261 55.8336V52.1283C432.261 49.1818 431.993 46.5909 431.458 44.3556C430.923 42.1203 430.133 40.2406 429.089 38.7166C428.044 37.1925 426.77 36.0495 425.266 35.2874C423.763 34.5 422.043 34.1063 420.107 34.1063C418.17 34.1063 416.45 34.5 414.947 35.2874C413.469 36.0495 412.208 37.1925 411.163 38.7166C410.144 40.2406 409.367 42.1203 408.832 44.3556C408.296 46.5909 408.029 49.1818 408.029 52.1283V55.8336C408.029 58.7547 408.296 60.3456 408.832 62.6063C409.367 64.8416 410.156 66.734 411.201 68.2834C412.246 69.8075 413.52 70.9632 415.023 71.7507C416.527 72.5381 418.247 72.9318 420.183 72.9318C422.12 72.9318 423.84 72.5381 425.343 71.7507C426.846 70.9632 428.108 69.8075 429.127 68.2834C430.146 66.734 430.923 64.8416 431.458 62.6063C431.993 60.3456 432.261 58.7547 432.261 55.8336Z"/>
<path d="M468.525 25.762L478.997 45.1176L489.47 25.762H502.58L486.412 53.2714L503 81.238H489.776L478.997 61.5013L468.219 81.238H454.918L471.544 53.2714L455.339 25.762H468.525Z"/>
<path d="M226.518 72.3222V81.238H189.176V25.762H226.48V34.7159H200.643V48.3563H222.658V57.0435H200.643V72.3222H226.518Z"/>
<path fill-rule="evenodd" clip-rule="evenodd" d="M340.309 81.238H351.775H361.598C365.904 81.238 369.548 80.6283 372.529 79.4091C375.536 78.1898 377.817 76.3737 379.371 73.9606C380.925 71.5221 381.702 68.5247 381.702 64.9686C381.702 62.7333 381.218 60.6377 380.25 58.6818C379.307 56.7259 377.791 55.1384 375.702 53.9191C374.779 53.3629 373.725 52.9361 372.538 52.6386L374.02 51.9378C376.237 50.7186 377.855 49.1437 378.874 47.2132C379.919 45.2828 380.441 43.1745 380.441 40.8884C380.441 38.2975 379.97 36.0622 379.027 34.1825C378.084 32.2774 376.721 30.7025 374.937 29.4579C373.154 28.2132 370.975 27.2861 368.402 26.6765C365.853 26.0668 362.961 25.762 359.725 25.762H340.309V81.238ZM351.852 56.891H362.095C364.057 56.891 365.637 57.2213 366.834 57.8817C368.032 58.5167 368.898 59.4312 369.433 60.625C369.994 61.8189 370.274 63.2286 370.274 64.8543C370.274 66.3021 369.969 67.5849 369.357 68.7025C368.745 69.8202 367.803 70.7092 366.529 71.3697C365.255 72.0047 363.611 72.3222 361.598 72.3222H351.775L351.852 56.891ZM359.725 49.0421H351.775V34.7159H359.725C361.866 34.7159 363.611 34.9572 364.962 35.4398C366.338 35.9225 367.344 36.6972 367.981 37.764C368.644 38.8309 368.975 40.2279 368.975 41.9552C368.975 43.4793 368.631 44.7747 367.943 45.8416C367.28 46.883 366.274 47.6832 364.923 48.242C363.573 48.7754 361.84 49.0421 359.725 49.0421Z"/>
<path d="M172.775 72.3222V81.238H137V25.762H148.466V72.3222H172.775Z"/>
</mask>
<path d="M257.475 25.762L267.947 45.1176L278.42 25.762H291.53L275.362 53.2714L291.95 81.238H278.726L267.947 61.5013L257.169 81.238H243.868L260.494 53.2714L244.289 25.762H257.475Z" fill="#63C0A5"/>
<path d="M319.742 25.762V81.238H308.313V25.762H319.742Z" fill="#63C0A5"/>
<path d="M443.842 52.2045V55.8336C443.842 60.0501 443.268 62.8349 442.122 66.1878C440.975 69.5408 439.357 72.3984 437.268 74.7607C435.178 77.0976 432.681 78.8884 429.777 80.133C426.897 81.3777 423.699 82 420.183 82C416.692 82 413.494 81.3777 410.59 80.133C407.71 78.8884 405.213 77.0976 403.098 74.7607C400.984 72.3984 399.34 69.5408 398.168 66.1878C397.021 62.8349 396.448 60.0501 396.448 55.8336V52.2045C396.448 47.9626 397.021 44.1778 398.168 40.8503C399.315 37.4973 400.933 34.6397 403.022 32.2774C405.137 29.9151 407.634 28.1116 410.513 26.867C413.418 25.6223 416.616 25 420.107 25C423.623 25 426.821 25.6223 429.7 26.867C432.605 28.1116 435.102 29.9151 437.191 32.2774C439.306 34.6397 440.937 37.4973 442.084 40.8503C443.256 44.1778 443.842 47.9626 443.842 52.2045ZM432.261 55.8336V52.1283C432.261 49.1818 431.993 46.5909 431.458 44.3556C430.923 42.1203 430.133 40.2406 429.089 38.7166C428.044 37.1925 426.77 36.0495 425.266 35.2874C423.763 34.5 422.043 34.1063 420.107 34.1063C418.17 34.1063 416.45 34.5 414.947 35.2874C413.469 36.0495 412.208 37.1925 411.163 38.7166C410.144 40.2406 409.367 42.1203 408.832 44.3556C408.296 46.5909 408.029 49.1818 408.029 52.1283V55.8336C408.029 58.7547 408.296 60.3456 408.832 62.6063C409.367 64.8416 410.156 66.734 411.201 68.2834C412.246 69.8075 413.52 70.9632 415.023 71.7507C416.527 72.5381 418.247 72.9318 420.183 72.9318C422.12 72.9318 423.84 72.5381 425.343 71.7507C426.846 70.9632 428.108 69.8075 429.127 68.2834C430.146 66.734 430.923 64.8416 431.458 62.6063C431.993 60.3456 432.261 58.7547 432.261 55.8336Z" fill="#63C0A5"/>
<path d="M443.842 52.2045V55.8336C443.842 60.0501 443.268 62.8349 442.122 66.1878C440.975 69.5408 439.357 72.3984 437.268 74.7607C435.178 77.0976 432.681 78.8884 429.777 80.133C426.897 81.3777 423.699 82 420.183 82C416.692 82 413.494 81.3777 410.59 80.133C407.71 78.8884 405.213 77.0976 403.098 74.7607C400.984 72.3984 399.34 69.5408 398.168 66.1878C397.021 62.8349 396.448 60.0501 396.448 55.8336V52.2045C396.448 47.9626 397.021 44.1778 398.168 40.8503C399.315 37.4973 400.933 34.6397 403.022 32.2774C405.137 29.9151 407.634 28.1116 410.513 26.867C413.418 25.6223 416.616 25 420.107 25C423.623 25 426.821 25.6223 429.7 26.867C432.605 28.1116 435.102 29.9151 437.191 32.2774C439.306 34.6397 440.937 37.4973 442.084 40.8503C443.256 44.1778 443.842 47.9626 443.842 52.2045ZM432.261 55.8336V52.1283C432.261 49.1818 431.993 46.5909 431.458 44.3556C430.923 42.1203 430.133 40.2406 429.089 38.7166C428.044 37.1925 426.77 36.0495 425.266 35.2874C423.763 34.5 422.043 34.1063 420.107 34.1063C418.17 34.1063 416.45 34.5 414.947 35.2874C413.469 36.0495 412.208 37.1925 411.163 38.7166C410.144 40.2406 409.367 42.1203 408.832 44.3556C408.296 46.5909 408.029 49.1818 408.029 52.1283V55.8336C408.029 58.7547 408.296 60.3456 408.832 62.6063C409.367 64.8416 410.156 66.734 411.201 68.2834C412.246 69.8075 413.52 70.9632 415.023 71.7507C416.527 72.5381 418.247 72.9318 420.183 72.9318C422.12 72.9318 423.84 72.5381 425.343 71.7507C426.846 70.9632 428.108 69.8075 429.127 68.2834C430.146 66.734 430.923 64.8416 431.458 62.6063C431.993 60.3456 432.261 58.7547 432.261 55.8336Z" fill="#FFA63C"/>
<path d="M468.525 25.762L478.997 45.1176L489.47 25.762H502.58L486.412 53.2714L503 81.238H489.776L478.997 61.5013L468.219 81.238H454.918L471.544 53.2714L455.339 25.762H468.525Z" fill="#63C0A5"/>
<path d="M468.525 25.762L478.997 45.1176L489.47 25.762H502.58L486.412 53.2714L503 81.238H489.776L478.997 61.5013L468.219 81.238H454.918L471.544 53.2714L455.339 25.762H468.525Z" fill="#FFA63C"/>
<path d="M226.518 72.3222V81.238H189.176V25.762H226.48V34.7159H200.643V48.3563H222.658V57.0435H200.643V72.3222H226.518Z" fill="#63C0A5"/>
<path fill-rule="evenodd" clip-rule="evenodd" d="M340.309 81.238H351.775H361.598C365.904 81.238 369.548 80.6283 372.529 79.4091C375.536 78.1898 377.817 76.3737 379.371 73.9606C380.925 71.5221 381.702 68.5247 381.702 64.9686C381.702 62.7333 381.218 60.6377 380.25 58.6818C379.307 56.7259 377.791 55.1384 375.702 53.9191C374.779 53.3629 373.725 52.9361 372.538 52.6386L374.02 51.9378C376.237 50.7186 377.855 49.1437 378.874 47.2132C379.919 45.2828 380.441 43.1745 380.441 40.8884C380.441 38.2975 379.97 36.0622 379.027 34.1825C378.084 32.2774 376.721 30.7025 374.937 29.4579C373.154 28.2132 370.975 27.2861 368.402 26.6765C365.853 26.0668 362.961 25.762 359.725 25.762H340.309V81.238ZM351.852 56.891H362.095C364.057 56.891 365.637 57.2213 366.834 57.8817C368.032 58.5167 368.898 59.4312 369.433 60.625C369.994 61.8189 370.274 63.2286 370.274 64.8543C370.274 66.3021 369.969 67.5849 369.357 68.7025C368.745 69.8202 367.803 70.7092 366.529 71.3697C365.255 72.0047 363.611 72.3222 361.598 72.3222H351.775L351.852 56.891ZM359.725 49.0421H351.775V34.7159H359.725C361.866 34.7159 363.611 34.9572 364.962 35.4398C366.338 35.9225 367.344 36.6972 367.981 37.764C368.644 38.8309 368.975 40.2279 368.975 41.9552C368.975 43.4793 368.631 44.7747 367.943 45.8416C367.28 46.883 366.274 47.6832 364.923 48.242C363.573 48.7754 361.84 49.0421 359.725 49.0421Z" fill="#63C0A5"/>
<path fill-rule="evenodd" clip-rule="evenodd" d="M340.309 81.238H351.775H361.598C365.904 81.238 369.548 80.6283 372.529 79.4091C375.536 78.1898 377.817 76.3737 379.371 73.9606C380.925 71.5221 381.702 68.5247 381.702 64.9686C381.702 62.7333 381.218 60.6377 380.25 58.6818C379.307 56.7259 377.791 55.1384 375.702 53.9191C374.779 53.3629 373.725 52.9361 372.538 52.6386L374.02 51.9378C376.237 50.7186 377.855 49.1437 378.874 47.2132C379.919 45.2828 380.441 43.1745 380.441 40.8884C380.441 38.2975 379.97 36.0622 379.027 34.1825C378.084 32.2774 376.721 30.7025 374.937 29.4579C373.154 28.2132 370.975 27.2861 368.402 26.6765C365.853 26.0668 362.961 25.762 359.725 25.762H340.309V81.238ZM351.852 56.891H362.095C364.057 56.891 365.637 57.2213 366.834 57.8817C368.032 58.5167 368.898 59.4312 369.433 60.625C369.994 61.8189 370.274 63.2286 370.274 64.8543C370.274 66.3021 369.969 67.5849 369.357 68.7025C368.745 69.8202 367.803 70.7092 366.529 71.3697C365.255 72.0047 363.611 72.3222 361.598 72.3222H351.775L351.852 56.891ZM359.725 49.0421H351.775V34.7159H359.725C361.866 34.7159 363.611 34.9572 364.962 35.4398C366.338 35.9225 367.344 36.6972 367.981 37.764C368.644 38.8309 368.975 40.2279 368.975 41.9552C368.975 43.4793 368.631 44.7747 367.943 45.8416C367.28 46.883 366.274 47.6832 364.923 48.242C363.573 48.7754 361.84 49.0421 359.725 49.0421Z" fill="#FFA63C"/>
<path d="M172.775 72.3222V81.238H137V25.762H148.466V72.3222H172.775Z" fill="#63C0A5"/>
<path d="M373.048 50.1901C372.663 50.4041 372.247 50.6015 371.797 50.7809L373.279 54.4962C373.878 54.2574 374.449 53.9877 374.992 53.6855L373.048 50.1901ZM172.775 72.3222H176.775V68.3222H172.775V72.3222ZM172.775 81.238V85.238H176.775V81.238H172.775ZM137 81.238H133V85.238H137V81.238ZM148.466 72.3222H144.466V76.3222H148.466V72.3222ZM148.466 25.762H152.466V21.762H148.466V25.762ZM137 25.762V21.762H133V25.762H137ZM226.518 72.3222H230.518V68.3222H226.518V72.3222ZM226.518 81.238V85.238H230.518V81.238H226.518ZM189.176 81.238H185.176V85.238H189.176V81.238ZM200.643 72.3222H196.643V76.3222H200.643V72.3222ZM189.176 25.762V21.762H185.176V25.762H189.176ZM222.658 48.3563H226.658V44.3563H222.658V48.3563ZM222.658 57.0435V61.0435H226.658V57.0435H222.658ZM200.643 57.0435V53.0435H196.643V57.0435H200.643ZM200.643 48.3563H196.643V52.3563H200.643V48.3563ZM226.48 25.762H230.48V21.762H226.48V25.762ZM226.48 34.7159V38.7159H230.48V34.7159H226.48ZM200.643 34.7159V30.7159H196.643V34.7159H200.643ZM257.475 25.762L260.993 23.8586L259.859 21.762H257.475V25.762ZM267.947 45.1176L264.429 47.0211L267.947 53.5233L271.465 47.0211L267.947 45.1176ZM278.42 25.762V21.762H276.036L274.902 23.8586L278.42 25.762ZM291.53 25.762L294.978 27.7888L298.52 21.762H291.53V25.762ZM275.362 53.2714L271.914 51.2447L270.717 53.2807L271.922 55.312L275.362 53.2714ZM291.95 81.238V85.238H298.973L295.39 79.1974L291.95 81.238ZM278.726 81.238L275.215 83.1551L276.353 85.238H278.726V81.238ZM267.947 61.5013L271.458 59.5842L267.947 53.1557L264.437 59.5842L267.947 61.5013ZM257.169 81.238V85.238H259.542L260.68 83.1551L257.169 81.238ZM243.868 81.238L240.43 79.1939L236.837 85.238H243.868V81.238ZM260.494 53.2714L263.933 55.3154L265.142 53.2807L263.941 51.2411L260.494 53.2714ZM244.289 25.762V21.762H237.29L240.842 27.7923L244.289 25.762ZM319.742 25.762H323.742V21.762H319.742V25.762ZM319.742 81.238V85.238H323.742V81.238H319.742ZM308.313 81.238H304.313V85.238H308.313V81.238ZM308.313 25.762V21.762H304.313V25.762H308.313ZM351.852 56.891V52.891H347.872L347.852 56.8712L351.852 56.891ZM351.775 49.0421H347.775V53.0421H351.775V49.0421ZM364.923 48.242L366.393 51.9623L366.423 51.9504L366.453 51.938L364.923 48.242ZM367.943 45.8416L364.581 43.6738L364.575 43.6842L364.568 43.6946L367.943 45.8416ZM367.981 37.764L364.547 39.8147L364.565 39.8446L364.583 39.8742L367.981 37.764ZM364.962 35.4398L363.616 39.2065L363.627 39.2105L363.638 39.2144L364.962 35.4398ZM351.775 34.7159V30.7159H347.775V34.7159H351.775ZM340.309 81.238H336.309V85.238H340.309V81.238ZM340.309 25.762V21.762H336.309V25.762H340.309ZM368.402 26.6765L367.471 30.5667L367.479 30.5688L368.402 26.6765ZM379.027 34.1825L375.442 35.9566L375.447 35.9662L375.451 35.9758L379.027 34.1825ZM378.874 47.2132L375.356 45.3095L375.346 45.3275L375.337 45.3457L378.874 47.2132ZM374.02 51.9378L375.73 55.554L375.84 55.5017L375.948 55.4427L374.02 51.9378ZM351.775 72.3222L347.775 72.3024L347.756 76.3222H351.775V72.3222ZM366.529 71.3697L368.313 74.9496L368.341 74.9355L368.37 74.9209L366.529 71.3697ZM369.433 60.625L365.783 62.261L365.798 62.2932L365.813 62.3251L369.433 60.625ZM366.834 57.8817L364.903 61.3844L364.932 61.4002L364.961 61.4156L366.834 57.8817ZM375.702 53.9191L373.636 57.3445L373.661 57.3594L373.686 57.3739L375.702 53.9191ZM380.25 58.6818L376.647 60.4187L376.656 60.4376L376.665 60.4565L380.25 58.6818ZM379.371 73.9606L382.734 76.1266L382.739 76.1186L382.744 76.1106L379.371 73.9606ZM372.529 79.4091L371.026 75.7023L371.015 75.7068L372.529 79.4091ZM437.268 74.7607L440.25 77.4268L440.257 77.4188L440.264 77.4108L437.268 74.7607ZM429.777 80.133L428.201 76.4563L428.189 76.4614L429.777 80.133ZM410.59 80.133L409.002 83.8047L409.014 83.8097L410.59 80.133ZM403.098 74.7607L400.118 77.4288L400.125 77.4368L400.133 77.4447L403.098 74.7607ZM398.168 66.1878L394.383 67.4821L394.387 67.495L394.392 67.5078L398.168 66.1878ZM398.168 40.8503L401.95 42.1534L401.953 42.1446L398.168 40.8503ZM403.022 32.2774L400.042 29.6094L400.034 29.6183L400.026 29.6273L403.022 32.2774ZM410.513 26.867L408.938 23.1903L408.926 23.1953L410.513 26.867ZM429.7 26.867L428.113 30.5386L428.125 30.5437L429.7 26.867ZM437.191 32.2774L434.195 34.9275L434.203 34.9365L434.211 34.9455L437.191 32.2774ZM442.084 40.8503L438.299 42.1446L438.305 42.1619L438.311 42.1792L442.084 40.8503ZM425.266 35.2874L423.41 38.8308L423.434 38.8432L423.458 38.8553L425.266 35.2874ZM414.947 35.2874L416.78 38.8426L416.791 38.8368L416.803 38.8308L414.947 35.2874ZM411.163 38.7166L407.864 36.455L407.851 36.4739L407.838 36.493L411.163 38.7166ZM408.832 62.6063L404.939 63.5276L404.941 63.5375L408.832 62.6063ZM411.201 68.2834L407.885 70.5196L407.893 70.5323L407.902 70.545L411.201 68.2834ZM429.127 68.2834L432.452 70.507L432.46 70.4944L432.469 70.4816L429.127 68.2834ZM431.458 62.6063L435.348 63.5375L435.351 63.5276L431.458 62.6063ZM468.525 25.762L472.043 23.8586L470.909 21.762H468.525V25.762ZM478.997 45.1176L475.479 47.0211L478.997 53.5233L482.515 47.0211L478.997 45.1176ZM489.47 25.762V21.762H487.086L485.952 23.8586L489.47 25.762ZM502.58 25.762L506.028 27.7888L509.57 21.762H502.58V25.762ZM486.412 53.2714L482.964 51.2447L481.767 53.2807L482.972 55.312L486.412 53.2714ZM503 81.238V85.238H510.023L506.44 79.1974L503 81.238ZM489.776 81.238L486.265 83.1551L487.402 85.238H489.776V81.238ZM478.997 61.5013L482.508 59.5842L478.997 53.1557L475.487 59.5842L478.997 61.5013ZM468.219 81.238V85.238H470.592L471.73 83.1551L468.219 81.238ZM454.918 81.238L451.48 79.1939L447.887 85.238H454.918V81.238ZM471.544 53.2714L474.983 55.3154L476.192 53.2807L474.991 51.2411L471.544 53.2714ZM455.339 25.762V21.762H448.34L451.892 27.7923L455.339 25.762ZM372.538 52.6386L370.828 49.0224L360.722 53.8006L371.565 56.5185L372.538 52.6386ZM168.775 72.3222V81.238H176.775V72.3222H168.775ZM172.775 77.238H137V85.238H172.775V77.238ZM148.466 76.3222H172.775V68.3222H148.466V76.3222ZM141 81.238V25.762H133V81.238H141ZM137 29.762H148.466V21.762H137V29.762ZM222.518 72.3222V81.238H230.518V72.3222H222.518ZM226.518 77.238H189.176V85.238H226.518V77.238ZM200.643 76.3222H226.518V68.3222H200.643V76.3222ZM193.176 81.238V25.762H185.176V81.238H193.176ZM218.658 48.3563V57.0435H226.658V48.3563H218.658ZM222.658 53.0435H200.643V61.0435H222.658V53.0435ZM200.643 52.3563H222.658V44.3563H200.643V52.3563ZM222.48 25.762V34.7159H230.48V25.762H222.48ZM226.48 30.7159H200.643V38.7159H226.48V30.7159ZM189.176 29.762H226.48V21.762H189.176V29.762ZM253.957 27.6655L264.429 47.0211L271.465 43.2142L260.993 23.8586L253.957 27.6655ZM271.465 47.0211L281.938 27.6655L274.902 23.8586L264.429 43.2142L271.465 47.0211ZM278.42 29.762H291.53V21.762H278.42V29.762ZM288.081 23.7353L271.914 51.2447L278.811 55.2981L294.978 27.7888L288.081 23.7353ZM271.922 55.312L288.51 83.2785L295.39 79.1974L278.803 51.2308L271.922 55.312ZM291.95 77.238H278.726V85.238H291.95V77.238ZM282.236 79.3208L271.458 59.5842L264.437 63.4185L275.215 83.1551L282.236 79.3208ZM264.437 59.5842L253.658 79.3208L260.68 83.1551L271.458 63.4185L264.437 59.5842ZM257.169 77.238H243.868V85.238H257.169V77.238ZM247.307 83.282L263.933 55.3154L257.056 51.2273L240.43 79.1939L247.307 83.282ZM263.941 51.2411L247.735 23.7318L240.842 27.7923L257.048 55.3017L263.941 51.2411ZM244.289 29.762H257.475V21.762H244.289V29.762ZM315.742 25.762V81.238H323.742V25.762H315.742ZM319.742 77.238H308.313V85.238H319.742V77.238ZM312.313 81.238V25.762H304.313V81.238H312.313ZM308.313 29.762H319.742V21.762H308.313V29.762ZM362.095 52.891H351.852V60.891H362.095V52.891ZM351.775 53.0421H359.725V45.0421H351.775V53.0421ZM359.725 53.0421C362.134 53.0421 364.413 52.7445 366.393 51.9623L363.454 44.5217C362.733 44.8063 361.547 45.0421 359.725 45.0421V53.0421ZM366.453 51.938C368.42 51.1241 370.137 49.8441 371.318 47.9885L364.568 43.6946C364.423 43.922 364.128 44.2422 363.394 44.5459L366.453 51.938ZM371.304 48.0094C372.486 46.1766 372.975 44.0922 372.975 41.9552H364.975C364.975 42.8663 364.775 43.3728 364.581 43.6738L371.304 48.0094ZM372.975 41.9552C372.975 39.7517 372.556 37.5497 371.379 35.6539L364.583 39.8742C364.731 40.1121 364.975 40.7042 364.975 41.9552H372.975ZM371.415 35.7134C370.218 33.7074 368.384 32.4014 366.286 31.6653L363.638 39.2144C364.291 39.4435 364.47 39.6869 364.547 39.8147L371.415 35.7134ZM366.308 31.6731C364.368 30.98 362.121 30.7159 359.725 30.7159V38.7159C361.611 38.7159 362.854 38.9345 363.616 39.2065L366.308 31.6731ZM359.725 30.7159H351.775V38.7159H359.725V30.7159ZM351.775 77.238H340.309V85.238H351.775V77.238ZM344.309 81.238V25.762H336.309V81.238H344.309ZM340.309 29.762H359.725V21.762H340.309V29.762ZM359.725 29.762C362.718 29.762 365.289 30.0447 367.471 30.5667L369.332 22.7863C366.418 22.089 363.205 21.762 359.725 21.762V29.762ZM367.479 30.5688C369.666 31.0867 371.356 31.8367 372.648 32.7382L377.226 26.1776C374.951 24.5898 372.284 23.4855 369.324 22.7842L367.479 30.5688ZM372.648 32.7382C373.893 33.6071 374.805 34.6691 375.442 35.9566L382.612 32.4083C381.364 29.8858 379.548 27.798 377.226 26.1776L372.648 32.7382ZM375.451 35.9758C376.058 37.1846 376.441 38.7783 376.441 40.8884H384.441C384.441 37.8166 383.882 34.9397 382.602 32.3892L375.451 35.9758ZM376.441 40.8884C376.441 42.5383 376.071 43.9883 375.356 45.3095L382.392 49.117C383.766 46.5772 384.441 43.8107 384.441 40.8884H376.441ZM375.337 45.3457C374.738 46.4803 373.736 47.5291 372.092 48.433L375.948 55.4427C378.738 53.908 380.972 51.8072 382.411 49.0808L375.337 45.3457ZM361.598 77.238H351.775V85.238H361.598V77.238ZM351.775 76.3222H361.598V68.3222H351.775V76.3222ZM361.598 76.3222C363.99 76.3222 366.304 75.951 368.313 74.9496L364.744 67.7897C364.205 68.0583 363.232 68.3222 361.598 68.3222V76.3222ZM368.37 74.9209C370.257 73.9424 371.826 72.5236 372.866 70.6226L365.848 66.7825C365.665 67.1167 365.348 67.476 364.688 67.8184L368.37 74.9209ZM372.866 70.6226C373.842 68.8399 374.274 66.8804 374.274 64.8543H366.274C366.274 65.7239 366.096 66.3299 365.848 66.7825L372.866 70.6226ZM374.274 64.8543C374.274 62.7745 373.916 60.7596 373.054 58.9249L365.813 62.3251C366.072 62.8781 366.274 63.6827 366.274 64.8543H374.274ZM373.084 58.989C372.17 56.9513 370.662 55.3838 368.708 54.3478L364.961 61.4156C365.402 61.6496 365.626 61.911 365.783 62.261L373.084 58.989ZM368.766 54.379C366.775 53.2811 364.457 52.891 362.095 52.891V60.891C363.657 60.891 364.498 61.1614 364.903 61.3844L368.766 54.379ZM373.686 57.3739C375.168 58.2391 376.089 59.2615 376.647 60.4187L383.853 56.945C382.525 54.1904 380.414 52.0376 377.718 50.4643L373.686 57.3739ZM376.665 60.4565C377.354 61.847 377.702 63.3335 377.702 64.9686H385.702C385.702 62.1331 385.083 59.4284 383.835 56.9072L376.665 60.4565ZM377.702 64.9686C377.702 67.9384 377.058 70.1479 375.998 71.8106L382.744 76.1106C384.793 72.8963 385.702 69.111 385.702 64.9686H377.702ZM376.008 71.7945C374.957 73.4264 373.373 74.7508 371.026 75.7023L374.033 83.1159C377.7 81.6289 380.676 79.3209 382.734 76.1266L376.008 71.7945ZM371.015 75.7068C368.647 76.6754 365.55 77.238 361.598 77.238V85.238C366.259 85.238 370.449 84.5813 374.044 83.1114L371.015 75.7068ZM439.842 52.2045V55.8336H447.842V52.2045H439.842ZM439.842 55.8336C439.842 59.5674 439.356 61.9151 438.337 64.8935L445.907 67.4821C447.181 63.7547 447.842 60.5329 447.842 55.8336H439.842ZM438.337 64.8935C437.34 67.8085 435.971 70.1898 434.272 72.1106L440.264 77.4108C442.744 74.607 444.61 71.273 445.907 67.4821L438.337 64.8935ZM434.286 72.0946C432.589 73.9923 430.573 75.4398 428.201 76.4563L431.352 83.8097C434.789 82.3369 437.768 80.2029 440.25 77.4268L434.286 72.0946ZM428.189 76.4614C425.868 77.4646 423.22 78 420.183 78V86C424.179 86 427.926 85.2907 431.364 83.8047L428.189 76.4614ZM420.183 78C417.177 78 414.522 77.4663 412.165 76.4563L409.014 83.8097C412.467 85.289 416.208 86 420.183 86V78ZM412.177 76.4614C409.825 75.4447 407.797 73.9917 406.064 72.0767L400.133 77.4447C402.629 80.2035 405.596 82.332 409.003 83.8047L412.177 76.4614ZM406.079 72.0926C404.355 70.1675 402.963 67.7832 401.944 64.8679L394.392 67.5078C395.717 71.2984 397.612 74.6293 400.118 77.4288L406.079 72.0926ZM401.953 64.8935C400.934 61.9151 400.448 59.5673 400.448 55.8336H392.448C392.448 60.5329 393.108 63.7547 394.383 67.4821L401.953 64.8935ZM400.448 55.8336V52.2045H392.448V55.8336H400.448ZM400.448 52.2045C400.448 48.3179 400.974 44.9857 401.95 42.1534L394.386 39.5471C393.069 43.3699 392.448 47.6073 392.448 52.2045H400.448ZM401.953 42.1446C402.95 39.2295 404.319 36.8483 406.018 34.9275L400.026 29.6273C397.546 32.4311 395.679 35.7651 394.383 39.556L401.953 42.1446ZM406.002 34.9455C407.735 33.0098 409.758 31.551 412.1 30.5386L408.926 23.1953C405.509 24.6723 402.539 26.8204 400.042 29.6094L406.002 34.9455ZM412.089 30.5437C414.446 29.5337 417.101 29 420.107 29V21C416.131 21 412.39 21.711 408.938 23.1903L412.089 30.5437ZM420.107 29C423.143 29 425.792 29.5354 428.113 30.5386L431.287 23.1953C427.85 21.7093 424.103 21 420.107 21V29ZM428.125 30.5437C430.487 31.5559 432.498 33.0092 434.195 34.9275L440.188 29.6273C437.705 26.821 434.723 24.6674 431.275 23.1903L428.125 30.5437ZM434.211 34.9455C435.929 36.8639 437.305 39.2391 438.299 42.1446L445.868 39.556C444.569 35.7555 442.684 32.4155 440.172 29.6094L434.211 34.9455ZM438.311 42.1792C439.306 45.0033 439.842 48.3263 439.842 52.2045H447.842C447.842 47.5988 447.206 43.3523 445.856 39.5213L438.311 42.1792ZM436.261 55.8336V52.1283H428.261V55.8336H436.261ZM436.261 52.1283C436.261 48.9513 435.974 46.0362 435.348 43.4244L427.568 45.2868C428.013 47.1457 428.261 49.4123 428.261 52.1283H436.261ZM435.348 43.4244C434.726 40.8251 433.767 38.4677 432.388 36.455L425.789 40.9781C426.499 42.0136 427.12 43.4155 427.568 45.2868L435.348 43.4244ZM432.388 36.455C431.001 34.4319 429.233 32.8137 427.075 31.7196L423.458 38.8553C424.306 39.2853 425.087 39.9531 425.789 40.9781L432.388 36.455ZM427.122 31.7441C424.97 30.6167 422.598 30.1063 420.107 30.1063V38.1063C421.489 38.1063 422.556 38.3833 423.41 38.8308L427.122 31.7441ZM420.107 30.1063C417.616 30.1063 415.243 30.6167 413.091 31.7441L416.803 38.8308C417.657 38.3833 418.725 38.1063 420.107 38.1063V30.1063ZM413.114 31.7322C410.984 32.8301 409.24 34.4469 407.864 36.455L414.462 40.9781C415.175 39.9381 415.954 39.2688 416.78 38.8426L413.114 31.7322ZM407.838 36.493C406.498 38.4966 405.56 40.8404 404.941 43.4244L412.722 45.2868C413.173 43.4002 413.789 41.9846 414.488 40.9402L407.838 36.493ZM404.941 43.4244C404.316 46.0362 404.029 48.9513 404.029 52.1283H412.029C412.029 49.4123 412.277 47.1457 412.722 45.2868L404.941 43.4244ZM404.029 52.1283V55.8336H412.029V52.1283H404.029ZM404.029 55.8336C404.029 59.1215 404.347 61.0255 404.939 63.5276L412.724 61.685C412.246 59.6657 412.029 58.3879 412.029 55.8336H404.029ZM404.941 63.5375C405.563 66.1351 406.519 68.4934 407.885 70.5196L414.518 66.0473C413.794 64.9745 413.17 63.548 412.722 61.6751L404.941 63.5375ZM407.902 70.545C409.282 72.5588 411.035 74.1772 413.167 75.294L416.879 68.2073C416.005 67.7493 415.209 67.0561 414.5 66.0219L407.902 70.545ZM413.167 75.294C415.32 76.4214 417.692 76.9318 420.183 76.9318V68.9318C418.801 68.9318 417.734 68.6548 416.879 68.2073L413.167 75.294ZM420.183 76.9318C422.674 76.9318 425.047 76.4214 427.199 75.294L423.487 68.2073C422.633 68.6548 421.565 68.9318 420.183 68.9318V76.9318ZM427.199 75.294C429.342 74.1717 431.092 72.541 432.452 70.507L425.802 66.0598C425.124 67.074 424.351 67.7547 423.487 68.2073L427.199 75.294ZM432.469 70.4816C433.795 68.4646 434.73 66.1199 435.348 63.5375L427.568 61.6751C427.116 63.5633 426.497 65.0033 425.785 66.0852L432.469 70.4816ZM435.351 63.5276C435.943 61.0255 436.261 59.1215 436.261 55.8336H428.261C428.261 58.3879 428.044 59.6657 427.566 61.685L435.351 63.5276ZM465.007 27.6655L475.479 47.0211L482.515 43.2142L472.043 23.8586L465.007 27.6655ZM482.515 47.0211L492.988 27.6655L485.952 23.8586L475.479 43.2142L482.515 47.0211ZM489.47 29.762H502.58V21.762H489.47V29.762ZM499.131 23.7353L482.964 51.2447L489.861 55.2981L506.028 27.7888L499.131 23.7353ZM482.972 55.312L499.56 83.2786L506.44 79.1974L489.852 51.2308L482.972 55.312ZM503 77.238H489.776V85.238H503V77.238ZM493.286 79.3208L482.508 59.5842L475.487 63.4185L486.265 83.1551L493.286 79.3208ZM475.487 59.5842L464.708 79.3208L471.73 83.1551L482.508 63.4185L475.487 59.5842ZM468.219 77.238H454.918V85.238H468.219V77.238ZM458.356 83.282L474.983 55.3154L468.106 51.2273L451.48 79.1939L458.356 83.282ZM474.991 51.2411L458.785 23.7318L451.892 27.7923L468.098 55.3017L474.991 51.2411ZM455.339 29.762H468.525V21.762H455.339V29.762ZM144.466 25.762V72.3222H152.466V25.762H144.466ZM196.643 34.7159V48.3563H204.643V34.7159H196.643ZM196.643 57.0435V72.3222H204.643V57.0435H196.643ZM355.775 72.342L355.852 56.9109L347.852 56.8712L347.775 72.3024L355.775 72.342ZM347.775 34.7159V49.0421H355.775V34.7159H347.775ZM371.565 56.5185C372.419 56.7325 373.096 57.0189 373.636 57.3445L377.767 50.4938C376.463 49.707 375.031 49.1397 373.51 48.7586L371.565 56.5185ZM372.31 48.3217L370.828 49.0224L374.248 56.2547L375.73 55.554L372.31 48.3217Z" fill="black" mask="url(#path-1-outside-1_932_1421)"/>
<path fill-rule="evenodd" clip-rule="evenodd" d="M27.4464 3C20.6871 3 14.7627 7.52081 12.9784 14.0404L3 50.5H16V62.5H43.5C43 73 40 79.5 29 79.5C27.3549 79.5808 22.4865 79.5441 19.0367 79.518C17.7438 79.5083 16.6501 79.5 16 79.5V88C16 96.2843 22.7157 103 31 103H95C103.284 103 110 96.2843 110 88V18C110 9.71573 103.284 3 95 3H27.4464ZM43.364 35.636C45.0518 37.3239 46 39.6131 46 42H37H28C28 39.613 28.9482 37.3239 30.636 35.636C32.3239 33.9482 34.6131 33 37 33C39.3869 33 41.6761 33.9482 43.364 35.636Z" fill="url(#paint0_linear_932_1421)"/>
<path d="M12.9784 14.0404L14.9075 14.5683L14.9075 14.5683L12.9784 14.0404ZM3 50.5L1.07094 49.972L0.379081 52.5H3V50.5ZM16 50.5H18V48.5H16V50.5ZM16 62.5H14V64.5H16V62.5ZM43.5 62.5L45.4977 62.5951L45.5975 60.5H43.5V62.5ZM29 79.5V77.5H28.9509L28.9018 77.5024L29 79.5ZM19.0367 79.518L19.0216 81.518L19.0216 81.518L19.0367 79.518ZM16 79.5V77.5H14V79.5H16ZM46 42V44H48V42H46ZM43.364 35.636L41.9497 37.0503L41.9497 37.0503L43.364 35.636ZM28 42H26V44H28V42ZM30.636 35.636L32.0503 37.0503L32.0503 37.0503L30.636 35.636ZM14.9075 14.5683C16.4539 8.91803 21.5883 5 27.4464 5V1C19.7858 1 13.0716 6.12358 11.0494 13.5124L14.9075 14.5683ZM4.92906 51.028L14.9075 14.5683L11.0494 13.5124L1.07094 49.972L4.92906 51.028ZM16 48.5H3V52.5H16V48.5ZM18 62.5V50.5H14V62.5H18ZM43.5 60.5H16V64.5H43.5V60.5ZM29 81.5C34.92 81.5 39.1159 79.7252 41.7916 76.132C44.3535 72.6918 45.2439 67.9264 45.4977 62.5951L41.5023 62.4049C41.2561 67.5736 40.3965 71.3082 38.5834 73.743C36.8841 76.0248 34.08 77.5 29 77.5V81.5ZM19.0216 81.518C22.4276 81.5437 27.3794 81.582 29.0982 81.4976L28.9018 77.5024C27.3303 77.5796 22.5455 77.5445 19.0518 77.5181L19.0216 81.518ZM16 81.5C16.6405 81.5 17.7244 81.5082 19.0216 81.518L19.0518 77.5181C17.7631 77.5084 16.6597 77.5 16 77.5V81.5ZM18 88V79.5H14V88H18ZM31 101C23.8203 101 18 95.1797 18 88H14C14 97.3888 21.6112 105 31 105V101ZM95 101H31V105H95V101ZM108 88C108 95.1797 102.18 101 95 101V105C104.389 105 112 97.3888 112 88H108ZM108 18V88H112V18H108ZM95 5C102.18 5 108 10.8203 108 18H112C112 8.61116 104.389 1 95 1V5ZM27.4464 5H95V1H27.4464V5ZM48 42C48 39.0826 46.8411 36.2847 44.7782 34.2218L41.9497 37.0503C43.2625 38.363 44 40.1435 44 42H48ZM37 44H46V40H37V44ZM28 44H37V40H28V44ZM29.2218 34.2218C27.1589 36.2847 26 39.0826 26 42H30C30 40.1435 30.7375 38.363 32.0503 37.0503L29.2218 34.2218ZM37 31C34.0826 31 31.2847 32.1589 29.2218 34.2218L32.0503 37.0503C33.363 35.7375 35.1435 35 37 35V31ZM44.7782 34.2218C42.7153 32.1589 39.9174 31 37 31V35C38.8565 35 40.637 35.7375 41.9497 37.0503L44.7782 34.2218Z" fill="black"/>
<g filter="url(#filter0_d_932_1421)">
<path d="M91 3V39L80 29.5L69 39V3H91Z" fill="#FFA63C"/>
<path d="M91 3H93V1H91V3ZM91 39L89.6928 40.5136L93 43.3699V39H91ZM80 29.5L81.3072 27.9864L80 26.8574L78.6928 27.9864L80 29.5ZM69 39H67V43.3699L70.3072 40.5136L69 39ZM69 3V1H67V3H69ZM89 3C89 3.02746 89 3.05495 89 3.08247C89 3.10998 89 3.13753 89 3.16511C89 3.19269 89 3.2203 89 3.24793C89 3.27557 89 3.30324 89 3.33093C89 3.35863 89 3.38635 89 3.41411C89 3.44186 89 3.46965 89 3.49746C89 3.52527 89 3.55311 89 3.58098C89 3.60885 89 3.63674 89 3.66467C89 3.69259 89 3.72055 89 3.74853C89 3.77651 89 3.80452 89 3.83256C89 3.8606 89 3.88866 89 3.91676C89 3.94485 89 3.97297 89 4.00112C89 4.02927 89 4.05744 89 4.08565C89 4.11385 89 4.14208 89 4.17034C89 4.19859 89 4.22688 89 4.25519C89 4.2835 89 4.31184 89 4.3402C89 4.36857 89 4.39696 89 4.42537C89 4.45379 89 4.48223 89 4.5107C89 4.53917 89 4.56767 89 4.59619C89 4.62471 89 4.65326 89 4.68183C89 4.7104 89 4.739 89 4.76762C89 4.79625 89 4.8249 89 4.85357C89 4.88224 89 4.91094 89 4.93967C89 4.96839 89 4.99714 89 5.02592C89 5.05469 89 5.08349 89 5.11231C89 5.14114 89 5.16998 89 5.19886C89 5.22773 89 5.25662 89 5.28554C89 5.31446 89 5.34341 89 5.37238C89 5.40135 89 5.43034 89 5.45935C89 5.48837 89 5.51741 89 5.54647C89 5.57553 89 5.60462 89 5.63373C89 5.66284 89 5.69197 89 5.72113C89 5.75028 89 5.77946 89 5.80866C89 5.83786 89 5.86709 89 5.89634C89 5.92558 89 5.95485 89 5.98414C89 6.01343 89 6.04275 89 6.07208C89 6.10142 89 6.13078 89 6.16016C89 6.18954 89 6.21894 89 6.24836C89 6.27778 89 6.30723 89 6.33669C89 6.36616 89 6.39565 89 6.42516C89 6.45466 89 6.48419 89 6.51375C89 6.5433 89 6.57287 89 6.60246C89 6.63205 89 6.66167 89 6.6913C89 6.72093 89 6.75059 89 6.78026C89 6.80994 89 6.83963 89 6.86935C89 6.89906 89 6.9288 89 6.95855C89 6.98831 89 7.01808 89 7.04788C89 7.07767 89 7.10748 89 7.13732C89 7.16715 89 7.197 89 7.22688C89 7.25675 89 7.28664 89 7.31655C89 7.34646 89 7.37639 89 7.40634C89 7.43628 89 7.46625 89 7.49624C89 7.52622 89 7.55622 89 7.58625C89 7.61627 89 7.64631 89 7.67637C89 7.70642 89 7.7365 89 7.76659C89 7.79669 89 7.8268 89 7.85693C89 7.88706 89 7.91721 89 7.94737C89 7.97754 89 8.00772 89 8.03792C89 8.06812 89 8.09833 89 8.12857C89 8.1588 89 8.18905 89 8.21932C89 8.24958 89 8.27987 89 8.31017C89 8.34047 89 8.37078 89 8.40112C89 8.43145 89 8.4618 89 8.49217C89 8.52253 89 8.55291 89 8.58331C89 8.61371 89 8.64412 89 8.67455C89 8.70498 89 8.73542 89 8.76588C89 8.79634 89 8.82682 89 8.85731C89 8.8878 89 8.9183 89 8.94882C89 8.97935 89 9.00988 89 9.04043C89 9.07098 89 9.10155 89 9.13213C89 9.16271 89 9.1933 89 9.22391C89 9.25452 89 9.28514 89 9.31578C89 9.34641 89 9.37706 89 9.40773C89 9.43839 89 9.46907 89 9.49976C89 9.53045 89 9.56116 89 9.59188C89 9.6226 89 9.65333 89 9.68408C89 9.71482 89 9.74558 89 9.77635C89 9.80713 89 9.83791 89 9.86871C89 9.89951 89 9.93032 89 9.96114C89 9.99196 89 10.0228 89 10.0536C89 10.0845 89 10.1154 89 10.1462C89 10.1771 89 10.208 89 10.2389C89 10.2698 89 10.3007 89 10.3316C89 10.3625 89 10.3934 89 10.4244C89 10.4553 89 10.4863 89 10.5173C89 10.5482 89 10.5792 89 10.6102C89 10.6412 89 10.6722 89 10.7032C89 10.7342 89 10.7652 89 10.7962C89 10.8273 89 10.8583 89 10.8894C89 10.9204 89 10.9515 89 10.9825C89 11.0136 89 11.0447 89 11.0758C89 11.1069 89 11.138 89 11.1691C89 11.2002 89 11.2313 89 11.2624C89 11.2936 89 11.3247 89 11.3559C89 11.387 89 11.4182 89 11.4493C89 11.4805 89 11.5117 89 11.5429C89 11.574 89 11.6052 89 11.6364C89 11.6676 89 11.6988 89 11.7301C89 11.7613 89 11.7925 89 11.8237C89 11.855 89 11.8862 89 11.9175C89 11.9487 89 11.98 89 12.0112C89 12.0425 89 12.0738 89 12.1051C89 12.1363 89 12.1676 89 12.1989C89 12.2302 89 12.2615 89 12.2928C89 12.3241 89 12.3555 89 12.3868C89 12.4181 89 12.4494 89 12.4808C89 12.5121 89 12.5435 89 12.5748C89 12.6062 89 12.6375 89 12.6689C89 12.7002 89 12.7316 89 12.763C89 12.7944 89 12.8257 89 12.8571C89 12.8885 89 12.9199 89 12.9513C89 12.9827 89 13.0141 89 13.0455C89 13.0769 89 13.1083 89 13.1397C89 13.1711 89 13.2026 89 13.234C89 13.2654 89 13.2969 89 13.3283C89 13.3597 89 13.3912 89 13.4226C89 13.4541 89 13.4855 89 13.517C89 13.5484 89 13.5799 89 13.6113C89 13.6428 89 13.6743 89 13.7057C89 13.7372 89 13.7687 89 13.8001C89 13.8316 89 13.8631 89 13.8946C89 13.9261 89 13.9575 89 13.989C89 14.0205 89 14.052 89 14.0835C89 14.115 89 14.1465 89 14.178C89 14.2095 89 14.241 89 14.2725C89 14.304 89 14.3355 89 14.367C89 14.3985 89 14.43 89 14.4615C89 14.4931 89 14.5246 89 14.5561C89 14.5876 89 14.6191 89 14.6506C89 14.6822 89 14.7137 89 14.7452C89 14.7767 89 14.8082 89 14.8398C89 14.8713 89 14.9028 89 14.9343C89 14.9659 89 14.9974 89 15.0289C89 15.0604 89 15.092 89 15.1235C89 15.155 89 15.1866 89 15.2181C89 15.2496 89 15.2811 89 15.3127C89 15.3442 89 15.3757 89 15.4072C89 15.4388 89 15.4703 89 15.5018C89 15.5334 89 15.5649 89 15.5964C89 15.6279 89 15.6594 89 15.691C89 15.7225 89 15.754 89 15.7855C89 15.8171 89 15.8486 89 15.8801C89 15.9116 89 15.9431 89 15.9746C89 16.0062 89 16.0377 89 16.0692C89 16.1007 89 16.1322 89 16.1637C89 16.1952 89 16.2267 89 16.2582C89 16.2897 89 16.3212 89 16.3527C89 16.3842 89 16.4157 89 16.4472C89 16.4787 89 16.5102 89 16.5417C89 16.5732 89 16.6046 89 16.6361C89 16.6676 89 16.6991 89 16.7305C89 16.762 89 16.7935 89 16.825C89 16.8564 89 16.8879 89 16.9193C89 16.9508 89 16.9823 89 17.0137C89 17.0452 89 17.0766 89 17.108C89 17.1395 89 17.1709 89 17.2024C89 17.2338 89 17.2652 89 17.2966C89 17.3281 89 17.3595 89 17.3909C89 17.4223 89 17.4537 89 17.4851C89 17.5165 89 17.5479 89 17.5793C89 17.6107 89 17.6421 89 17.6735C89 17.7049 89 17.7362 89 17.7676C89 17.799 89 17.8303 89 17.8617C89 17.893 89 17.9244 89 17.9557C89 17.9871 89 18.0184 89 18.0498C89 18.0811 89 18.1124 89 18.1437C89 18.1751 89 18.2064 89 18.2377C89 18.269 89 18.3003 89 18.3316C89 18.3628 89 18.3941 89 18.4254C89 18.4567 89 18.488 89 18.5192C89 18.5505 89 18.5817 89 18.613C89 18.6442 89 18.6755 89 18.7067C89 18.7379 89 18.7691 89 18.8003C89 18.8316 89 18.8628 89 18.894C89 18.9251 89 18.9563 89 18.9875C89 19.0187 89 19.0499 89 19.081C89 19.1122 89 19.1433 89 19.1745C89 19.2056 89 19.2367 89 19.2679C89 19.299 89 19.3301 89 19.3612C89 19.3923 89 19.4234 89 19.4545C89 19.4856 89 19.5166 89 19.5477C89 19.5788 89 19.6098 89 19.6409C89 19.6719 89 19.7029 89 19.734C89 19.765 89 19.796 89 19.827C89 19.858 89 19.889 89 19.92C89 19.951 89 19.9819 89 20.0129C89 20.0438 89 20.0748 89 20.1057C89 20.1367 89 20.1676 89 20.1985C89 20.2294 89 20.2603 89 20.2912C89 20.3221 89 20.3529 89 20.3838C89 20.4147 89 20.4455 89 20.4764C89 20.5072 89 20.538 89 20.5688C89 20.5997 89 20.6305 89 20.6612C89 20.692 89 20.7228 89 20.7536C89 20.7843 89 20.8151 89 20.8458C89 20.8766 89 20.9073 89 20.938C89 20.9687 89 20.9994 89 21.0301C89 21.0608 89 21.0914 89 21.1221C89 21.1527 89 21.1834 89 21.214C89 21.2446 89 21.2752 89 21.3058C89 21.3364 89 21.367 89 21.3976C89 21.4282 89 21.4587 89 21.4893C89 21.5198 89 21.5503 89 21.5808C89 21.6113 89 21.6418 89 21.6723C89 21.7028 89 21.7333 89 21.7637C89 21.7942 89 21.8246 89 21.855C89 21.8854 89 21.9158 89 21.9462C89 21.9766 89 22.007 89 22.0373C89 22.0677 89 22.098 89 22.1283C89 22.1587 89 22.189 89 22.2192C89 22.2495 89 22.2798 89 22.3101C89 22.3403 89 22.3706 89 22.4008C89 22.431 89 22.4612 89 22.4914C89 22.5216 89 22.5517 89 22.5819C89 22.612 89 22.6422 89 22.6723C89 22.7024 89 22.7325 89 22.7626C89 22.7927 89 22.8227 89 22.8528C89 22.8828 89 22.9129 89 22.9429C89 22.9729 89 23.0029 89 23.0328C89 23.0628 89 23.0928 89 23.1227C89 23.1526 89 23.1825 89 23.2124C89 23.2423 89 23.2722 89 23.3021C89 23.3319 89 23.3618 89 23.3916C89 23.4214 89 23.4512 89 23.481C89 23.5108 89 23.5405 89 23.5703C89 23.6 89 23.6297 89 23.6594C89 23.6891 89 23.7188 89 23.7485C89 23.7781 89 23.8078 89 23.8374C89 23.867 89 23.8966 89 23.9262C89 23.9558 89 23.9853 89 24.0149C89 24.0444 89 24.0739 89 24.1034C89 24.1329 89 24.1624 89 24.1918C89 24.2213 89 24.2507 89 24.2801C89 24.3095 89 24.3389 89 24.3683C89 24.3976 89 24.427 89 24.4563C89 24.4856 89 24.5149 89 24.5442C89 24.5735 89 24.6027 89 24.6319C89 24.6612 89 24.6904 89 24.7196C89 24.7488 89 24.7779 89 24.8071C89 24.8362 89 24.8653 89 24.8944C89 24.9235 89 24.9526 89 24.9816C89 25.0107 89 25.0397 89 25.0687C89 25.0977 89 25.1266 89 25.1556C89 25.1846 89 25.2135 89 25.2424C89 25.2713 89 25.3002 89 25.329C89 25.3579 89 25.3867 89 25.4155C89 25.4443 89 25.4731 89 25.5019C89 25.5306 89 25.5593 89 25.588C89 25.6168 89 25.6454 89 25.6741C89 25.7027 89 25.7314 89 25.76C89 25.7886 89 25.8172 89 25.8457C89 25.8743 89 25.9028 89 25.9313C89 25.9598 89 25.9883 89 26.0167C89 26.0452 89 26.0736 89 26.102C89 26.1304 89 26.1588 89 26.1871C89 26.2155 89 26.2438 89 26.2721C89 26.3004 89 26.3286 89 26.3569C89 26.3851 89 26.4133 89 26.4415C89 26.4697 89 26.4978 89 26.526C89 26.5541 89 26.5822 89 26.6103C89 26.6383 89 26.6664 89 26.6944C89 26.7224 89 26.7504 89 26.7784C89 26.8063 89 26.8343 89 26.8622C89 26.8901 89 26.918 89 26.9458C89 26.9737 89 27.0015 89 27.0293C89 27.0571 89 27.0848 89 27.1126C89 27.1403 89 27.168 89 27.1957C89 27.2233 89 27.251 89 27.2786C89 27.3062 89 27.3338 89 27.3614C89 27.3889 89 27.4164 89 27.4439C89 27.4714 89 27.4989 89 27.5263C89 27.5538 89 27.5812 89 27.6086C89 27.6359 89 27.6633 89 27.6906C89 27.7179 89 27.7452 89 27.7725C89 27.7997 89 27.8269 89 27.8541C89 27.8813 89 27.9085 89 27.9356C89 27.9627 89 27.9898 89 28.0169C89 28.044 89 28.071 89 28.098C89 28.125 89 28.152 89 28.1789C89 28.2059 89 28.2328 89 28.2597C89 28.2865 89 28.3134 89 28.3402C89 28.367 89 28.3938 89 28.4205C89 28.4473 89 28.474 89 28.5007C89 28.5274 89 28.554 89 28.5806C89 28.6072 89 28.6338 89 28.6604C89 28.6869 89 28.7134 89 28.7399C89 28.7664 89 28.7929 89 28.8193C89 28.8457 89 28.8721 89 28.8984C89 28.9248 89 28.9511 89 28.9774C89 29.0036 89 29.0299 89 29.0561C89 29.0823 89 29.1085 89 29.1346C89 29.1608 89 29.1869 89 29.2129C89 29.239 89 29.2651 89 29.2911C89 29.3171 89 29.343 89 29.369C89 29.3949 89 29.4208 89 29.4467C89 29.4725 89 29.4983 89 29.5241C89 29.5499 89 29.5757 89 29.6014C89 29.6271 89 29.6528 89 29.6784C89 29.7041 89 29.7297 89 29.7553C89 29.7809 89 29.8064 89 29.8319C89 29.8574 89 29.8829 89 29.9083C89 29.9337 89 29.9591 89 29.9845C89 30.0098 89 30.0351 89 30.0604C89 30.0857 89 30.1109 89 30.1361C89 30.1613 89 30.1865 89 30.2116C89 30.2368 89 30.2619 89 30.2869C89 30.312 89 30.337 89 30.362C89 30.387 89 30.4119 89 30.4368C89 30.4617 89 30.4866 89 30.5114C89 30.5362 89 30.561 89 30.5857C89 30.6105 89 30.6352 89 30.6599C89 30.6845 89 30.7092 89 30.7338C89 30.7584 89 30.7829 89 30.8074C89 30.8319 89 30.8564 89 30.8808C89 30.9053 89 30.9297 89 30.954C89 30.9784 89 31.0027 89 31.027C89 31.0512 89 31.0755 89 31.0997C89 31.1239 89 31.148 89 31.1721C89 31.1962 89 31.2203 89 31.2443C89 31.2684 89 31.2924 89 31.3163C89 31.3403 89 31.3642 89 31.388C89 31.4119 89 31.4357 89 31.4595C89 31.4833 89 31.507 89 31.5307C89 31.5544 89 31.5781 89 31.6017C89 31.6253 89 31.6489 89 31.6724C89 31.696 89 31.7195 89 31.7429C89 31.7664 89 31.7898 89 31.8131C89 31.8365 89 31.8598 89 31.8831C89 31.9064 89 31.9296 89 31.9528C89 31.976 89 31.9991 89 32.0222C89 32.0454 89 32.0684 89 32.0914C89 32.1145 89 32.1374 89 32.1604C89 32.1833 89 32.2062 89 32.229C89 32.2519 89 32.2747 89 32.2974C89 32.3202 89 32.3429 89 32.3656C89 32.3882 89 32.4109 89 32.4334C89 32.456 89 32.4785 89 32.501C89 32.5235 89 32.546 89 32.5684C89 32.5908 89 32.6131 89 32.6354C89 32.6577 89 32.68 89 32.7022C89 32.7244 89 32.7466 89 32.7687C89 32.7909 89 32.813 89 32.835C89 32.857 89 32.879 89 32.901C89 32.9229 89 32.9448 89 32.9667C89 32.9885 89 33.0103 89 33.0321C89 33.0538 89 33.0755 89 33.0972C89 33.1189 89 33.1405 89 33.1621C89 33.1836 89 33.2052 89 33.2266C89 33.2481 89 33.2695 89 33.2909C89 33.3123 89 33.3336 89 33.3549C89 33.3762 89 33.3975 89 33.4186C89 33.4398 89 33.461 89 33.4821C89 33.5032 89 33.5242 89 33.5452C89 33.5662 89 33.5872 89 33.6081C89 33.629 89 33.6498 89 33.6706C89 33.6914 89 33.7122 89 33.7329C89 33.7536 89 33.7743 89 33.7949C89 33.8155 89 33.836 89 33.8565C89 33.877 89 33.8975 89 33.9179C89 33.9383 89 33.9587 89 33.979C89 33.9993 89 34.0196 89 34.0398C89 34.06 89 34.0802 89 34.1003C89 34.1204 89 34.1404 89 34.1604C89 34.1805 89 34.2004 89 34.2203C89 34.2402 89 34.2601 89 34.2799C89 34.2997 89 34.3194 89 34.3392C89 34.3589 89 34.3785 89 34.3981C89 34.4177 89 34.4373 89 34.4568C89 34.4763 89 34.4957 89 34.5151C89 34.5345 89 34.5538 89 34.5731C89 34.5924 89 34.6116 89 34.6308C89 34.65 89 34.6692 89 34.6882C89 34.7073 89 34.7263 89 34.7453C89 34.7643 89 34.7832 89 34.8021C89 34.821 89 34.8398 89 34.8585C89 34.8773 89 34.896 89 34.9147C89 34.9333 89 34.9519 89 34.9705C89 34.989 89 35.0075 89 35.026C89 35.0444 89 35.0628 89 35.0811C89 35.0995 89 35.1177 89 35.136C89 35.1542 89 35.1724 89 35.1905C89 35.2086 89 35.2266 89 35.2447C89 35.2627 89 35.2806 89 35.2985C89 35.3164 89 35.3342 89 35.352C89 35.3698 89 35.3875 89 35.4052C89 35.4229 89 35.4405 89 35.4581C89 35.4756 89 35.4932 89 35.5106C89 35.5281 89 35.5455 89 35.5628C89 35.5801 89 35.5974 89 35.6147C89 35.6319 89 35.6491 89 35.6662C89 35.6833 89 35.7003 89 35.7173C89 35.7343 89 35.7513 89 35.7682C89 35.7851 89 35.8019 89 35.8187C89 35.8354 89 35.8522 89 35.8688C89 35.8855 89 35.9021 89 35.9186C89 35.9352 89 35.9517 89 35.9681C89 35.9845 89 36.0009 89 36.0172C89 36.0335 89 36.0498 89 36.066C89 36.0821 89 36.0983 89 36.1144C89 36.1304 89 36.1465 89 36.1624C89 36.1784 89 36.1943 89 36.2101C89 36.226 89 36.2418 89 36.2575C89 36.2732 89 36.2889 89 36.3045C89 36.3201 89 36.3356 89 36.3511C89 36.3666 89 36.382 89 36.3974C89 36.4128 89 36.4281 89 36.4433C89 36.4586 89 36.4738 89 36.4889C89 36.504 89 36.5191 89 36.5341C89 36.5491 89 36.564 89 36.5789C89 36.5938 89 36.6086 89 36.6234C89 36.6382 89 36.6529 89 36.6675C89 36.6821 89 36.6967 89 36.7112C89 36.7258 89 36.7402 89 36.7546C89 36.769 89 36.7833 89 36.7976C89 36.8119 89 36.8261 89 36.8402C89 36.8544 89 36.8685 89 36.8825C89 36.8965 89 36.9105 89 36.9244C89 36.9383 89 36.9521 89 36.9659C89 36.9796 89 36.9934 89 37.007C89 37.0206 89 37.0342 89 37.0477C89 37.0613 89 37.0747 89 37.0881C89 37.1015 89 37.1148 89 37.1281C89 37.1414 89 37.1546 89 37.1677C89 37.1809 89 37.1939 89 37.2069C89 37.2199 89 37.2329 89 37.2458C89 37.2587 89 37.2715 89 37.2842C89 37.297 89 37.3097 89 37.3223C89 37.3349 89 37.3475 89 37.36C89 37.3725 89 37.3849 89 37.3972C89 37.4096 89 37.4219 89 37.4341C89 37.4464 89 37.4585 89 37.4706C89 37.4827 89 37.4948 89 37.5068C89 37.5187 89 37.5306 89 37.5425C89 37.5543 89 37.5661 89 37.5778C89 37.5895 89 37.6011 89 37.6127C89 37.6243 89 37.6358 89 37.6472C89 37.6586 89 37.67 89 37.6813C89 37.6926 89 37.7039 89 37.715C89 37.7262 89 37.7373 89 37.7483C89 37.7594 89 37.7704 89 37.7813C89 37.7922 89 37.803 89 37.8138C89 37.8245 89 37.8352 89 37.8458C89 37.8565 89 37.867 89 37.8775C89 37.888 89 37.8984 89 37.9088C89 37.9192 89 37.9294 89 37.9397C89 37.9499 89 37.96 89 37.9701C89 37.9802 89 37.9902 89 38.0001C89 38.0101 89 38.02 89 38.0298C89 38.0396 89 38.0493 89 38.059C89 38.0686 89 38.0782 89 38.0877C89 38.0973 89 38.1067 89 38.1161C89 38.1255 89 38.1348 89 38.144C89 38.1533 89 38.1625 89 38.1716C89 38.1807 89 38.1897 89 38.1987C89 38.2076 89 38.2165 89 38.2253C89 38.2342 89 38.2429 89 38.2516C89 38.2603 89 38.2689 89 38.2774C89 38.2859 89 38.2944 89 38.3028C89 38.3112 89 38.3195 89 38.3278C89 38.336 89 38.3442 89 38.3523C89 38.3604 89 38.3684 89 38.3764C89 38.3843 89 38.3922 89 38.4C89 38.4078 89 38.4156 89 38.4233C89 38.4309 89 38.4385 89 38.446C89 38.4536 89 38.461 89 38.4684C89 38.4758 89 38.4831 89 38.4903C89 38.4975 89 38.5047 89 38.5118C89 38.5189 89 38.5259 89 38.5328C89 38.5397 89 38.5466 89 38.5534C89 38.5602 89 38.5669 89 38.5735C89 38.5802 89 38.5867 89 38.5932C89 38.5997 89 38.6061 89 38.6125C89 38.6188 89 38.6251 89 38.6313C89 38.6375 89 38.6436 89 38.6496C89 38.6556 89 38.6616 89 38.6675C89 38.6734 89 38.6792 89 38.6849C89 38.6907 89 38.6963 89 38.7019C89 38.7075 89 38.713 89 38.7185C89 38.7239 89 38.7293 89 38.7345C89 38.7398 89 38.745 89 38.7502C89 38.7553 89 38.7603 89 38.7653C89 38.7703 89 38.7752 89 38.78C89 38.7848 89 38.7896 89 38.7942C89 38.7989 89 38.8035 89 38.808C89 38.8125 89 38.817 89 38.8213C89 38.8257 89 38.83 89 38.8342C89 38.8384 89 38.8425 89 38.8465C89 38.8506 89 38.8546 89 38.8584C89 38.8623 89 38.8661 89 38.8699C89 38.8736 89 38.8773 89 38.8808C89 38.8844 89 38.8879 89 38.8913C89 38.8947 89 38.8981 89 38.9013C89 38.9046 89 38.9078 89 38.9109C89 38.914 89 38.917 89 38.9199C89 38.9229 89 38.9257 89 38.9285C89 38.9313 89 38.934 89 38.9366C89 38.9393 89 38.9418 89 38.9443C89 38.9467 89 38.9491 89 38.9514C89 38.9537 89 38.9559 89 38.9581C89 38.9602 89 38.9622 89 38.9642C89 38.9662 89 38.9681 89 38.9699C89 38.9717 89 38.9735 89 38.9751C89 38.9768 89 38.9783 89 38.9798C89 38.9813 89 38.9827 89 38.984C89 38.9854 89 38.9866 89 38.9878C89 38.9889 89 38.99 89 38.991C89 38.992 89 38.9929 89 38.9938C89 38.9946 89 38.9953 89 38.996C89 38.9967 89 38.9972 89 38.9977C89 38.9982 89 38.9987 89 38.999C89 38.9993 89 38.9996 89 38.9997C89 38.9999 89 39 91 39C93 39 93 38.9999 93 38.9997C93 38.9996 93 38.9993 93 38.999C93 38.9987 93 38.9982 93 38.9977C93 38.9972 93 38.9967 93 38.996C93 38.9953 93 38.9946 93 38.9938C93 38.9929 93 38.992 93 38.991C93 38.99 93 38.9889 93 38.9878C93 38.9866 93 38.9854 93 38.984C93 38.9827 93 38.9813 93 38.9798C93 38.9783 93 38.9768 93 38.9751C93 38.9735 93 38.9717 93 38.9699C93 38.9681 93 38.9662 93 38.9642C93 38.9622 93 38.9602 93 38.9581C93 38.9559 93 38.9537 93 38.9514C93 38.9491 93 38.9467 93 38.9443C93 38.9418 93 38.9393 93 38.9366C93 38.934 93 38.9313 93 38.9285C93 38.9257 93 38.9229 93 38.9199C93 38.917 93 38.914 93 38.9109C93 38.9078 93 38.9046 93 38.9013C93 38.8981 93 38.8947 93 38.8913C93 38.8879 93 38.8844 93 38.8808C93 38.8773 93 38.8736 93 38.8699C93 38.8661 93 38.8623 93 38.8584C93 38.8546 93 38.8506 93 38.8465C93 38.8425 93 38.8384 93 38.8342C93 38.83 93 38.8257 93 38.8213C93 38.817 93 38.8125 93 38.808C93 38.8035 93 38.7989 93 38.7942C93 38.7896 93 38.7848 93 38.78C93 38.7752 93 38.7703 93 38.7653C93 38.7603 93 38.7553 93 38.7502C93 38.745 93 38.7398 93 38.7345C93 38.7293 93 38.7239 93 38.7185C93 38.713 93 38.7075 93 38.7019C93 38.6963 93 38.6907 93 38.6849C93 38.6792 93 38.6734 93 38.6675C93 38.6616 93 38.6556 93 38.6496C93 38.6436 93 38.6375 93 38.6313C93 38.6251 93 38.6188 93 38.6125C93 38.6061 93 38.5997 93 38.5932C93 38.5867 93 38.5802 93 38.5735C93 38.5669 93 38.5602 93 38.5534C93 38.5466 93 38.5397 93 38.5328C93 38.5259 93 38.5189 93 38.5118C93 38.5047 93 38.4975 93 38.4903C93 38.4831 93 38.4758 93 38.4684C93 38.461 93 38.4536 93 38.446C93 38.4385 93 38.4309 93 38.4233C93 38.4156 93 38.4078 93 38.4C93 38.3922 93 38.3843 93 38.3764C93 38.3684 93 38.3604 93 38.3523C93 38.3442 93 38.336 93 38.3278C93 38.3195 93 38.3112 93 38.3028C93 38.2944 93 38.2859 93 38.2774C93 38.2689 93 38.2603 93 38.2516C93 38.2429 93 38.2342 93 38.2253C93 38.2165 93 38.2076 93 38.1987C93 38.1897 93 38.1807 93 38.1716C93 38.1625 93 38.1533 93 38.144C93 38.1348 93 38.1255 93 38.1161C93 38.1067 93 38.0973 93 38.0877C93 38.0782 93 38.0686 93 38.059C93 38.0493 93 38.0396 93 38.0298C93 38.02 93 38.0101 93 38.0001C93 37.9902 93 37.9802 93 37.9701C93 37.96 93 37.9499 93 37.9397C93 37.9294 93 37.9192 93 37.9088C93 37.8984 93 37.888 93 37.8775C93 37.867 93 37.8565 93 37.8458C93 37.8352 93 37.8245 93 37.8138C93 37.803 93 37.7922 93 37.7813C93 37.7704 93 37.7594 93 37.7483C93 37.7373 93 37.7262 93 37.715C93 37.7039 93 37.6926 93 37.6813C93 37.67 93 37.6586 93 37.6472C93 37.6358 93 37.6243 93 37.6127C93 37.6011 93 37.5895 93 37.5778C93 37.5661 93 37.5543 93 37.5425C93 37.5306 93 37.5187 93 37.5068C93 37.4948 93 37.4827 93 37.4706C93 37.4585 93 37.4464 93 37.4341C93 37.4219 93 37.4096 93 37.3972C93 37.3849 93 37.3725 93 37.36C93 37.3475 93 37.3349 93 37.3223C93 37.3097 93 37.297 93 37.2842C93 37.2715 93 37.2587 93 37.2458C93 37.2329 93 37.2199 93 37.2069C93 37.1939 93 37.1809 93 37.1677C93 37.1546 93 37.1414 93 37.1281C93 37.1148 93 37.1015 93 37.0881C93 37.0747 93 37.0613 93 37.0477C93 37.0342 93 37.0206 93 37.007C93 36.9934 93 36.9796 93 36.9659C93 36.9521 93 36.9383 93 36.9244C93 36.9105 93 36.8965 93 36.8825C93 36.8685 93 36.8544 93 36.8402C93 36.8261 93 36.8119 93 36.7976C93 36.7833 93 36.769 93 36.7546C93 36.7402 93 36.7258 93 36.7112C93 36.6967 93 36.6821 93 36.6675C93 36.6529 93 36.6382 93 36.6234C93 36.6086 93 36.5938 93 36.5789C93 36.564 93 36.5491 93 36.5341C93 36.5191 93 36.504 93 36.4889C93 36.4738 93 36.4586 93 36.4433C93 36.4281 93 36.4128 93 36.3974C93 36.382 93 36.3666 93 36.3511C93 36.3356 93 36.3201 93 36.3045C93 36.2889 93 36.2732 93 36.2575C93 36.2418 93 36.226 93 36.2101C93 36.1943 93 36.1784 93 36.1624C93 36.1465 93 36.1304 93 36.1144C93 36.0983 93 36.0821 93 36.066C93 36.0498 93 36.0335 93 36.0172C93 36.0009 93 35.9845 93 35.9681C93 35.9517 93 35.9352 93 35.9186C93 35.9021 93 35.8855 93 35.8688C93 35.8522 93 35.8354 93 35.8187C93 35.8019 93 35.7851 93 35.7682C93 35.7513 93 35.7343 93 35.7173C93 35.7003 93 35.6833 93 35.6662C93 35.6491 93 35.6319 93 35.6147C93 35.5974 93 35.5801 93 35.5628C93 35.5455 93 35.5281 93 35.5106C93 35.4932 93 35.4756 93 35.4581C93 35.4405 93 35.4229 93 35.4052C93 35.3875 93 35.3698 93 35.352C93 35.3342 93 35.3164 93 35.2985C93 35.2806 93 35.2627 93 35.2447C93 35.2266 93 35.2086 93 35.1905C93 35.1724 93 35.1542 93 35.136C93 35.1177 93 35.0995 93 35.0811C93 35.0628 93 35.0444 93 35.026C93 35.0075 93 34.989 93 34.9705C93 34.9519 93 34.9333 93 34.9147C93 34.896 93 34.8773 93 34.8585C93 34.8398 93 34.821 93 34.8021C93 34.7832 93 34.7643 93 34.7453C93 34.7263 93 34.7073 93 34.6882C93 34.6692 93 34.65 93 34.6308C93 34.6116 93 34.5924 93 34.5731C93 34.5538 93 34.5345 93 34.5151C93 34.4957 93 34.4763 93 34.4568C93 34.4373 93 34.4177 93 34.3981C93 34.3785 93 34.3589 93 34.3392C93 34.3194 93 34.2997 93 34.2799C93 34.2601 93 34.2402 93 34.2203C93 34.2004 93 34.1805 93 34.1604C93 34.1404 93 34.1204 93 34.1003C93 34.0802 93 34.06 93 34.0398C93 34.0196 93 33.9993 93 33.979C93 33.9587 93 33.9383 93 33.9179C93 33.8975 93 33.877 93 33.8565C93 33.836 93 33.8155 93 33.7949C93 33.7743 93 33.7536 93 33.7329C93 33.7122 93 33.6914 93 33.6706C93 33.6498 93 33.629 93 33.6081C93 33.5872 93 33.5662 93 33.5452C93 33.5242 93 33.5032 93 33.4821C93 33.461 93 33.4398 93 33.4186C93 33.3975 93 33.3762 93 33.3549C93 33.3336 93 33.3123 93 33.2909C93 33.2695 93 33.2481 93 33.2266C93 33.2052 93 33.1836 93 33.1621C93 33.1405 93 33.1189 93 33.0972C93 33.0755 93 33.0538 93 33.0321C93 33.0103 93 32.9885 93 32.9667C93 32.9448 93 32.9229 93 32.901C93 32.879 93 32.857 93 32.835C93 32.813 93 32.7909 93 32.7687C93 32.7466 93 32.7244 93 32.7022C93 32.68 93 32.6577 93 32.6354C93 32.6131 93 32.5908 93 32.5684C93 32.546 93 32.5235 93 32.501C93 32.4785 93 32.456 93 32.4334C93 32.4109 93 32.3882 93 32.3656C93 32.3429 93 32.3202 93 32.2974C93 32.2747 93 32.2519 93 32.229C93 32.2062 93 32.1833 93 32.1604C93 32.1374 93 32.1145 93 32.0914C93 32.0684 93 32.0454 93 32.0222C93 31.9991 93 31.976 93 31.9528C93 31.9296 93 31.9064 93 31.8831C93 31.8598 93 31.8365 93 31.8131C93 31.7898 93 31.7664 93 31.7429C93 31.7195 93 31.696 93 31.6724C93 31.6489 93 31.6253 93 31.6017C93 31.5781 93 31.5544 93 31.5307C93 31.507 93 31.4833 93 31.4595C93 31.4357 93 31.4119 93 31.388C93 31.3642 93 31.3403 93 31.3163C93 31.2924 93 31.2684 93 31.2443C93 31.2203 93 31.1962 93 31.1721C93 31.148 93 31.1239 93 31.0997C93 31.0755 93 31.0512 93 31.027C93 31.0027 93 30.9784 93 30.954C93 30.9297 93 30.9053 93 30.8808C93 30.8564 93 30.8319 93 30.8074C93 30.7829 93 30.7584 93 30.7338C93 30.7092 93 30.6845 93 30.6599C93 30.6352 93 30.6105 93 30.5857C93 30.561 93 30.5362 93 30.5114C93 30.4866 93 30.4617 93 30.4368C93 30.4119 93 30.387 93 30.362C93 30.337 93 30.312 93 30.2869C93 30.2619 93 30.2368 93 30.2116C93 30.1865 93 30.1613 93 30.1361C93 30.1109 93 30.0857 93 30.0604C93 30.0351 93 30.0098 93 29.9845C93 29.9591 93 29.9337 93 29.9083C93 29.8829 93 29.8574 93 29.8319C93 29.8064 93 29.7809 93 29.7553C93 29.7297 93 29.7041 93 29.6784C93 29.6528 93 29.6271 93 29.6014C93 29.5757 93 29.5499 93 29.5241C93 29.4983 93 29.4725 93 29.4467C93 29.4208 93 29.3949 93 29.369C93 29.343 93 29.3171 93 29.2911C93 29.2651 93 29.239 93 29.2129C93 29.1869 93 29.1608 93 29.1346C93 29.1085 93 29.0823 93 29.0561C93 29.0299 93 29.0036 93 28.9774C93 28.9511 93 28.9248 93 28.8984C93 28.8721 93 28.8457 93 28.8193C93 28.7929 93 28.7664 93 28.7399C93 28.7134 93 28.6869 93 28.6604C93 28.6338 93 28.6072 93 28.5806C93 28.554 93 28.5274 93 28.5007C93 28.474 93 28.4473 93 28.4205C93 28.3938 93 28.367 93 28.3402C93 28.3134 93 28.2865 93 28.2597C93 28.2328 93 28.2059 93 28.1789C93 28.152 93 28.125 93 28.098C93 28.071 93 28.044 93 28.0169C93 27.9898 93 27.9627 93 27.9356C93 27.9085 93 27.8813 93 27.8541C93 27.8269 93 27.7997 93 27.7725C93 27.7452 93 27.7179 93 27.6906C93 27.6633 93 27.6359 93 27.6086C93 27.5812 93 27.5538 93 27.5263C93 27.4989 93 27.4714 93 27.4439C93 27.4164 93 27.3889 93 27.3614C93 27.3338 93 27.3062 93 27.2786C93 27.251 93 27.2233 93 27.1957C93 27.168 93 27.1403 93 27.1126C93 27.0848 93 27.0571 93 27.0293C93 27.0015 93 26.9737 93 26.9458C93 26.918 93 26.8901 93 26.8622C93 26.8343 93 26.8063 93 26.7784C93 26.7504 93 26.7224 93 26.6944C93 26.6664 93 26.6383 93 26.6103C93 26.5822 93 26.5541 93 26.526C93 26.4978 93 26.4697 93 26.4415C93 26.4133 93 26.3851 93 26.3569C93 26.3286 93 26.3004 93 26.2721C93 26.2438 93 26.2155 93 26.1871C93 26.1588 93 26.1304 93 26.102C93 26.0736 93 26.0452 93 26.0167C93 25.9883 93 25.9598 93 25.9313C93 25.9028 93 25.8743 93 25.8457C93 25.8172 93 25.7886 93 25.76C93 25.7314 93 25.7027 93 25.6741C93 25.6454 93 25.6168 93 25.588C93 25.5593 93 25.5306 93 25.5019C93 25.4731 93 25.4443 93 25.4155C93 25.3867 93 25.3579 93 25.329C93 25.3002 93 25.2713 93 25.2424C93 25.2135 93 25.1846 93 25.1556C93 25.1266 93 25.0977 93 25.0687C93 25.0397 93 25.0107 93 24.9816C93 24.9526 93 24.9235 93 24.8944C93 24.8653 93 24.8362 93 24.8071C93 24.7779 93 24.7488 93 24.7196C93 24.6904 93 24.6612 93 24.6319C93 24.6027 93 24.5735 93 24.5442C93 24.5149 93 24.4856 93 24.4563C93 24.427 93 24.3976 93 24.3683C93 24.3389 93 24.3095 93 24.2801C93 24.2507 93 24.2213 93 24.1918C93 24.1624 93 24.1329 93 24.1034C93 24.0739 93 24.0444 93 24.0149C93 23.9853 93 23.9558 93 23.9262C93 23.8966 93 23.867 93 23.8374C93 23.8078 93 23.7781 93 23.7485C93 23.7188 93 23.6891 93 23.6594C93 23.6297 93 23.6 93 23.5703C93 23.5405 93 23.5108 93 23.481C93 23.4512 93 23.4214 93 23.3916C93 23.3618 93 23.3319 93 23.3021C93 23.2722 93 23.2423 93 23.2124C93 23.1825 93 23.1526 93 23.1227C93 23.0928 93 23.0628 93 23.0328C93 23.0029 93 22.9729 93 22.9429C93 22.9129 93 22.8828 93 22.8528C93 22.8227 93 22.7927 93 22.7626C93 22.7325 93 22.7024 93 22.6723C93 22.6422 93 22.612 93 22.5819C93 22.5517 93 22.5216 93 22.4914C93 22.4612 93 22.431 93 22.4008C93 22.3706 93 22.3403 93 22.3101C93 22.2798 93 22.2495 93 22.2192C93 22.189 93 22.1587 93 22.1283C93 22.098 93 22.0677 93 22.0373C93 22.007 93 21.9766 93 21.9462C93 21.9158 93 21.8854 93 21.855C93 21.8246 93 21.7942 93 21.7637C93 21.7333 93 21.7028 93 21.6723C93 21.6418 93 21.6113 93 21.5808C93 21.5503 93 21.5198 93 21.4893C93 21.4587 93 21.4282 93 21.3976C93 21.367 93 21.3364 93 21.3058C93 21.2752 93 21.2446 93 21.214C93 21.1834 93 21.1527 93 21.1221C93 21.0914 93 21.0608 93 21.0301C93 20.9994 93 20.9687 93 20.938C93 20.9073 93 20.8766 93 20.8458C93 20.8151 93 20.7843 93 20.7536C93 20.7228 93 20.692 93 20.6612C93 20.6305 93 20.5997 93 20.5688C93 20.538 93 20.5072 93 20.4764C93 20.4455 93 20.4147 93 20.3838C93 20.3529 93 20.3221 93 20.2912C93 20.2603 93 20.2294 93 20.1985C93 20.1676 93 20.1367 93 20.1057C93 20.0748 93 20.0438 93 20.0129C93 19.9819 93 19.951 93 19.92C93 19.889 93 19.858 93 19.827C93 19.796 93 19.765 93 19.734C93 19.7029 93 19.6719 93 19.6409C93 19.6098 93 19.5788 93 19.5477C93 19.5166 93 19.4856 93 19.4545C93 19.4234 93 19.3923 93 19.3612C93 19.3301 93 19.299 93 19.2679C93 19.2367 93 19.2056 93 19.1745C93 19.1433 93 19.1122 93 19.081C93 19.0499 93 19.0187 93 18.9875C93 18.9563 93 18.9251 93 18.894C93 18.8628 93 18.8316 93 18.8003C93 18.7691 93 18.7379 93 18.7067C93 18.6755 93 18.6442 93 18.613C93 18.5817 93 18.5505 93 18.5192C93 18.488 93 18.4567 93 18.4254C93 18.3941 93 18.3628 93 18.3316C93 18.3003 93 18.269 93 18.2377C93 18.2064 93 18.1751 93 18.1437C93 18.1124 93 18.0811 93 18.0498C93 18.0184 93 17.9871 93 17.9557C93 17.9244 93 17.893 93 17.8617C93 17.8303 93 17.799 93 17.7676C93 17.7362 93 17.7049 93 17.6735C93 17.6421 93 17.6107 93 17.5793C93 17.5479 93 17.5165 93 17.4851C93 17.4537 93 17.4223 93 17.3909C93 17.3595 93 17.3281 93 17.2966C93 17.2652 93 17.2338 93 17.2024C93 17.1709 93 17.1395 93 17.108C93 17.0766 93 17.0452 93 17.0137C93 16.9823 93 16.9508 93 16.9193C93 16.8879 93 16.8564 93 16.825C93 16.7935 93 16.762 93 16.7305C93 16.6991 93 16.6676 93 16.6361C93 16.6046 93 16.5732 93 16.5417C93 16.5102 93 16.4787 93 16.4472C93 16.4157 93 16.3842 93 16.3527C93 16.3212 93 16.2897 93 16.2582C93 16.2267 93 16.1952 93 16.1637C93 16.1322 93 16.1007 93 16.0692C93 16.0377 93 16.0062 93 15.9746C93 15.9431 93 15.9116 93 15.8801C93 15.8486 93 15.8171 93 15.7855C93 15.754 93 15.7225 93 15.691C93 15.6594 93 15.6279 93 15.5964C93 15.5649 93 15.5334 93 15.5018C93 15.4703 93 15.4388 93 15.4072C93 15.3757 93 15.3442 93 15.3127C93 15.2811 93 15.2496 93 15.2181C93 15.1866 93 15.155 93 15.1235C93 15.092 93 15.0604 93 15.0289C93 14.9974 93 14.9659 93 14.9343C93 14.9028 93 14.8713 93 14.8398C93 14.8082 93 14.7767 93 14.7452C93 14.7137 93 14.6822 93 14.6506C93 14.6191 93 14.5876 93 14.5561C93 14.5246 93 14.4931 93 14.4615C93 14.43 93 14.3985 93 14.367C93 14.3355 93 14.304 93 14.2725C93 14.241 93 14.2095 93 14.178C93 14.1465 93 14.115 93 14.0835C93 14.052 93 14.0205 93 13.989C93 13.9575 93 13.9261 93 13.8946C93 13.8631 93 13.8316 93 13.8001C93 13.7687 93 13.7372 93 13.7057C93 13.6743 93 13.6428 93 13.6113C93 13.5799 93 13.5484 93 13.517C93 13.4855 93 13.4541 93 13.4226C93 13.3912 93 13.3597 93 13.3283C93 13.2969 93 13.2654 93 13.234C93 13.2026 93 13.1711 93 13.1397C93 13.1083 93 13.0769 93 13.0455C93 13.0141 93 12.9827 93 12.9513C93 12.9199 93 12.8885 93 12.8571C93 12.8257 93 12.7944 93 12.763C93 12.7316 93 12.7002 93 12.6689C93 12.6375 93 12.6062 93 12.5748C93 12.5435 93 12.5121 93 12.4808C93 12.4494 93 12.4181 93 12.3868C93 12.3555 93 12.3241 93 12.2928C93 12.2615 93 12.2302 93 12.1989C93 12.1676 93 12.1363 93 12.1051C93 12.0738 93 12.0425 93 12.0112C93 11.98 93 11.9487 93 11.9175C93 11.8862 93 11.855 93 11.8237C93 11.7925 93 11.7613 93 11.7301C93 11.6988 93 11.6676 93 11.6364C93 11.6052 93 11.574 93 11.5429C93 11.5117 93 11.4805 93 11.4493C93 11.4182 93 11.387 93 11.3559C93 11.3247 93 11.2936 93 11.2624C93 11.2313 93 11.2002 93 11.1691C93 11.138 93 11.1069 93 11.0758C93 11.0447 93 11.0136 93 10.9825C93 10.9515 93 10.9204 93 10.8894C93 10.8583 93 10.8273 93 10.7962C93 10.7652 93 10.7342 93 10.7032C93 10.6722 93 10.6412 93 10.6102C93 10.5792 93 10.5482 93 10.5173C93 10.4863 93 10.4553 93 10.4244C93 10.3934 93 10.3625 93 10.3316C93 10.3007 93 10.2698 93 10.2389C93 10.208 93 10.1771 93 10.1462C93 10.1154 93 10.0845 93 10.0536C93 10.0228 93 9.99196 93 9.96114C93 9.93032 93 9.89951 93 9.86871C93 9.83791 93 9.80713 93 9.77635C93 9.74558 93 9.71482 93 9.68408C93 9.65333 93 9.6226 93 9.59188C93 9.56116 93 9.53045 93 9.49976C93 9.46907 93 9.43839 93 9.40773C93 9.37706 93 9.34641 93 9.31578C93 9.28514 93 9.25452 93 9.22391C93 9.1933 93 9.16271 93 9.13213C93 9.10155 93 9.07098 93 9.04043C93 9.00988 93 8.97935 93 8.94882C93 8.9183 93 8.8878 93 8.85731C93 8.82682 93 8.79634 93 8.76588C93 8.73542 93 8.70498 93 8.67455C93 8.64412 93 8.61371 93 8.58331C93 8.55291 93 8.52253 93 8.49217C93 8.4618 93 8.43145 93 8.40112C93 8.37078 93 8.34047 93 8.31017C93 8.27987 93 8.24958 93 8.21932C93 8.18905 93 8.1588 93 8.12857C93 8.09833 93 8.06812 93 8.03792C93 8.00772 93 7.97754 93 7.94737C93 7.91721 93 7.88706 93 7.85693C93 7.8268 93 7.79669 93 7.76659C93 7.7365 93 7.70642 93 7.67637C93 7.64631 93 7.61627 93 7.58625C93 7.55622 93 7.52622 93 7.49624C93 7.46625 93 7.43628 93 7.40634C93 7.37639 93 7.34646 93 7.31655C93 7.28664 93 7.25675 93 7.22688C93 7.197 93 7.16715 93 7.13732C93 7.10748 93 7.07767 93 7.04788C93 7.01808 93 6.98831 93 6.95855C93 6.9288 93 6.89906 93 6.86935C93 6.83963 93 6.80994 93 6.78026C93 6.75059 93 6.72093 93 6.6913C93 6.66167 93 6.63205 93 6.60246C93 6.57287 93 6.5433 93 6.51375C93 6.48419 93 6.45466 93 6.42516C93 6.39565 93 6.36616 93 6.33669C93 6.30723 93 6.27778 93 6.24836C93 6.21894 93 6.18954 93 6.16016C93 6.13078 93 6.10142 93 6.07208C93 6.04275 93 6.01343 93 5.98414C93 5.95485 93 5.92558 93 5.89634C93 5.86709 93 5.83786 93 5.80866C93 5.77946 93 5.75028 93 5.72113C93 5.69197 93 5.66284 93 5.63373C93 5.60462 93 5.57553 93 5.54647C93 5.51741 93 5.48837 93 5.45935C93 5.43034 93 5.40135 93 5.37238C93 5.34341 93 5.31446 93 5.28554C93 5.25662 93 5.22773 93 5.19886C93 5.16998 93 5.14114 93 5.11231C93 5.08349 93 5.05469 93 5.02592C93 4.99714 93 4.96839 93 4.93967C93 4.91094 93 4.88224 93 4.85357C93 4.8249 93 4.79625 93 4.76762C93 4.739 93 4.7104 93 4.68183C93 4.65326 93 4.62471 93 4.59619C93 4.56767 93 4.53917 93 4.5107C93 4.48223 93 4.45379 93 4.42537C93 4.39696 93 4.36857 93 4.3402C93 4.31184 93 4.2835 93 4.25519C93 4.22688 93 4.19859 93 4.17034C93 4.14208 93 4.11385 93 4.08565C93 4.05744 93 4.02927 93 4.00112C93 3.97297 93 3.94485 93 3.91676C93 3.88866 93 3.8606 93 3.83256C93 3.80452 93 3.77651 93 3.74853C93 3.72055 93 3.69259 93 3.66467C93 3.63674 93 3.60885 93 3.58098C93 3.55311 93 3.52527 93 3.49746C93 3.46965 93 3.44186 93 3.41411C93 3.38635 93 3.35863 93 3.33093C93 3.30324 93 3.27557 93 3.24793C93 3.2203 93 3.19269 93 3.16511C93 3.13753 93 3.10998 93 3.08247C93 3.05495 93 3.02746 93 3H89ZM92.3072 37.4864L81.3072 27.9864L78.6928 31.0136L89.6928 40.5136L92.3072 37.4864ZM78.6928 27.9864L67.6928 37.4864L70.3072 40.5136L81.3072 31.0136L78.6928 27.9864ZM69 39C71 39 71 38.9999 71 38.9997C71 38.9996 71 38.9993 71 38.999C71 38.9987 71 38.9982 71 38.9977C71 38.9972 71 38.9967 71 38.996C71 38.9953 71 38.9946 71 38.9938C71 38.9929 71 38.992 71 38.991C71 38.99 71 38.9889 71 38.9878C71 38.9866 71 38.9854 71 38.984C71 38.9827 71 38.9813 71 38.9798C71 38.9783 71 38.9768 71 38.9751C71 38.9735 71 38.9717 71 38.9699C71 38.9681 71 38.9662 71 38.9642C71 38.9622 71 38.9602 71 38.9581C71 38.9559 71 38.9537 71 38.9514C71 38.9491 71 38.9467 71 38.9443C71 38.9418 71 38.9393 71 38.9366C71 38.934 71 38.9313 71 38.9285C71 38.9257 71 38.9229 71 38.9199C71 38.917 71 38.914 71 38.9109C71 38.9078 71 38.9046 71 38.9013C71 38.8981 71 38.8947 71 38.8913C71 38.8879 71 38.8844 71 38.8808C71 38.8773 71 38.8736 71 38.8699C71 38.8661 71 38.8623 71 38.8584C71 38.8546 71 38.8506 71 38.8465C71 38.8425 71 38.8384 71 38.8342C71 38.83 71 38.8257 71 38.8213C71 38.817 71 38.8125 71 38.808C71 38.8035 71 38.7989 71 38.7942C71 38.7896 71 38.7848 71 38.78C71 38.7752 71 38.7703 71 38.7653C71 38.7603 71 38.7553 71 38.7502C71 38.745 71 38.7398 71 38.7345C71 38.7293 71 38.7239 71 38.7185C71 38.713 71 38.7075 71 38.7019C71 38.6963 71 38.6907 71 38.6849C71 38.6792 71 38.6734 71 38.6675C71 38.6616 71 38.6556 71 38.6496C71 38.6436 71 38.6375 71 38.6313C71 38.6251 71 38.6188 71 38.6125C71 38.6061 71 38.5997 71 38.5932C71 38.5867 71 38.5802 71 38.5735C71 38.5669 71 38.5602 71 38.5534C71 38.5466 71 38.5397 71 38.5328C71 38.5259 71 38.5189 71 38.5118C71 38.5047 71 38.4975 71 38.4903C71 38.4831 71 38.4758 71 38.4684C71 38.461 71 38.4536 71 38.446C71 38.4385 71 38.4309 71 38.4233C71 38.4156 71 38.4078 71 38.4C71 38.3922 71 38.3843 71 38.3764C71 38.3684 71 38.3604 71 38.3523C71 38.3442 71 38.336 71 38.3278C71 38.3195 71 38.3112 71 38.3028C71 38.2944 71 38.2859 71 38.2774C71 38.2689 71 38.2603 71 38.2516C71 38.2429 71 38.2342 71 38.2253C71 38.2165 71 38.2076 71 38.1987C71 38.1897 71 38.1807 71 38.1716C71 38.1625 71 38.1533 71 38.144C71 38.1348 71 38.1255 71 38.1161C71 38.1067 71 38.0973 71 38.0877C71 38.0782 71 38.0686 71 38.059C71 38.0493 71 38.0396 71 38.0298C71 38.02 71 38.0101 71 38.0001C71 37.9902 71 37.9802 71 37.9701C71 37.96 71 37.9499 71 37.9397C71 37.9294 71 37.9192 71 37.9088C71 37.8984 71 37.888 71 37.8775C71 37.867 71 37.8565 71 37.8458C71 37.8352 71 37.8245 71 37.8138C71 37.803 71 37.7922 71 37.7813C71 37.7704 71 37.7594 71 37.7483C71 37.7373 71 37.7262 71 37.715C71 37.7039 71 37.6926 71 37.6813C71 37.67 71 37.6586 71 37.6472C71 37.6358 71 37.6243 71 37.6127C71 37.6011 71 37.5895 71 37.5778C71 37.5661 71 37.5543 71 37.5425C71 37.5306 71 37.5187 71 37.5068C71 37.4948 71 37.4827 71 37.4706C71 37.4585 71 37.4464 71 37.4341C71 37.4219 71 37.4096 71 37.3972C71 37.3849 71 37.3725 71 37.36C71 37.3475 71 37.3349 71 37.3223C71 37.3097 71 37.297 71 37.2842C71 37.2715 71 37.2587 71 37.2458C71 37.2329 71 37.2199 71 37.2069C71 37.1939 71 37.1809 71 37.1677C71 37.1546 71 37.1414 71 37.1281C71 37.1148 71 37.1015 71 37.0881C71 37.0747 71 37.0613 71 37.0477C71 37.0342 71 37.0206 71 37.007C71 36.9934 71 36.9796 71 36.9659C71 36.9521 71 36.9383 71 36.9244C71 36.9105 71 36.8965 71 36.8825C71 36.8685 71 36.8544 71 36.8402C71 36.8261 71 36.8119 71 36.7976C71 36.7833 71 36.769 71 36.7546C71 36.7402 71 36.7258 71 36.7112C71 36.6967 71 36.6821 71 36.6675C71 36.6529 71 36.6382 71 36.6234C71 36.6086 71 36.5938 71 36.5789C71 36.564 71 36.5491 71 36.5341C71 36.5191 71 36.504 71 36.4889C71 36.4738 71 36.4586 71 36.4433C71 36.4281 71 36.4128 71 36.3974C71 36.382 71 36.3666 71 36.3511C71 36.3356 71 36.3201 71 36.3045C71 36.2889 71 36.2732 71 36.2575C71 36.2418 71 36.226 71 36.2101C71 36.1943 71 36.1784 71 36.1624C71 36.1465 71 36.1304 71 36.1144C71 36.0983 71 36.0821 71 36.066C71 36.0498 71 36.0335 71 36.0172C71 36.0009 71 35.9845 71 35.9681C71 35.9517 71 35.9352 71 35.9186C71 35.9021 71 35.8855 71 35.8688C71 35.8522 71 35.8354 71 35.8187C71 35.8019 71 35.7851 71 35.7682C71 35.7513 71 35.7343 71 35.7173C71 35.7003 71 35.6833 71 35.6662C71 35.6491 71 35.6319 71 35.6147C71 35.5974 71 35.5801 71 35.5628C71 35.5455 71 35.5281 71 35.5106C71 35.4932 71 35.4756 71 35.4581C71 35.4405 71 35.4229 71 35.4052C71 35.3875 71 35.3698 71 35.352C71 35.3342 71 35.3164 71 35.2985C71 35.2806 71 35.2627 71 35.2447C71 35.2266 71 35.2086 71 35.1905C71 35.1724 71 35.1542 71 35.136C71 35.1177 71 35.0995 71 35.0811C71 35.0628 71 35.0444 71 35.026C71 35.0075 71 34.989 71 34.9705C71 34.9519 71 34.9333 71 34.9147C71 34.896 71 34.8773 71 34.8585C71 34.8398 71 34.821 71 34.8021C71 34.7832 71 34.7643 71 34.7453C71 34.7263 71 34.7073 71 34.6882C71 34.6692 71 34.65 71 34.6308C71 34.6116 71 34.5924 71 34.5731C71 34.5538 71 34.5345 71 34.5151C71 34.4957 71 34.4763 71 34.4568C71 34.4373 71 34.4177 71 34.3981C71 34.3785 71 34.3589 71 34.3392C71 34.3194 71 34.2997 71 34.2799C71 34.2601 71 34.2402 71 34.2203C71 34.2004 71 34.1805 71 34.1604C71 34.1404 71 34.1204 71 34.1003C71 34.0802 71 34.06 71 34.0398C71 34.0196 71 33.9993 71 33.979C71 33.9587 71 33.9383 71 33.9179C71 33.8975 71 33.877 71 33.8565C71 33.836 71 33.8155 71 33.7949C71 33.7743 71 33.7536 71 33.7329C71 33.7122 71 33.6914 71 33.6706C71 33.6498 71 33.629 71 33.6081C71 33.5872 71 33.5662 71 33.5452C71 33.5242 71 33.5032 71 33.4821C71 33.461 71 33.4398 71 33.4186C71 33.3975 71 33.3762 71 33.3549C71 33.3336 71 33.3123 71 33.2909C71 33.2695 71 33.2481 71 33.2266C71 33.2052 71 33.1836 71 33.1621C71 33.1405 71 33.1189 71 33.0972C71 33.0755 71 33.0538 71 33.0321C71 33.0103 71 32.9885 71 32.9667C71 32.9448 71 32.9229 71 32.901C71 32.879 71 32.857 71 32.835C71 32.813 71 32.7909 71 32.7687C71 32.7466 71 32.7244 71 32.7022C71 32.68 71 32.6577 71 32.6354C71 32.6131 71 32.5908 71 32.5684C71 32.546 71 32.5235 71 32.501C71 32.4785 71 32.456 71 32.4334C71 32.4109 71 32.3882 71 32.3656C71 32.3429 71 32.3202 71 32.2974C71 32.2747 71 32.2519 71 32.229C71 32.2062 71 32.1833 71 32.1604C71 32.1374 71 32.1145 71 32.0914C71 32.0684 71 32.0454 71 32.0222C71 31.9991 71 31.976 71 31.9528C71 31.9296 71 31.9064 71 31.8831C71 31.8598 71 31.8365 71 31.8131C71 31.7898 71 31.7664 71 31.7429C71 31.7195 71 31.696 71 31.6724C71 31.6489 71 31.6253 71 31.6017C71 31.5781 71 31.5544 71 31.5307C71 31.507 71 31.4833 71 31.4595C71 31.4357 71 31.4119 71 31.388C71 31.3642 71 31.3403 71 31.3163C71 31.2924 71 31.2684 71 31.2443C71 31.2203 71 31.1962 71 31.1721C71 31.148 71 31.1239 71 31.0997C71 31.0755 71 31.0512 71 31.027C71 31.0027 71 30.9784 71 30.954C71 30.9297 71 30.9053 71 30.8808C71 30.8564 71 30.8319 71 30.8074C71 30.7829 71 30.7584 71 30.7338C71 30.7092 71 30.6845 71 30.6599C71 30.6352 71 30.6105 71 30.5857C71 30.561 71 30.5362 71 30.5114C71 30.4866 71 30.4617 71 30.4368C71 30.4119 71 30.387 71 30.362C71 30.337 71 30.312 71 30.2869C71 30.2619 71 30.2368 71 30.2116C71 30.1865 71 30.1613 71 30.1361C71 30.1109 71 30.0857 71 30.0604C71 30.0351 71 30.0098 71 29.9845C71 29.9591 71 29.9337 71 29.9083C71 29.8829 71 29.8574 71 29.8319C71 29.8064 71 29.7809 71 29.7553C71 29.7297 71 29.7041 71 29.6784C71 29.6528 71 29.6271 71 29.6014C71 29.5757 71 29.5499 71 29.5241C71 29.4983 71 29.4725 71 29.4467C71 29.4208 71 29.3949 71 29.369C71 29.343 71 29.3171 71 29.2911C71 29.2651 71 29.239 71 29.2129C71 29.1869 71 29.1608 71 29.1346C71 29.1085 71 29.0823 71 29.0561C71 29.0299 71 29.0036 71 28.9774C71 28.9511 71 28.9248 71 28.8984C71 28.8721 71 28.8457 71 28.8193C71 28.7929 71 28.7664 71 28.7399C71 28.7134 71 28.6869 71 28.6604C71 28.6338 71 28.6072 71 28.5806C71 28.554 71 28.5274 71 28.5007C71 28.474 71 28.4473 71 28.4205C71 28.3938 71 28.367 71 28.3402C71 28.3134 71 28.2865 71 28.2597C71 28.2328 71 28.2059 71 28.1789C71 28.152 71 28.125 71 28.098C71 28.071 71 28.044 71 28.0169C71 27.9898 71 27.9627 71 27.9356C71 27.9085 71 27.8813 71 27.8541C71 27.8269 71 27.7997 71 27.7725C71 27.7452 71 27.7179 71 27.6906C71 27.6633 71 27.6359 71 27.6086C71 27.5812 71 27.5538 71 27.5263C71 27.4989 71 27.4714 71 27.4439C71 27.4164 71 27.3889 71 27.3614C71 27.3338 71 27.3062 71 27.2786C71 27.251 71 27.2233 71 27.1957C71 27.168 71 27.1403 71 27.1126C71 27.0848 71 27.0571 71 27.0293C71 27.0015 71 26.9737 71 26.9458C71 26.918 71 26.8901 71 26.8622C71 26.8343 71 26.8063 71 26.7784C71 26.7504 71 26.7224 71 26.6944C71 26.6664 71 26.6383 71 26.6103C71 26.5822 71 26.5541 71 26.526C71 26.4978 71 26.4697 71 26.4415C71 26.4133 71 26.3851 71 26.3569C71 26.3286 71 26.3004 71 26.2721C71 26.2438 71 26.2155 71 26.1871C71 26.1588 71 26.1304 71 26.102C71 26.0736 71 26.0452 71 26.0167C71 25.9883 71 25.9598 71 25.9313C71 25.9028 71 25.8743 71 25.8457C71 25.8172 71 25.7886 71 25.76C71 25.7314 71 25.7027 71 25.6741C71 25.6454 71 25.6168 71 25.588C71 25.5593 71 25.5306 71 25.5019C71 25.4731 71 25.4443 71 25.4155C71 25.3867 71 25.3579 71 25.329C71 25.3002 71 25.2713 71 25.2424C71 25.2135 71 25.1846 71 25.1556C71 25.1266 71 25.0977 71 25.0687C71 25.0397 71 25.0107 71 24.9816C71 24.9526 71 24.9235 71 24.8944C71 24.8653 71 24.8362 71 24.8071C71 24.7779 71 24.7488 71 24.7196C71 24.6904 71 24.6612 71 24.6319C71 24.6027 71 24.5735 71 24.5442C71 24.5149 71 24.4856 71 24.4563C71 24.427 71 24.3976 71 24.3683C71 24.3389 71 24.3095 71 24.2801C71 24.2507 71 24.2213 71 24.1918C71 24.1624 71 24.1329 71 24.1034C71 24.0739 71 24.0444 71 24.0149C71 23.9853 71 23.9558 71 23.9262C71 23.8966 71 23.867 71 23.8374C71 23.8078 71 23.7781 71 23.7485C71 23.7188 71 23.6891 71 23.6594C71 23.6297 71 23.6 71 23.5703C71 23.5405 71 23.5108 71 23.481C71 23.4512 71 23.4214 71 23.3916C71 23.3618 71 23.3319 71 23.3021C71 23.2722 71 23.2423 71 23.2124C71 23.1825 71 23.1526 71 23.1227C71 23.0928 71 23.0628 71 23.0328C71 23.0029 71 22.9729 71 22.9429C71 22.9129 71 22.8828 71 22.8528C71 22.8227 71 22.7927 71 22.7626C71 22.7325 71 22.7024 71 22.6723C71 22.6422 71 22.612 71 22.5819C71 22.5517 71 22.5216 71 22.4914C71 22.4612 71 22.431 71 22.4008C71 22.3706 71 22.3403 71 22.3101C71 22.2798 71 22.2495 71 22.2192C71 22.189 71 22.1587 71 22.1283C71 22.098 71 22.0677 71 22.0373C71 22.007 71 21.9766 71 21.9462C71 21.9158 71 21.8854 71 21.855C71 21.8246 71 21.7942 71 21.7637C71 21.7333 71 21.7028 71 21.6723C71 21.6418 71 21.6113 71 21.5808C71 21.5503 71 21.5198 71 21.4893C71 21.4587 71 21.4282 71 21.3976C71 21.367 71 21.3364 71 21.3058C71 21.2752 71 21.2446 71 21.214C71 21.1834 71 21.1527 71 21.1221C71 21.0914 71 21.0608 71 21.0301C71 20.9994 71 20.9687 71 20.938C71 20.9073 71 20.8766 71 20.8458C71 20.8151 71 20.7843 71 20.7536C71 20.7228 71 20.692 71 20.6612C71 20.6305 71 20.5997 71 20.5688C71 20.538 71 20.5072 71 20.4764C71 20.4455 71 20.4147 71 20.3838C71 20.3529 71 20.3221 71 20.2912C71 20.2603 71 20.2294 71 20.1985C71 20.1676 71 20.1367 71 20.1057C71 20.0748 71 20.0438 71 20.0129C71 19.9819 71 19.951 71 19.92C71 19.889 71 19.858 71 19.827C71 19.796 71 19.765 71 19.734C71 19.7029 71 19.6719 71 19.6409C71 19.6098 71 19.5788 71 19.5477C71 19.5166 71 19.4856 71 19.4545C71 19.4234 71 19.3923 71 19.3612C71 19.3301 71 19.299 71 19.2679C71 19.2367 71 19.2056 71 19.1745C71 19.1433 71 19.1122 71 19.081C71 19.0499 71 19.0187 71 18.9875C71 18.9563 71 18.9251 71 18.894C71 18.8628 71 18.8316 71 18.8003C71 18.7691 71 18.7379 71 18.7067C71 18.6755 71 18.6442 71 18.613C71 18.5817 71 18.5505 71 18.5192C71 18.488 71 18.4567 71 18.4254C71 18.3941 71 18.3628 71 18.3316C71 18.3003 71 18.269 71 18.2377C71 18.2064 71 18.1751 71 18.1437C71 18.1124 71 18.0811 71 18.0498C71 18.0184 71 17.9871 71 17.9557C71 17.9244 71 17.893 71 17.8617C71 17.8303 71 17.799 71 17.7676C71 17.7362 71 17.7049 71 17.6735C71 17.6421 71 17.6107 71 17.5793C71 17.5479 71 17.5165 71 17.4851C71 17.4537 71 17.4223 71 17.3909C71 17.3595 71 17.3281 71 17.2966C71 17.2652 71 17.2338 71 17.2024C71 17.1709 71 17.1395 71 17.108C71 17.0766 71 17.0452 71 17.0137C71 16.9823 71 16.9508 71 16.9193C71 16.8879 71 16.8564 71 16.825C71 16.7935 71 16.762 71 16.7305C71 16.6991 71 16.6676 71 16.6361C71 16.6046 71 16.5732 71 16.5417C71 16.5102 71 16.4787 71 16.4472C71 16.4157 71 16.3842 71 16.3527C71 16.3212 71 16.2897 71 16.2582C71 16.2267 71 16.1952 71 16.1637C71 16.1322 71 16.1007 71 16.0692C71 16.0377 71 16.0062 71 15.9746C71 15.9431 71 15.9116 71 15.8801C71 15.8486 71 15.8171 71 15.7855C71 15.754 71 15.7225 71 15.691C71 15.6594 71 15.6279 71 15.5964C71 15.5649 71 15.5334 71 15.5018C71 15.4703 71 15.4388 71 15.4072C71 15.3757 71 15.3442 71 15.3127C71 15.2811 71 15.2496 71 15.2181C71 15.1866 71 15.155 71 15.1235C71 15.092 71 15.0604 71 15.0289C71 14.9974 71 14.9659 71 14.9343C71 14.9028 71 14.8713 71 14.8398C71 14.8082 71 14.7767 71 14.7452C71 14.7137 71 14.6822 71 14.6506C71 14.6191 71 14.5876 71 14.5561C71 14.5246 71 14.4931 71 14.4615C71 14.43 71 14.3985 71 14.367C71 14.3355 71 14.304 71 14.2725C71 14.241 71 14.2095 71 14.178C71 14.1465 71 14.115 71 14.0835C71 14.052 71 14.0205 71 13.989C71 13.9575 71 13.9261 71 13.8946C71 13.8631 71 13.8316 71 13.8001C71 13.7687 71 13.7372 71 13.7057C71 13.6743 71 13.6428 71 13.6113C71 13.5799 71 13.5484 71 13.517C71 13.4855 71 13.4541 71 13.4226C71 13.3912 71 13.3597 71 13.3283C71 13.2969 71 13.2654 71 13.234C71 13.2026 71 13.1711 71 13.1397C71 13.1083 71 13.0769 71 13.0455C71 13.0141 71 12.9827 71 12.9513C71 12.9199 71 12.8885 71 12.8571C71 12.8257 71 12.7944 71 12.763C71 12.7316 71 12.7002 71 12.6689C71 12.6375 71 12.6062 71 12.5748C71 12.5435 71 12.5121 71 12.4808C71 12.4494 71 12.4181 71 12.3868C71 12.3555 71 12.3241 71 12.2928C71 12.2615 71 12.2302 71 12.1989C71 12.1676 71 12.1363 71 12.1051C71 12.0738 71 12.0425 71 12.0112C71 11.98 71 11.9487 71 11.9175C71 11.8862 71 11.855 71 11.8237C71 11.7925 71 11.7613 71 11.7301C71 11.6988 71 11.6676 71 11.6364C71 11.6052 71 11.574 71 11.5429C71 11.5117 71 11.4805 71 11.4493C71 11.4182 71 11.387 71 11.3559C71 11.3247 71 11.2936 71 11.2624C71 11.2313 71 11.2002 71 11.1691C71 11.138 71 11.1069 71 11.0758C71 11.0447 71 11.0136 71 10.9825C71 10.9515 71 10.9204 71 10.8894C71 10.8583 71 10.8273 71 10.7962C71 10.7652 71 10.7342 71 10.7032C71 10.6722 71 10.6412 71 10.6102C71 10.5792 71 10.5482 71 10.5173C71 10.4863 71 10.4553 71 10.4244C71 10.3934 71 10.3625 71 10.3316C71 10.3007 71 10.2698 71 10.2389C71 10.208 71 10.1771 71 10.1462C71 10.1154 71 10.0845 71 10.0536C71 10.0228 71 9.99196 71 9.96114C71 9.93032 71 9.89951 71 9.86871C71 9.83791 71 9.80713 71 9.77635C71 9.74558 71 9.71482 71 9.68408C71 9.65333 71 9.6226 71 9.59188C71 9.56116 71 9.53045 71 9.49976C71 9.46907 71 9.43839 71 9.40773C71 9.37706 71 9.34641 71 9.31578C71 9.28514 71 9.25452 71 9.22391C71 9.1933 71 9.16271 71 9.13213C71 9.10155 71 9.07098 71 9.04043C71 9.00988 71 8.97935 71 8.94882C71 8.9183 71 8.8878 71 8.85731C71 8.82682 71 8.79634 71 8.76588C71 8.73542 71 8.70498 71 8.67455C71 8.64412 71 8.61371 71 8.58331C71 8.55291 71 8.52253 71 8.49217C71 8.4618 71 8.43145 71 8.40112C71 8.37078 71 8.34047 71 8.31017C71 8.27987 71 8.24958 71 8.21932C71 8.18905 71 8.1588 71 8.12857C71 8.09833 71 8.06812 71 8.03792C71 8.00772 71 7.97754 71 7.94737C71 7.91721 71 7.88706 71 7.85693C71 7.8268 71 7.79669 71 7.76659C71 7.7365 71 7.70642 71 7.67637C71 7.64631 71 7.61627 71 7.58625C71 7.55622 71 7.52622 71 7.49624C71 7.46625 71 7.43628 71 7.40634C71 7.37639 71 7.34646 71 7.31655C71 7.28664 71 7.25675 71 7.22688C71 7.197 71 7.16715 71 7.13732C71 7.10748 71 7.07767 71 7.04788C71 7.01808 71 6.98831 71 6.95855C71 6.9288 71 6.89906 71 6.86935C71 6.83963 71 6.80994 71 6.78026C71 6.75059 71 6.72093 71 6.6913C71 6.66167 71 6.63205 71 6.60246C71 6.57287 71 6.5433 71 6.51375C71 6.48419 71 6.45466 71 6.42516C71 6.39565 71 6.36616 71 6.33669C71 6.30723 71 6.27778 71 6.24836C71 6.21894 71 6.18954 71 6.16016C71 6.13078 71 6.10142 71 6.07208C71 6.04275 71 6.01343 71 5.98414C71 5.95485 71 5.92558 71 5.89634C71 5.86709 71 5.83786 71 5.80866C71 5.77946 71 5.75028 71 5.72113C71 5.69197 71 5.66284 71 5.63373C71 5.60462 71 5.57553 71 5.54647C71 5.51741 71 5.48837 71 5.45935C71 5.43034 71 5.40135 71 5.37238C71 5.34341 71 5.31446 71 5.28554C71 5.25662 71 5.22773 71 5.19886C71 5.16998 71 5.14114 71 5.11231C71 5.08349 71 5.05469 71 5.02592C71 4.99714 71 4.96839 71 4.93967C71 4.91094 71 4.88224 71 4.85357C71 4.8249 71 4.79625 71 4.76762C71 4.739 71 4.7104 71 4.68183C71 4.65326 71 4.62471 71 4.59619C71 4.56767 71 4.53917 71 4.5107C71 4.48223 71 4.45379 71 4.42537C71 4.39696 71 4.36857 71 4.3402C71 4.31184 71 4.2835 71 4.25519C71 4.22688 71 4.19859 71 4.17034C71 4.14208 71 4.11385 71 4.08565C71 4.05744 71 4.02927 71 4.00112C71 3.97297 71 3.94485 71 3.91676C71 3.88866 71 3.8606 71 3.83256C71 3.80452 71 3.77651 71 3.74853C71 3.72055 71 3.69259 71 3.66467C71 3.63674 71 3.60885 71 3.58098C71 3.55311 71 3.52527 71 3.49746C71 3.46965 71 3.44186 71 3.41411C71 3.38635 71 3.35863 71 3.33093C71 3.30324 71 3.27557 71 3.24793C71 3.2203 71 3.19269 71 3.16511C71 3.13753 71 3.10998 71 3.08247C71 3.05495 71 3.02746 71 3H67C67 3.02746 67 3.05495 67 3.08247C67 3.10998 67 3.13753 67 3.16511C67 3.19269 67 3.2203 67 3.24793C67 3.27557 67 3.30324 67 3.33093C67 3.35863 67 3.38635 67 3.41411C67 3.44186 67 3.46965 67 3.49746C67 3.52527 67 3.55311 67 3.58098C67 3.60885 67 3.63674 67 3.66467C67 3.69259 67 3.72055 67 3.74853C67 3.77651 67 3.80452 67 3.83256C67 3.8606 67 3.88866 67 3.91676C67 3.94485 67 3.97297 67 4.00112C67 4.02927 67 4.05744 67 4.08565C67 4.11385 67 4.14208 67 4.17034C67 4.19859 67 4.22688 67 4.25519C67 4.2835 67 4.31184 67 4.3402C67 4.36857 67 4.39696 67 4.42537C67 4.45379 67 4.48223 67 4.5107C67 4.53917 67 4.56767 67 4.59619C67 4.62471 67 4.65326 67 4.68183C67 4.7104 67 4.739 67 4.76762C67 4.79625 67 4.8249 67 4.85357C67 4.88224 67 4.91094 67 4.93967C67 4.96839 67 4.99714 67 5.02592C67 5.05469 67 5.08349 67 5.11231C67 5.14114 67 5.16998 67 5.19886C67 5.22773 67 5.25662 67 5.28554C67 5.31446 67 5.34341 67 5.37238C67 5.40135 67 5.43034 67 5.45935C67 5.48837 67 5.51741 67 5.54647C67 5.57553 67 5.60462 67 5.63373C67 5.66284 67 5.69197 67 5.72113C67 5.75028 67 5.77946 67 5.80866C67 5.83786 67 5.86709 67 5.89634C67 5.92558 67 5.95485 67 5.98414C67 6.01343 67 6.04275 67 6.07208C67 6.10142 67 6.13078 67 6.16016C67 6.18954 67 6.21894 67 6.24836C67 6.27778 67 6.30723 67 6.33669C67 6.36616 67 6.39565 67 6.42516C67 6.45466 67 6.48419 67 6.51375C67 6.5433 67 6.57287 67 6.60246C67 6.63205 67 6.66167 67 6.6913C67 6.72093 67 6.75059 67 6.78026C67 6.80994 67 6.83963 67 6.86935C67 6.89906 67 6.9288 67 6.95855C67 6.98831 67 7.01808 67 7.04788C67 7.07767 67 7.10748 67 7.13732C67 7.16715 67 7.197 67 7.22688C67 7.25675 67 7.28664 67 7.31655C67 7.34646 67 7.37639 67 7.40634C67 7.43628 67 7.46625 67 7.49624C67 7.52622 67 7.55622 67 7.58625C67 7.61627 67 7.64631 67 7.67637C67 7.70642 67 7.7365 67 7.76659C67 7.79669 67 7.8268 67 7.85693C67 7.88706 67 7.91721 67 7.94737C67 7.97754 67 8.00772 67 8.03792C67 8.06812 67 8.09833 67 8.12857C67 8.1588 67 8.18905 67 8.21932C67 8.24958 67 8.27987 67 8.31017C67 8.34047 67 8.37078 67 8.40112C67 8.43145 67 8.4618 67 8.49217C67 8.52253 67 8.55291 67 8.58331C67 8.61371 67 8.64412 67 8.67455C67 8.70498 67 8.73542 67 8.76588C67 8.79634 67 8.82682 67 8.85731C67 8.8878 67 8.9183 67 8.94882C67 8.97935 67 9.00988 67 9.04043C67 9.07098 67 9.10155 67 9.13213C67 9.16271 67 9.1933 67 9.22391C67 9.25452 67 9.28514 67 9.31578C67 9.34641 67 9.37706 67 9.40773C67 9.43839 67 9.46907 67 9.49976C67 9.53045 67 9.56116 67 9.59188C67 9.6226 67 9.65333 67 9.68408C67 9.71482 67 9.74558 67 9.77635C67 9.80713 67 9.83791 67 9.86871C67 9.89951 67 9.93032 67 9.96114C67 9.99196 67 10.0228 67 10.0536C67 10.0845 67 10.1154 67 10.1462C67 10.1771 67 10.208 67 10.2389C67 10.2698 67 10.3007 67 10.3316C67 10.3625 67 10.3934 67 10.4244C67 10.4553 67 10.4863 67 10.5173C67 10.5482 67 10.5792 67 10.6102C67 10.6412 67 10.6722 67 10.7032C67 10.7342 67 10.7652 67 10.7962C67 10.8273 67 10.8583 67 10.8894C67 10.9204 67 10.9515 67 10.9825C67 11.0136 67 11.0447 67 11.0758C67 11.1069 67 11.138 67 11.1691C67 11.2002 67 11.2313 67 11.2624C67 11.2936 67 11.3247 67 11.3559C67 11.387 67 11.4182 67 11.4493C67 11.4805 67 11.5117 67 11.5429C67 11.574 67 11.6052 67 11.6364C67 11.6676 67 11.6988 67 11.7301C67 11.7613 67 11.7925 67 11.8237C67 11.855 67 11.8862 67 11.9175C67 11.9487 67 11.98 67 12.0112C67 12.0425 67 12.0738 67 12.1051C67 12.1363 67 12.1676 67 12.1989C67 12.2302 67 12.2615 67 12.2928C67 12.3241 67 12.3555 67 12.3868C67 12.4181 67 12.4494 67 12.4808C67 12.5121 67 12.5435 67 12.5748C67 12.6062 67 12.6375 67 12.6689C67 12.7002 67 12.7316 67 12.763C67 12.7944 67 12.8257 67 12.8571C67 12.8885 67 12.9199 67 12.9513C67 12.9827 67 13.0141 67 13.0455C67 13.0769 67 13.1083 67 13.1397C67 13.1711 67 13.2026 67 13.234C67 13.2654 67 13.2969 67 13.3283C67 13.3597 67 13.3912 67 13.4226C67 13.4541 67 13.4855 67 13.517C67 13.5484 67 13.5799 67 13.6113C67 13.6428 67 13.6743 67 13.7057C67 13.7372 67 13.7687 67 13.8001C67 13.8316 67 13.8631 67 13.8946C67 13.9261 67 13.9575 67 13.989C67 14.0205 67 14.052 67 14.0835C67 14.115 67 14.1465 67 14.178C67 14.2095 67 14.241 67 14.2725C67 14.304 67 14.3355 67 14.367C67 14.3985 67 14.43 67 14.4615C67 14.4931 67 14.5246 67 14.5561C67 14.5876 67 14.6191 67 14.6506C67 14.6822 67 14.7137 67 14.7452C67 14.7767 67 14.8082 67 14.8398C67 14.8713 67 14.9028 67 14.9343C67 14.9659 67 14.9974 67 15.0289C67 15.0604 67 15.092 67 15.1235C67 15.155 67 15.1866 67 15.2181C67 15.2496 67 15.2811 67 15.3127C67 15.3442 67 15.3757 67 15.4072C67 15.4388 67 15.4703 67 15.5018C67 15.5334 67 15.5649 67 15.5964C67 15.6279 67 15.6594 67 15.691C67 15.7225 67 15.754 67 15.7855C67 15.8171 67 15.8486 67 15.8801C67 15.9116 67 15.9431 67 15.9746C67 16.0062 67 16.0377 67 16.0692C67 16.1007 67 16.1322 67 16.1637C67 16.1952 67 16.2267 67 16.2582C67 16.2897 67 16.3212 67 16.3527C67 16.3842 67 16.4157 67 16.4472C67 16.4787 67 16.5102 67 16.5417C67 16.5732 67 16.6046 67 16.6361C67 16.6676 67 16.6991 67 16.7305C67 16.762 67 16.7935 67 16.825C67 16.8564 67 16.8879 67 16.9193C67 16.9508 67 16.9823 67 17.0137C67 17.0452 67 17.0766 67 17.108C67 17.1395 67 17.1709 67 17.2024C67 17.2338 67 17.2652 67 17.2966C67 17.3281 67 17.3595 67 17.3909C67 17.4223 67 17.4537 67 17.4851C67 17.5165 67 17.5479 67 17.5793C67 17.6107 67 17.6421 67 17.6735C67 17.7049 67 17.7362 67 17.7676C67 17.799 67 17.8303 67 17.8617C67 17.893 67 17.9244 67 17.9557C67 17.9871 67 18.0184 67 18.0498C67 18.0811 67 18.1124 67 18.1437C67 18.1751 67 18.2064 67 18.2377C67 18.269 67 18.3003 67 18.3316C67 18.3628 67 18.3941 67 18.4254C67 18.4567 67 18.488 67 18.5192C67 18.5505 67 18.5817 67 18.613C67 18.6442 67 18.6755 67 18.7067C67 18.7379 67 18.7691 67 18.8003C67 18.8316 67 18.8628 67 18.894C67 18.9251 67 18.9563 67 18.9875C67 19.0187 67 19.0499 67 19.081C67 19.1122 67 19.1433 67 19.1745C67 19.2056 67 19.2367 67 19.2679C67 19.299 67 19.3301 67 19.3612C67 19.3923 67 19.4234 67 19.4545C67 19.4856 67 19.5166 67 19.5477C67 19.5788 67 19.6098 67 19.6409C67 19.6719 67 19.7029 67 19.734C67 19.765 67 19.796 67 19.827C67 19.858 67 19.889 67 19.92C67 19.951 67 19.9819 67 20.0129C67 20.0438 67 20.0748 67 20.1057C67 20.1367 67 20.1676 67 20.1985C67 20.2294 67 20.2603 67 20.2912C67 20.3221 67 20.3529 67 20.3838C67 20.4147 67 20.4455 67 20.4764C67 20.5072 67 20.538 67 20.5688C67 20.5997 67 20.6305 67 20.6612C67 20.692 67 20.7228 67 20.7536C67 20.7843 67 20.8151 67 20.8458C67 20.8766 67 20.9073 67 20.938C67 20.9687 67 20.9994 67 21.0301C67 21.0608 67 21.0914 67 21.1221C67 21.1527 67 21.1834 67 21.214C67 21.2446 67 21.2752 67 21.3058C67 21.3364 67 21.367 67 21.3976C67 21.4282 67 21.4587 67 21.4893C67 21.5198 67 21.5503 67 21.5808C67 21.6113 67 21.6418 67 21.6723C67 21.7028 67 21.7333 67 21.7637C67 21.7942 67 21.8246 67 21.855C67 21.8854 67 21.9158 67 21.9462C67 21.9766 67 22.007 67 22.0373C67 22.0677 67 22.098 67 22.1283C67 22.1587 67 22.189 67 22.2192C67 22.2495 67 22.2798 67 22.3101C67 22.3403 67 22.3706 67 22.4008C67 22.431 67 22.4612 67 22.4914C67 22.5216 67 22.5517 67 22.5819C67 22.612 67 22.6422 67 22.6723C67 22.7024 67 22.7325 67 22.7626C67 22.7927 67 22.8227 67 22.8528C67 22.8828 67 22.9129 67 22.9429C67 22.9729 67 23.0029 67 23.0328C67 23.0628 67 23.0928 67 23.1227C67 23.1526 67 23.1825 67 23.2124C67 23.2423 67 23.2722 67 23.3021C67 23.3319 67 23.3618 67 23.3916C67 23.4214 67 23.4512 67 23.481C67 23.5108 67 23.5405 67 23.5703C67 23.6 67 23.6297 67 23.6594C67 23.6891 67 23.7188 67 23.7485C67 23.7781 67 23.8078 67 23.8374C67 23.867 67 23.8966 67 23.9262C67 23.9558 67 23.9853 67 24.0149C67 24.0444 67 24.0739 67 24.1034C67 24.1329 67 24.1624 67 24.1918C67 24.2213 67 24.2507 67 24.2801C67 24.3095 67 24.3389 67 24.3683C67 24.3976 67 24.427 67 24.4563C67 24.4856 67 24.5149 67 24.5442C67 24.5735 67 24.6027 67 24.6319C67 24.6612 67 24.6904 67 24.7196C67 24.7488 67 24.7779 67 24.8071C67 24.8362 67 24.8653 67 24.8944C67 24.9235 67 24.9526 67 24.9816C67 25.0107 67 25.0397 67 25.0687C67 25.0977 67 25.1266 67 25.1556C67 25.1846 67 25.2135 67 25.2424C67 25.2713 67 25.3002 67 25.329C67 25.3579 67 25.3867 67 25.4155C67 25.4443 67 25.4731 67 25.5019C67 25.5306 67 25.5593 67 25.588C67 25.6168 67 25.6454 67 25.6741C67 25.7027 67 25.7314 67 25.76C67 25.7886 67 25.8172 67 25.8457C67 25.8743 67 25.9028 67 25.9313C67 25.9598 67 25.9883 67 26.0167C67 26.0452 67 26.0736 67 26.102C67 26.1304 67 26.1588 67 26.1871C67 26.2155 67 26.2438 67 26.2721C67 26.3004 67 26.3286 67 26.3569C67 26.3851 67 26.4133 67 26.4415C67 26.4697 67 26.4978 67 26.526C67 26.5541 67 26.5822 67 26.6103C67 26.6383 67 26.6664 67 26.6944C67 26.7224 67 26.7504 67 26.7784C67 26.8063 67 26.8343 67 26.8622C67 26.8901 67 26.918 67 26.9458C67 26.9737 67 27.0015 67 27.0293C67 27.0571 67 27.0848 67 27.1126C67 27.1403 67 27.168 67 27.1957C67 27.2233 67 27.251 67 27.2786C67 27.3062 67 27.3338 67 27.3614C67 27.3889 67 27.4164 67 27.4439C67 27.4714 67 27.4989 67 27.5263C67 27.5538 67 27.5812 67 27.6086C67 27.6359 67 27.6633 67 27.6906C67 27.7179 67 27.7452 67 27.7725C67 27.7997 67 27.8269 67 27.8541C67 27.8813 67 27.9085 67 27.9356C67 27.9627 67 27.9898 67 28.0169C67 28.044 67 28.071 67 28.098C67 28.125 67 28.152 67 28.1789C67 28.2059 67 28.2328 67 28.2597C67 28.2865 67 28.3134 67 28.3402C67 28.367 67 28.3938 67 28.4205C67 28.4473 67 28.474 67 28.5007C67 28.5274 67 28.554 67 28.5806C67 28.6072 67 28.6338 67 28.6604C67 28.6869 67 28.7134 67 28.7399C67 28.7664 67 28.7929 67 28.8193C67 28.8457 67 28.8721 67 28.8984C67 28.9248 67 28.9511 67 28.9774C67 29.0036 67 29.0299 67 29.0561C67 29.0823 67 29.1085 67 29.1346C67 29.1608 67 29.1869 67 29.2129C67 29.239 67 29.2651 67 29.2911C67 29.3171 67 29.343 67 29.369C67 29.3949 67 29.4208 67 29.4467C67 29.4725 67 29.4983 67 29.5241C67 29.5499 67 29.5757 67 29.6014C67 29.6271 67 29.6528 67 29.6784C67 29.7041 67 29.7297 67 29.7553C67 29.7809 67 29.8064 67 29.8319C67 29.8574 67 29.8829 67 29.9083C67 29.9337 67 29.9591 67 29.9845C67 30.0098 67 30.0351 67 30.0604C67 30.0857 67 30.1109 67 30.1361C67 30.1613 67 30.1865 67 30.2116C67 30.2368 67 30.2619 67 30.2869C67 30.312 67 30.337 67 30.362C67 30.387 67 30.4119 67 30.4368C67 30.4617 67 30.4866 67 30.5114C67 30.5362 67 30.561 67 30.5857C67 30.6105 67 30.6352 67 30.6599C67 30.6845 67 30.7092 67 30.7338C67 30.7584 67 30.7829 67 30.8074C67 30.8319 67 30.8564 67 30.8808C67 30.9053 67 30.9297 67 30.954C67 30.9784 67 31.0027 67 31.027C67 31.0512 67 31.0755 67 31.0997C67 31.1239 67 31.148 67 31.1721C67 31.1962 67 31.2203 67 31.2443C67 31.2684 67 31.2924 67 31.3163C67 31.3403 67 31.3642 67 31.388C67 31.4119 67 31.4357 67 31.4595C67 31.4833 67 31.507 67 31.5307C67 31.5544 67 31.5781 67 31.6017C67 31.6253 67 31.6489 67 31.6724C67 31.696 67 31.7195 67 31.7429C67 31.7664 67 31.7898 67 31.8131C67 31.8365 67 31.8598 67 31.8831C67 31.9064 67 31.9296 67 31.9528C67 31.976 67 31.9991 67 32.0222C67 32.0454 67 32.0684 67 32.0914C67 32.1145 67 32.1374 67 32.1604C67 32.1833 67 32.2062 67 32.229C67 32.2519 67 32.2747 67 32.2974C67 32.3202 67 32.3429 67 32.3656C67 32.3882 67 32.4109 67 32.4334C67 32.456 67 32.4785 67 32.501C67 32.5235 67 32.546 67 32.5684C67 32.5908 67 32.6131 67 32.6354C67 32.6577 67 32.68 67 32.7022C67 32.7244 67 32.7466 67 32.7687C67 32.7909 67 32.813 67 32.835C67 32.857 67 32.879 67 32.901C67 32.9229 67 32.9448 67 32.9667C67 32.9885 67 33.0103 67 33.0321C67 33.0538 67 33.0755 67 33.0972C67 33.1189 67 33.1405 67 33.1621C67 33.1836 67 33.2052 67 33.2266C67 33.2481 67 33.2695 67 33.2909C67 33.3123 67 33.3336 67 33.3549C67 33.3762 67 33.3975 67 33.4186C67 33.4398 67 33.461 67 33.4821C67 33.5032 67 33.5242 67 33.5452C67 33.5662 67 33.5872 67 33.6081C67 33.629 67 33.6498 67 33.6706C67 33.6914 67 33.7122 67 33.7329C67 33.7536 67 33.7743 67 33.7949C67 33.8155 67 33.836 67 33.8565C67 33.877 67 33.8975 67 33.9179C67 33.9383 67 33.9587 67 33.979C67 33.9993 67 34.0196 67 34.0398C67 34.06 67 34.0802 67 34.1003C67 34.1204 67 34.1404 67 34.1604C67 34.1805 67 34.2004 67 34.2203C67 34.2402 67 34.2601 67 34.2799C67 34.2997 67 34.3194 67 34.3392C67 34.3589 67 34.3785 67 34.3981C67 34.4177 67 34.4373 67 34.4568C67 34.4763 67 34.4957 67 34.5151C67 34.5345 67 34.5538 67 34.5731C67 34.5924 67 34.6116 67 34.6308C67 34.65 67 34.6692 67 34.6882C67 34.7073 67 34.7263 67 34.7453C67 34.7643 67 34.7832 67 34.8021C67 34.821 67 34.8398 67 34.8585C67 34.8773 67 34.896 67 34.9147C67 34.9333 67 34.9519 67 34.9705C67 34.989 67 35.0075 67 35.026C67 35.0444 67 35.0628 67 35.0811C67 35.0995 67 35.1177 67 35.136C67 35.1542 67 35.1724 67 35.1905C67 35.2086 67 35.2266 67 35.2447C67 35.2627 67 35.2806 67 35.2985C67 35.3164 67 35.3342 67 35.352C67 35.3698 67 35.3875 67 35.4052C67 35.4229 67 35.4405 67 35.4581C67 35.4756 67 35.4932 67 35.5106C67 35.5281 67 35.5455 67 35.5628C67 35.5801 67 35.5974 67 35.6147C67 35.6319 67 35.6491 67 35.6662C67 35.6833 67 35.7003 67 35.7173C67 35.7343 67 35.7513 67 35.7682C67 35.7851 67 35.8019 67 35.8187C67 35.8354 67 35.8522 67 35.8688C67 35.8855 67 35.9021 67 35.9186C67 35.9352 67 35.9517 67 35.9681C67 35.9845 67 36.0009 67 36.0172C67 36.0335 67 36.0498 67 36.066C67 36.0821 67 36.0983 67 36.1144C67 36.1304 67 36.1465 67 36.1624C67 36.1784 67 36.1943 67 36.2101C67 36.226 67 36.2418 67 36.2575C67 36.2732 67 36.2889 67 36.3045C67 36.3201 67 36.3356 67 36.3511C67 36.3666 67 36.382 67 36.3974C67 36.4128 67 36.4281 67 36.4433C67 36.4586 67 36.4738 67 36.4889C67 36.504 67 36.5191 67 36.5341C67 36.5491 67 36.564 67 36.5789C67 36.5938 67 36.6086 67 36.6234C67 36.6382 67 36.6529 67 36.6675C67 36.6821 67 36.6967 67 36.7112C67 36.7258 67 36.7402 67 36.7546C67 36.769 67 36.7833 67 36.7976C67 36.8119 67 36.8261 67 36.8402C67 36.8544 67 36.8685 67 36.8825C67 36.8965 67 36.9105 67 36.9244C67 36.9383 67 36.9521 67 36.9659C67 36.9796 67 36.9934 67 37.007C67 37.0206 67 37.0342 67 37.0477C67 37.0613 67 37.0747 67 37.0881C67 37.1015 67 37.1148 67 37.1281C67 37.1414 67 37.1546 67 37.1677C67 37.1809 67 37.1939 67 37.2069C67 37.2199 67 37.2329 67 37.2458C67 37.2587 67 37.2715 67 37.2842C67 37.297 67 37.3097 67 37.3223C67 37.3349 67 37.3475 67 37.36C67 37.3725 67 37.3849 67 37.3972C67 37.4096 67 37.4219 67 37.4341C67 37.4464 67 37.4585 67 37.4706C67 37.4827 67 37.4948 67 37.5068C67 37.5187 67 37.5306 67 37.5425C67 37.5543 67 37.5661 67 37.5778C67 37.5895 67 37.6011 67 37.6127C67 37.6243 67 37.6358 67 37.6472C67 37.6586 67 37.67 67 37.6813C67 37.6926 67 37.7039 67 37.715C67 37.7262 67 37.7373 67 37.7483C67 37.7594 67 37.7704 67 37.7813C67 37.7922 67 37.803 67 37.8138C67 37.8245 67 37.8352 67 37.8458C67 37.8565 67 37.867 67 37.8775C67 37.888 67 37.8984 67 37.9088C67 37.9192 67 37.9294 67 37.9397C67 37.9499 67 37.96 67 37.9701C67 37.9802 67 37.9902 67 38.0001C67 38.0101 67 38.02 67 38.0298C67 38.0396 67 38.0493 67 38.059C67 38.0686 67 38.0782 67 38.0877C67 38.0973 67 38.1067 67 38.1161C67 38.1255 67 38.1348 67 38.144C67 38.1533 67 38.1625 67 38.1716C67 38.1807 67 38.1897 67 38.1987C67 38.2076 67 38.2165 67 38.2253C67 38.2342 67 38.2429 67 38.2516C67 38.2603 67 38.2689 67 38.2774C67 38.2859 67 38.2944 67 38.3028C67 38.3112 67 38.3195 67 38.3278C67 38.336 67 38.3442 67 38.3523C67 38.3604 67 38.3684 67 38.3764C67 38.3843 67 38.3922 67 38.4C67 38.4078 67 38.4156 67 38.4233C67 38.4309 67 38.4385 67 38.446C67 38.4536 67 38.461 67 38.4684C67 38.4758 67 38.4831 67 38.4903C67 38.4975 67 38.5047 67 38.5118C67 38.5189 67 38.5259 67 38.5328C67 38.5397 67 38.5466 67 38.5534C67 38.5602 67 38.5669 67 38.5735C67 38.5802 67 38.5867 67 38.5932C67 38.5997 67 38.6061 67 38.6125C67 38.6188 67 38.6251 67 38.6313C67 38.6375 67 38.6436 67 38.6496C67 38.6556 67 38.6616 67 38.6675C67 38.6734 67 38.6792 67 38.6849C67 38.6907 67 38.6963 67 38.7019C67 38.7075 67 38.713 67 38.7185C67 38.7239 67 38.7293 67 38.7345C67 38.7398 67 38.745 67 38.7502C67 38.7553 67 38.7603 67 38.7653C67 38.7703 67 38.7752 67 38.78C67 38.7848 67 38.7896 67 38.7942C67 38.7989 67 38.8035 67 38.808C67 38.8125 67 38.817 67 38.8213C67 38.8257 67 38.83 67 38.8342C67 38.8384 67 38.8425 67 38.8465C67 38.8506 67 38.8546 67 38.8584C67 38.8623 67 38.8661 67 38.8699C67 38.8736 67 38.8773 67 38.8808C67 38.8844 67 38.8879 67 38.8913C67 38.8947 67 38.8981 67 38.9013C67 38.9046 67 38.9078 67 38.9109C67 38.914 67 38.917 67 38.9199C67 38.9229 67 38.9257 67 38.9285C67 38.9313 67 38.934 67 38.9366C67 38.9393 67 38.9418 67 38.9443C67 38.9467 67 38.9491 67 38.9514C67 38.9537 67 38.9559 67 38.9581C67 38.9602 67 38.9622 67 38.9642C67 38.9662 67 38.9681 67 38.9699C67 38.9717 67 38.9735 67 38.9751C67 38.9768 67 38.9783 67 38.9798C67 38.9813 67 38.9827 67 38.984C67 38.9854 67 38.9866 67 38.9878C67 38.9889 67 38.99 67 38.991C67 38.992 67 38.9929 67 38.9938C67 38.9946 67 38.9953 67 38.996C67 38.9967 67 38.9972 67 38.9977C67 38.9982 67 38.9987 67 38.999C67 38.9993 67 38.9996 67 38.9997C67 38.9999 67 39 69 39ZM69 5H91V1H69V5ZM89 3V39H93V3H89ZM71 39V3H67V39H71Z" fill="black"/>
</g>
<defs>
<filter id="filter0_d_932_1421" x="64" y="0" width="32" height="48.3701" filterUnits="userSpaceOnUse" color-interpolation-filters="sRGB">
<feFlood flood-opacity="0" result="BackgroundImageFix"/>
<feColorMatrix in="SourceAlpha" type="matrix" values="0 0 0 0 0 0 0 0 0 0 0 0 0 0 0 0 0 0 127 0" result="hardAlpha"/>
<feOffset dy="2"/>
<feGaussianBlur stdDeviation="1.5"/>
<feComposite in2="hardAlpha" operator="out"/>
<feColorMatrix type="matrix" values="0 0 0 0 0 0 0 0 0 0 0 0 0 0 0 0 0 0 0.25 0"/>
<feBlend mode="normal" in2="BackgroundImageFix" result="effect1_dropShadow_932_1421"/>
<feBlend mode="normal" in="SourceGraphic" in2="effect1_dropShadow_932_1421" result="shape"/>
</filter>
<linearGradient id="paint0_linear_932_1421" x1="65" y1="3" x2="65" y2="100.5" gradientUnits="userSpaceOnUse">
<stop offset="0.107112" stop-color="#7BCAB4"/>
<stop offset="0.76838" stop-color="#62C0A5"/>
</linearGradient>
</defs>
</svg>
