<svg width="2662" height="550" viewBox="0 0 2662 550" fill="none" xmlns="http://www.w3.org/2000/svg">
<rect width="550" height="550" rx="100" fill="#40A689"/>
<path d="M275.5 262.094L352.5 239.41V357.91L451 328.5V403L275.5 455.41V262.094Z" fill="white"/>
<path d="M205 446.5V266.709C205 240.18 222.421 216.801 247.841 209.214L429.5 155L353.099 108.697C338.701 99.97 321.297 97.6949 305.139 102.427L143.138 149.867C117.569 157.355 100 180.807 100 207.449V346.611C100 367.099 110.454 386.171 127.725 397.191L205 446.5Z" fill="white"/>
<path d="M914.592 139.481H1097.9V208.306H999.141V243.783H1092.93V316.865H992.036V358.727H1103.58V433.938H914.592V139.481Z" fill="black"/>
<path d="M669 139.481H766.337V348.084H849.465V431.1H669V139.481Z" fill="black"/>
<path d="M2364.01 136.643H2477.69L2511.8 194.825L2551.58 136.643H2661L2569.35 276.421L2660.29 431.1H2548.03L2507.53 360.146L2452.83 431.1H2349.81L2454.25 278.55L2364.01 136.643Z" fill="black"/>
<path d="M1171.79 139.481H1285.47L1319.57 197.663L1359.36 139.481H1468.78L1377.12 279.259L1468.06 433.938H1355.81L1315.31 362.984L1260.6 433.938H1157.58L1262.02 281.388L1171.79 139.481Z" fill="black"/>
<path d="M1537.9 139.481H1626.71V433.938H1537.9V139.481Z" fill="black"/>
<path fill-rule="evenodd" clip-rule="evenodd" d="M1702.45 139.481V433.938H1857.33C1893.57 433.228 1934.95 407.685 1936.91 358.727C1938.07 329.636 1917.01 299.126 1878.65 290.612V280.679C1913.86 262.635 1927.45 231.011 1922.95 203.339C1918.34 174.958 1893.57 139.481 1848.81 139.481H1702.45ZM1831.04 216.854C1831.04 214.092 1828.81 211.854 1826.04 211.854H1787.02C1784.26 211.854 1782.02 214.092 1782.02 216.854V240.911C1782.02 243.673 1784.26 245.911 1787.02 245.911H1826.04C1828.81 245.911 1831.04 243.673 1831.04 240.911V216.854ZM1787.02 362.275C1784.26 362.275 1782.02 360.036 1782.02 357.275V329.67C1782.02 326.908 1784.26 324.67 1787.02 324.67H1831.02C1833.78 324.67 1836.02 326.908 1836.02 329.67V357.275C1836.02 360.036 1833.78 362.275 1831.02 362.275H1787.02Z" fill="black"/>
<path fill-rule="evenodd" clip-rule="evenodd" d="M2156.87 126C2281.92 126 2330.94 219.661 2330.94 290.612C2330.94 372.261 2256.34 446 2156.87 446C2049.58 446 1984.22 375.049 1984.22 290.612C1984.22 178.508 2068.06 126 2156.87 126ZM2156.16 208.309C2105 206.89 2075.16 250.881 2075.16 287.777C2075.16 341.701 2126.32 363.697 2156.87 363.697C2207.31 363.697 2237.15 324.672 2237.15 287.777C2237.15 231.723 2188.13 209.196 2156.16 208.309Z" fill="black"/>
<path d="M914.592 139.481H1097.9V208.306H999.141V243.783H1092.93V316.865H992.036V358.727H1103.58V433.938H914.592V139.481Z" stroke="black"/>
<path d="M669 139.481H766.337V348.084H849.465V431.1H669V139.481Z" stroke="black"/>
<path d="M2364.01 136.643H2477.69L2511.8 194.825L2551.58 136.643H2661L2569.35 276.421L2660.29 431.1H2548.03L2507.53 360.146L2452.83 431.1H2349.81L2454.25 278.55L2364.01 136.643Z" stroke="black"/>
<path d="M1171.79 139.481H1285.47L1319.57 197.663L1359.36 139.481H1468.78L1377.12 279.259L1468.06 433.938H1355.81L1315.31 362.984L1260.6 433.938H1157.58L1262.02 281.388L1171.79 139.481Z" stroke="black"/>
<path d="M1537.9 139.481H1626.71V433.938H1537.9V139.481Z" stroke="black"/>
<path fill-rule="evenodd" clip-rule="evenodd" d="M1702.45 139.481V433.938H1857.33C1893.57 433.228 1934.95 407.685 1936.91 358.727C1938.07 329.636 1917.01 299.126 1878.65 290.612V280.679C1913.86 262.635 1927.45 231.011 1922.95 203.339C1918.34 174.958 1893.57 139.481 1848.81 139.481H1702.45ZM1831.04 216.854C1831.04 214.092 1828.81 211.854 1826.04 211.854H1787.02C1784.26 211.854 1782.02 214.092 1782.02 216.854V240.911C1782.02 243.673 1784.26 245.911 1787.02 245.911H1826.04C1828.81 245.911 1831.04 243.673 1831.04 240.911V216.854ZM1787.02 362.275C1784.26 362.275 1782.02 360.036 1782.02 357.275V329.67C1782.02 326.908 1784.26 324.67 1787.02 324.67H1831.02C1833.78 324.67 1836.02 326.908 1836.02 329.67V357.275C1836.02 360.036 1833.78 362.275 1831.02 362.275H1787.02Z" stroke="black"/>
<path fill-rule="evenodd" clip-rule="evenodd" d="M2156.87 126C2281.92 126 2330.94 219.661 2330.94 290.612C2330.94 372.261 2256.34 446 2156.87 446C2049.58 446 1984.22 375.049 1984.22 290.612C1984.22 178.508 2068.06 126 2156.87 126ZM2156.16 208.309C2105 206.89 2075.16 250.881 2075.16 287.777C2075.16 341.701 2126.32 363.697 2156.87 363.697C2207.31 363.697 2237.15 324.672 2237.15 287.777C2237.15 231.723 2188.13 209.196 2156.16 208.309Z" stroke="black"/>
</svg>
